M48
; DRILL file {KiCad 9.0.8-9.0.8~ubuntu24.04.1} date 2026-05-07T18:38:26+0200
; FORMAT={-:-/ absolute / metric / decimal}
; #@! TF.CreationDate,2026-05-07T18:38:26+02:00
; #@! TF.GenerationSoftware,Kicad,Pcbnew,9.0.8-9.0.8~ubuntu24.04.1
; #@! TF.FileFunction,Plated,1,2,PTH
FMAT,2
METRIC
; #@! TA.AperFunction,Plated,PTH,ViaDrill
T1C0.300
; #@! TA.AperFunction,Plated,PTH,ViaDrill
T2C0.350
; #@! TA.AperFunction,Plated,PTH,ComponentDrill
T3C0.950
%
G90
G05
T1
X92.0Y-91.9
X92.0Y-94.8
X95.0Y-92.0
X95.9Y-90.5
X98.8Y-79.3
X100.5Y-92.0
X104.0Y-79.3
X104.6Y-92.0
X105.7Y-90.3
X106.5Y-70.5
X106.5Y-72.6
X107.5Y-75.5
X107.5Y-78.0
X109.5Y-92.7
X110.165Y-75.0
X110.165Y-77.54
X110.7Y-87.1
X111.8Y-90.6
X113.1Y-86.0
X114.0Y-74.5
X117.5Y-77.0
X119.4Y-92.7
X120.0Y-89.0
X121.5Y-73.5
X122.5Y-81.9
X123.865Y-79.475
X124.1Y-92.3
X125.0Y-86.4
X125.1Y-89.1
X126.405Y-79.475
X127.25Y-86.75
X127.8Y-91.6
X129.3Y-93.0
X130.6Y-69.0
X131.6Y-75.5
X132.2Y-91.2
X132.6Y-84.1
X133.312Y-89.162
X134.6Y-92.6
X135.2Y-68.3
X136.4Y-91.7
X136.9Y-73.1
X136.9Y-75.6
X138.2Y-90.4
X138.6Y-96.0
X139.3Y-91.4
X140.8Y-88.7
X142.0Y-98.5
X142.3Y-92.2
T2
X99.5Y-97.3
X110.0Y-97.3
X115.675Y-88.5
X119.6Y-97.212
X128.7Y-97.212
X138.1Y-92.4
T3
X133.955Y-71.95
X133.955Y-74.45
X133.955Y-76.95
X133.955Y-79.45
M30
