%TF.GenerationSoftware,KiCad,Pcbnew,9.0.8-9.0.8~ubuntu24.04.1*%
%TF.CreationDate,2026-05-07T18:38:22+02:00*%
%TF.ProjectId,acw02_zb-v1.2,61637730-325f-47a6-922d-76312e322e6b,rev?*%
%TF.SameCoordinates,Original*%
%TF.FileFunction,Legend,Bot*%
%TF.FilePolarity,Positive*%
%FSLAX46Y46*%
G04 Gerber Fmt 4.6, Leading zero omitted, Abs format (unit mm)*
G04 Created by KiCad (PCBNEW 9.0.8-9.0.8~ubuntu24.04.1) date 2026-05-07 18:38:22*
%MOMM*%
%LPD*%
G01*
G04 APERTURE LIST*
G04 Aperture macros list*
%AMRoundRect*
0 Rectangle with rounded corners*
0 $1 Rounding radius*
0 $2 $3 $4 $5 $6 $7 $8 $9 X,Y pos of 4 corners*
0 Add a 4 corners polygon primitive as box body*
4,1,4,$2,$3,$4,$5,$6,$7,$8,$9,$2,$3,0*
0 Add four circle primitives for the rounded corners*
1,1,$1+$1,$2,$3*
1,1,$1+$1,$4,$5*
1,1,$1+$1,$6,$7*
1,1,$1+$1,$8,$9*
0 Add four rect primitives between the rounded corners*
20,1,$1+$1,$2,$3,$4,$5,0*
20,1,$1+$1,$4,$5,$6,$7,0*
20,1,$1+$1,$6,$7,$8,$9,0*
20,1,$1+$1,$8,$9,$2,$3,0*%
G04 Aperture macros list end*
%ADD10C,0.150000*%
%ADD11C,0.200000*%
%ADD12RoundRect,0.250000X0.725000X-0.600000X0.725000X0.600000X-0.725000X0.600000X-0.725000X-0.600000X0*%
%ADD13O,1.950000X1.700000*%
G04 APERTURE END LIST*
D10*
X107333332Y-68869819D02*
X106666666Y-69869819D01*
X106666666Y-68869819D02*
X107333332Y-69869819D01*
X106285713Y-69869819D02*
X106285713Y-69203152D01*
X106285713Y-68869819D02*
X106333332Y-68917438D01*
X106333332Y-68917438D02*
X106285713Y-68965057D01*
X106285713Y-68965057D02*
X106238094Y-68917438D01*
X106238094Y-68917438D02*
X106285713Y-68869819D01*
X106285713Y-68869819D02*
X106285713Y-68965057D01*
X105380952Y-69869819D02*
X105380952Y-69346009D01*
X105380952Y-69346009D02*
X105428571Y-69250771D01*
X105428571Y-69250771D02*
X105523809Y-69203152D01*
X105523809Y-69203152D02*
X105714285Y-69203152D01*
X105714285Y-69203152D02*
X105809523Y-69250771D01*
X105380952Y-69822200D02*
X105476190Y-69869819D01*
X105476190Y-69869819D02*
X105714285Y-69869819D01*
X105714285Y-69869819D02*
X105809523Y-69822200D01*
X105809523Y-69822200D02*
X105857142Y-69726961D01*
X105857142Y-69726961D02*
X105857142Y-69631723D01*
X105857142Y-69631723D02*
X105809523Y-69536485D01*
X105809523Y-69536485D02*
X105714285Y-69488866D01*
X105714285Y-69488866D02*
X105476190Y-69488866D01*
X105476190Y-69488866D02*
X105380952Y-69441247D01*
X104761904Y-69869819D02*
X104857142Y-69822200D01*
X104857142Y-69822200D02*
X104904761Y-69774580D01*
X104904761Y-69774580D02*
X104952380Y-69679342D01*
X104952380Y-69679342D02*
X104952380Y-69393628D01*
X104952380Y-69393628D02*
X104904761Y-69298390D01*
X104904761Y-69298390D02*
X104857142Y-69250771D01*
X104857142Y-69250771D02*
X104761904Y-69203152D01*
X104761904Y-69203152D02*
X104619047Y-69203152D01*
X104619047Y-69203152D02*
X104523809Y-69250771D01*
X104523809Y-69250771D02*
X104476190Y-69298390D01*
X104476190Y-69298390D02*
X104428571Y-69393628D01*
X104428571Y-69393628D02*
X104428571Y-69679342D01*
X104428571Y-69679342D02*
X104476190Y-69774580D01*
X104476190Y-69774580D02*
X104523809Y-69822200D01*
X104523809Y-69822200D02*
X104619047Y-69869819D01*
X104619047Y-69869819D02*
X104761904Y-69869819D01*
X103238094Y-69346009D02*
X102904761Y-69346009D01*
X102761904Y-69869819D02*
X103238094Y-69869819D01*
X103238094Y-69869819D02*
X103238094Y-68869819D01*
X103238094Y-68869819D02*
X102761904Y-68869819D01*
X102380951Y-69822200D02*
X102238094Y-69869819D01*
X102238094Y-69869819D02*
X101999999Y-69869819D01*
X101999999Y-69869819D02*
X101904761Y-69822200D01*
X101904761Y-69822200D02*
X101857142Y-69774580D01*
X101857142Y-69774580D02*
X101809523Y-69679342D01*
X101809523Y-69679342D02*
X101809523Y-69584104D01*
X101809523Y-69584104D02*
X101857142Y-69488866D01*
X101857142Y-69488866D02*
X101904761Y-69441247D01*
X101904761Y-69441247D02*
X101999999Y-69393628D01*
X101999999Y-69393628D02*
X102190475Y-69346009D01*
X102190475Y-69346009D02*
X102285713Y-69298390D01*
X102285713Y-69298390D02*
X102333332Y-69250771D01*
X102333332Y-69250771D02*
X102380951Y-69155533D01*
X102380951Y-69155533D02*
X102380951Y-69060295D01*
X102380951Y-69060295D02*
X102333332Y-68965057D01*
X102333332Y-68965057D02*
X102285713Y-68917438D01*
X102285713Y-68917438D02*
X102190475Y-68869819D01*
X102190475Y-68869819D02*
X101952380Y-68869819D01*
X101952380Y-68869819D02*
X101809523Y-68917438D01*
X101380951Y-69869819D02*
X101380951Y-68869819D01*
X101380951Y-68869819D02*
X100999999Y-68869819D01*
X100999999Y-68869819D02*
X100904761Y-68917438D01*
X100904761Y-68917438D02*
X100857142Y-68965057D01*
X100857142Y-68965057D02*
X100809523Y-69060295D01*
X100809523Y-69060295D02*
X100809523Y-69203152D01*
X100809523Y-69203152D02*
X100857142Y-69298390D01*
X100857142Y-69298390D02*
X100904761Y-69346009D01*
X100904761Y-69346009D02*
X100999999Y-69393628D01*
X100999999Y-69393628D02*
X101380951Y-69393628D01*
X100476189Y-68869819D02*
X99857142Y-68869819D01*
X99857142Y-68869819D02*
X100190475Y-69250771D01*
X100190475Y-69250771D02*
X100047618Y-69250771D01*
X100047618Y-69250771D02*
X99952380Y-69298390D01*
X99952380Y-69298390D02*
X99904761Y-69346009D01*
X99904761Y-69346009D02*
X99857142Y-69441247D01*
X99857142Y-69441247D02*
X99857142Y-69679342D01*
X99857142Y-69679342D02*
X99904761Y-69774580D01*
X99904761Y-69774580D02*
X99952380Y-69822200D01*
X99952380Y-69822200D02*
X100047618Y-69869819D01*
X100047618Y-69869819D02*
X100333332Y-69869819D01*
X100333332Y-69869819D02*
X100428570Y-69822200D01*
X100428570Y-69822200D02*
X100476189Y-69774580D01*
X99476189Y-68965057D02*
X99428570Y-68917438D01*
X99428570Y-68917438D02*
X99333332Y-68869819D01*
X99333332Y-68869819D02*
X99095237Y-68869819D01*
X99095237Y-68869819D02*
X98999999Y-68917438D01*
X98999999Y-68917438D02*
X98952380Y-68965057D01*
X98952380Y-68965057D02*
X98904761Y-69060295D01*
X98904761Y-69060295D02*
X98904761Y-69155533D01*
X98904761Y-69155533D02*
X98952380Y-69298390D01*
X98952380Y-69298390D02*
X99523808Y-69869819D01*
X99523808Y-69869819D02*
X98904761Y-69869819D01*
X98476189Y-69488866D02*
X97714285Y-69488866D01*
X96666666Y-69774580D02*
X96714285Y-69822200D01*
X96714285Y-69822200D02*
X96857142Y-69869819D01*
X96857142Y-69869819D02*
X96952380Y-69869819D01*
X96952380Y-69869819D02*
X97095237Y-69822200D01*
X97095237Y-69822200D02*
X97190475Y-69726961D01*
X97190475Y-69726961D02*
X97238094Y-69631723D01*
X97238094Y-69631723D02*
X97285713Y-69441247D01*
X97285713Y-69441247D02*
X97285713Y-69298390D01*
X97285713Y-69298390D02*
X97238094Y-69107914D01*
X97238094Y-69107914D02*
X97190475Y-69012676D01*
X97190475Y-69012676D02*
X97095237Y-68917438D01*
X97095237Y-68917438D02*
X96952380Y-68869819D01*
X96952380Y-68869819D02*
X96857142Y-68869819D01*
X96857142Y-68869819D02*
X96714285Y-68917438D01*
X96714285Y-68917438D02*
X96666666Y-68965057D01*
X95809523Y-68869819D02*
X95999999Y-68869819D01*
X95999999Y-68869819D02*
X96095237Y-68917438D01*
X96095237Y-68917438D02*
X96142856Y-68965057D01*
X96142856Y-68965057D02*
X96238094Y-69107914D01*
X96238094Y-69107914D02*
X96285713Y-69298390D01*
X96285713Y-69298390D02*
X96285713Y-69679342D01*
X96285713Y-69679342D02*
X96238094Y-69774580D01*
X96238094Y-69774580D02*
X96190475Y-69822200D01*
X96190475Y-69822200D02*
X96095237Y-69869819D01*
X96095237Y-69869819D02*
X95904761Y-69869819D01*
X95904761Y-69869819D02*
X95809523Y-69822200D01*
X95809523Y-69822200D02*
X95761904Y-69774580D01*
X95761904Y-69774580D02*
X95714285Y-69679342D01*
X95714285Y-69679342D02*
X95714285Y-69441247D01*
X95714285Y-69441247D02*
X95761904Y-69346009D01*
X95761904Y-69346009D02*
X95809523Y-69298390D01*
X95809523Y-69298390D02*
X95904761Y-69250771D01*
X95904761Y-69250771D02*
X96095237Y-69250771D01*
X96095237Y-69250771D02*
X96190475Y-69298390D01*
X96190475Y-69298390D02*
X96238094Y-69346009D01*
X96238094Y-69346009D02*
X96285713Y-69441247D01*
D11*
X137096993Y-77542742D02*
X137496993Y-76971314D01*
X137782707Y-77542742D02*
X137782707Y-76342742D01*
X137782707Y-76342742D02*
X137325564Y-76342742D01*
X137325564Y-76342742D02*
X137211279Y-76399885D01*
X137211279Y-76399885D02*
X137154136Y-76457028D01*
X137154136Y-76457028D02*
X137096993Y-76571314D01*
X137096993Y-76571314D02*
X137096993Y-76742742D01*
X137096993Y-76742742D02*
X137154136Y-76857028D01*
X137154136Y-76857028D02*
X137211279Y-76914171D01*
X137211279Y-76914171D02*
X137325564Y-76971314D01*
X137325564Y-76971314D02*
X137782707Y-76971314D01*
X136696993Y-76342742D02*
X135896993Y-77542742D01*
X135896993Y-76342742D02*
X136696993Y-77542742D01*
X138954136Y-71342742D02*
X138554136Y-72542742D01*
X138554136Y-72542742D02*
X138154136Y-71342742D01*
X137068422Y-72428457D02*
X137125565Y-72485600D01*
X137125565Y-72485600D02*
X137296993Y-72542742D01*
X137296993Y-72542742D02*
X137411279Y-72542742D01*
X137411279Y-72542742D02*
X137582708Y-72485600D01*
X137582708Y-72485600D02*
X137696993Y-72371314D01*
X137696993Y-72371314D02*
X137754136Y-72257028D01*
X137754136Y-72257028D02*
X137811279Y-72028457D01*
X137811279Y-72028457D02*
X137811279Y-71857028D01*
X137811279Y-71857028D02*
X137754136Y-71628457D01*
X137754136Y-71628457D02*
X137696993Y-71514171D01*
X137696993Y-71514171D02*
X137582708Y-71399885D01*
X137582708Y-71399885D02*
X137411279Y-71342742D01*
X137411279Y-71342742D02*
X137296993Y-71342742D01*
X137296993Y-71342742D02*
X137125565Y-71399885D01*
X137125565Y-71399885D02*
X137068422Y-71457028D01*
X135868422Y-72428457D02*
X135925565Y-72485600D01*
X135925565Y-72485600D02*
X136096993Y-72542742D01*
X136096993Y-72542742D02*
X136211279Y-72542742D01*
X136211279Y-72542742D02*
X136382708Y-72485600D01*
X136382708Y-72485600D02*
X136496993Y-72371314D01*
X136496993Y-72371314D02*
X136554136Y-72257028D01*
X136554136Y-72257028D02*
X136611279Y-72028457D01*
X136611279Y-72028457D02*
X136611279Y-71857028D01*
X136611279Y-71857028D02*
X136554136Y-71628457D01*
X136554136Y-71628457D02*
X136496993Y-71514171D01*
X136496993Y-71514171D02*
X136382708Y-71399885D01*
X136382708Y-71399885D02*
X136211279Y-71342742D01*
X136211279Y-71342742D02*
X136096993Y-71342742D01*
X136096993Y-71342742D02*
X135925565Y-71399885D01*
X135925565Y-71399885D02*
X135868422Y-71457028D01*
X138254136Y-73799885D02*
X138368422Y-73742742D01*
X138368422Y-73742742D02*
X138539850Y-73742742D01*
X138539850Y-73742742D02*
X138711279Y-73799885D01*
X138711279Y-73799885D02*
X138825564Y-73914171D01*
X138825564Y-73914171D02*
X138882707Y-74028457D01*
X138882707Y-74028457D02*
X138939850Y-74257028D01*
X138939850Y-74257028D02*
X138939850Y-74428457D01*
X138939850Y-74428457D02*
X138882707Y-74657028D01*
X138882707Y-74657028D02*
X138825564Y-74771314D01*
X138825564Y-74771314D02*
X138711279Y-74885600D01*
X138711279Y-74885600D02*
X138539850Y-74942742D01*
X138539850Y-74942742D02*
X138425564Y-74942742D01*
X138425564Y-74942742D02*
X138254136Y-74885600D01*
X138254136Y-74885600D02*
X138196993Y-74828457D01*
X138196993Y-74828457D02*
X138196993Y-74428457D01*
X138196993Y-74428457D02*
X138425564Y-74428457D01*
X137682707Y-74942742D02*
X137682707Y-73742742D01*
X137682707Y-73742742D02*
X136996993Y-74942742D01*
X136996993Y-74942742D02*
X136996993Y-73742742D01*
X136425564Y-74942742D02*
X136425564Y-73742742D01*
X136425564Y-73742742D02*
X136139850Y-73742742D01*
X136139850Y-73742742D02*
X135968421Y-73799885D01*
X135968421Y-73799885D02*
X135854136Y-73914171D01*
X135854136Y-73914171D02*
X135796993Y-74028457D01*
X135796993Y-74028457D02*
X135739850Y-74257028D01*
X135739850Y-74257028D02*
X135739850Y-74428457D01*
X135739850Y-74428457D02*
X135796993Y-74657028D01*
X135796993Y-74657028D02*
X135854136Y-74771314D01*
X135854136Y-74771314D02*
X135968421Y-74885600D01*
X135968421Y-74885600D02*
X136139850Y-74942742D01*
X136139850Y-74942742D02*
X136425564Y-74942742D01*
X142328571Y-98899885D02*
X141757143Y-98899885D01*
X142442857Y-99242742D02*
X142042857Y-98042742D01*
X142042857Y-98042742D02*
X141642857Y-99242742D01*
X140557143Y-99128457D02*
X140614286Y-99185600D01*
X140614286Y-99185600D02*
X140785714Y-99242742D01*
X140785714Y-99242742D02*
X140900000Y-99242742D01*
X140900000Y-99242742D02*
X141071429Y-99185600D01*
X141071429Y-99185600D02*
X141185714Y-99071314D01*
X141185714Y-99071314D02*
X141242857Y-98957028D01*
X141242857Y-98957028D02*
X141300000Y-98728457D01*
X141300000Y-98728457D02*
X141300000Y-98557028D01*
X141300000Y-98557028D02*
X141242857Y-98328457D01*
X141242857Y-98328457D02*
X141185714Y-98214171D01*
X141185714Y-98214171D02*
X141071429Y-98099885D01*
X141071429Y-98099885D02*
X140900000Y-98042742D01*
X140900000Y-98042742D02*
X140785714Y-98042742D01*
X140785714Y-98042742D02*
X140614286Y-98099885D01*
X140614286Y-98099885D02*
X140557143Y-98157028D01*
X140157143Y-98042742D02*
X139871429Y-99242742D01*
X139871429Y-99242742D02*
X139642857Y-98385600D01*
X139642857Y-98385600D02*
X139414286Y-99242742D01*
X139414286Y-99242742D02*
X139128572Y-98042742D01*
X138442857Y-98042742D02*
X138328571Y-98042742D01*
X138328571Y-98042742D02*
X138214285Y-98099885D01*
X138214285Y-98099885D02*
X138157143Y-98157028D01*
X138157143Y-98157028D02*
X138100000Y-98271314D01*
X138100000Y-98271314D02*
X138042857Y-98499885D01*
X138042857Y-98499885D02*
X138042857Y-98785600D01*
X138042857Y-98785600D02*
X138100000Y-99014171D01*
X138100000Y-99014171D02*
X138157143Y-99128457D01*
X138157143Y-99128457D02*
X138214285Y-99185600D01*
X138214285Y-99185600D02*
X138328571Y-99242742D01*
X138328571Y-99242742D02*
X138442857Y-99242742D01*
X138442857Y-99242742D02*
X138557143Y-99185600D01*
X138557143Y-99185600D02*
X138614285Y-99128457D01*
X138614285Y-99128457D02*
X138671428Y-99014171D01*
X138671428Y-99014171D02*
X138728571Y-98785600D01*
X138728571Y-98785600D02*
X138728571Y-98499885D01*
X138728571Y-98499885D02*
X138671428Y-98271314D01*
X138671428Y-98271314D02*
X138614285Y-98157028D01*
X138614285Y-98157028D02*
X138557143Y-98099885D01*
X138557143Y-98099885D02*
X138442857Y-98042742D01*
X137585714Y-98157028D02*
X137528571Y-98099885D01*
X137528571Y-98099885D02*
X137414286Y-98042742D01*
X137414286Y-98042742D02*
X137128571Y-98042742D01*
X137128571Y-98042742D02*
X137014286Y-98099885D01*
X137014286Y-98099885D02*
X136957143Y-98157028D01*
X136957143Y-98157028D02*
X136900000Y-98271314D01*
X136900000Y-98271314D02*
X136900000Y-98385600D01*
X136900000Y-98385600D02*
X136957143Y-98557028D01*
X136957143Y-98557028D02*
X137642857Y-99242742D01*
X137642857Y-99242742D02*
X136900000Y-99242742D01*
X136385714Y-98785600D02*
X135471429Y-98785600D01*
X135014286Y-98042742D02*
X134214286Y-98042742D01*
X134214286Y-98042742D02*
X135014286Y-99242742D01*
X135014286Y-99242742D02*
X134214286Y-99242742D01*
X133357143Y-98614171D02*
X133185715Y-98671314D01*
X133185715Y-98671314D02*
X133128572Y-98728457D01*
X133128572Y-98728457D02*
X133071429Y-98842742D01*
X133071429Y-98842742D02*
X133071429Y-99014171D01*
X133071429Y-99014171D02*
X133128572Y-99128457D01*
X133128572Y-99128457D02*
X133185715Y-99185600D01*
X133185715Y-99185600D02*
X133300000Y-99242742D01*
X133300000Y-99242742D02*
X133757143Y-99242742D01*
X133757143Y-99242742D02*
X133757143Y-98042742D01*
X133757143Y-98042742D02*
X133357143Y-98042742D01*
X133357143Y-98042742D02*
X133242858Y-98099885D01*
X133242858Y-98099885D02*
X133185715Y-98157028D01*
X133185715Y-98157028D02*
X133128572Y-98271314D01*
X133128572Y-98271314D02*
X133128572Y-98385600D01*
X133128572Y-98385600D02*
X133185715Y-98499885D01*
X133185715Y-98499885D02*
X133242858Y-98557028D01*
X133242858Y-98557028D02*
X133357143Y-98614171D01*
X133357143Y-98614171D02*
X133757143Y-98614171D01*
X130842857Y-98442742D02*
X130557143Y-99242742D01*
X130557143Y-99242742D02*
X130271428Y-98442742D01*
X129185714Y-99242742D02*
X129871428Y-99242742D01*
X129528571Y-99242742D02*
X129528571Y-98042742D01*
X129528571Y-98042742D02*
X129642857Y-98214171D01*
X129642857Y-98214171D02*
X129757142Y-98328457D01*
X129757142Y-98328457D02*
X129871428Y-98385600D01*
X128671428Y-99128457D02*
X128614285Y-99185600D01*
X128614285Y-99185600D02*
X128671428Y-99242742D01*
X128671428Y-99242742D02*
X128728571Y-99185600D01*
X128728571Y-99185600D02*
X128671428Y-99128457D01*
X128671428Y-99128457D02*
X128671428Y-99242742D01*
X128157142Y-98157028D02*
X128099999Y-98099885D01*
X128099999Y-98099885D02*
X127985714Y-98042742D01*
X127985714Y-98042742D02*
X127699999Y-98042742D01*
X127699999Y-98042742D02*
X127585714Y-98099885D01*
X127585714Y-98099885D02*
X127528571Y-98157028D01*
X127528571Y-98157028D02*
X127471428Y-98271314D01*
X127471428Y-98271314D02*
X127471428Y-98385600D01*
X127471428Y-98385600D02*
X127528571Y-98557028D01*
X127528571Y-98557028D02*
X128214285Y-99242742D01*
X128214285Y-99242742D02*
X127471428Y-99242742D01*
X137614285Y-78842742D02*
X136928571Y-78842742D01*
X137271428Y-80042742D02*
X137271428Y-78842742D01*
X136642856Y-78842742D02*
X135842856Y-80042742D01*
X135842856Y-78842742D02*
X136642856Y-80042742D01*
%LPC*%
D12*
%TO.C,J1*%
X133955000Y-79450000D03*
D13*
X133955000Y-76950000D03*
X133955000Y-74450000D03*
X133955000Y-71950000D03*
%TD*%
%LPD*%
M02*
