%TF.GenerationSoftware,KiCad,Pcbnew,9.0.8-9.0.8~ubuntu24.04.1*%
%TF.CreationDate,2026-05-07T18:38:22+02:00*%
%TF.ProjectId,acw02_zb-v1.2,61637730-325f-47a6-922d-76312e322e6b,rev?*%
%TF.SameCoordinates,Original*%
%TF.FileFunction,Copper,L1,Top*%
%TF.FilePolarity,Positive*%
%FSLAX46Y46*%
G04 Gerber Fmt 4.6, Leading zero omitted, Abs format (unit mm)*
G04 Created by KiCad (PCBNEW 9.0.8-9.0.8~ubuntu24.04.1) date 2026-05-07 18:38:22*
%MOMM*%
%LPD*%
G01*
G04 APERTURE LIST*
G04 Aperture macros list*
%AMRoundRect*
0 Rectangle with rounded corners*
0 $1 Rounding radius*
0 $2 $3 $4 $5 $6 $7 $8 $9 X,Y pos of 4 corners*
0 Add a 4 corners polygon primitive as box body*
4,1,4,$2,$3,$4,$5,$6,$7,$8,$9,$2,$3,0*
0 Add four circle primitives for the rounded corners*
1,1,$1+$1,$2,$3*
1,1,$1+$1,$4,$5*
1,1,$1+$1,$6,$7*
1,1,$1+$1,$8,$9*
0 Add four rect primitives between the rounded corners*
20,1,$1+$1,$2,$3,$4,$5,0*
20,1,$1+$1,$4,$5,$6,$7,0*
20,1,$1+$1,$6,$7,$8,$9,0*
20,1,$1+$1,$8,$9,$2,$3,0*%
G04 Aperture macros list end*
%TA.AperFunction,SMDPad,CuDef*%
%ADD10RoundRect,0.250000X-1.000000X-0.650000X1.000000X-0.650000X1.000000X0.650000X-1.000000X0.650000X0*%
%TD*%
%TA.AperFunction,SMDPad,CuDef*%
%ADD11RoundRect,0.250000X0.450000X-0.262500X0.450000X0.262500X-0.450000X0.262500X-0.450000X-0.262500X0*%
%TD*%
%TA.AperFunction,SMDPad,CuDef*%
%ADD12RoundRect,0.250000X0.262500X0.450000X-0.262500X0.450000X-0.262500X-0.450000X0.262500X-0.450000X0*%
%TD*%
%TA.AperFunction,SMDPad,CuDef*%
%ADD13RoundRect,0.250000X0.475000X-0.250000X0.475000X0.250000X-0.475000X0.250000X-0.475000X-0.250000X0*%
%TD*%
%TA.AperFunction,SMDPad,CuDef*%
%ADD14RoundRect,0.250000X-0.650000X0.325000X-0.650000X-0.325000X0.650000X-0.325000X0.650000X0.325000X0*%
%TD*%
%TA.AperFunction,SMDPad,CuDef*%
%ADD15RoundRect,0.250000X0.700000X1.000000X-0.700000X1.000000X-0.700000X-1.000000X0.700000X-1.000000X0*%
%TD*%
%TA.AperFunction,SMDPad,CuDef*%
%ADD16RoundRect,0.150000X-0.150000X0.587500X-0.150000X-0.587500X0.150000X-0.587500X0.150000X0.587500X0*%
%TD*%
%TA.AperFunction,SMDPad,CuDef*%
%ADD17RoundRect,0.250000X0.650000X-0.325000X0.650000X0.325000X-0.650000X0.325000X-0.650000X-0.325000X0*%
%TD*%
%TA.AperFunction,SMDPad,CuDef*%
%ADD18RoundRect,0.150000X-0.625000X0.150000X-0.625000X-0.150000X0.625000X-0.150000X0.625000X0.150000X0*%
%TD*%
%TA.AperFunction,SMDPad,CuDef*%
%ADD19RoundRect,0.250000X-0.650000X0.350000X-0.650000X-0.350000X0.650000X-0.350000X0.650000X0.350000X0*%
%TD*%
%TA.AperFunction,SMDPad,CuDef*%
%ADD20RoundRect,0.150000X0.150000X-0.825000X0.150000X0.825000X-0.150000X0.825000X-0.150000X-0.825000X0*%
%TD*%
%TA.AperFunction,HeatsinkPad*%
%ADD21R,3.000000X2.290000*%
%TD*%
%TA.AperFunction,SMDPad,CuDef*%
%ADD22RoundRect,0.250000X-0.450000X0.262500X-0.450000X-0.262500X0.450000X-0.262500X0.450000X0.262500X0*%
%TD*%
%TA.AperFunction,SMDPad,CuDef*%
%ADD23RoundRect,0.250000X-0.262500X-0.450000X0.262500X-0.450000X0.262500X0.450000X-0.262500X0.450000X0*%
%TD*%
%TA.AperFunction,ComponentPad*%
%ADD24RoundRect,0.250000X0.725000X-0.600000X0.725000X0.600000X-0.725000X0.600000X-0.725000X-0.600000X0*%
%TD*%
%TA.AperFunction,ComponentPad*%
%ADD25O,1.950000X1.700000*%
%TD*%
%TA.AperFunction,SMDPad,CuDef*%
%ADD26RoundRect,0.500000X-0.875000X-0.500000X0.875000X-0.500000X0.875000X0.500000X-0.875000X0.500000X0*%
%TD*%
%TA.AperFunction,SMDPad,CuDef*%
%ADD27RoundRect,0.275000X-0.275000X0.975000X-0.275000X-0.975000X0.275000X-0.975000X0.275000X0.975000X0*%
%TD*%
%TA.AperFunction,SMDPad,CuDef*%
%ADD28C,1.700000*%
%TD*%
%TA.AperFunction,ViaPad*%
%ADD29C,0.600000*%
%TD*%
%TA.AperFunction,ViaPad*%
%ADD30C,0.700000*%
%TD*%
%TA.AperFunction,Conductor*%
%ADD31C,1.500000*%
%TD*%
%TA.AperFunction,Conductor*%
%ADD32C,0.900000*%
%TD*%
%TA.AperFunction,Conductor*%
%ADD33C,2.000000*%
%TD*%
%TA.AperFunction,Conductor*%
%ADD34C,1.000000*%
%TD*%
%TA.AperFunction,Conductor*%
%ADD35C,0.600000*%
%TD*%
%TA.AperFunction,Conductor*%
%ADD36C,0.200000*%
%TD*%
%TA.AperFunction,Conductor*%
%ADD37C,0.500000*%
%TD*%
G04 APERTURE END LIST*
D10*
%TO.P,D1,1,K*%
%TO.N,SW*%
X122600000Y-84000000D03*
%TO.P,D1,2,A*%
%TO.N,GND*%
X126600000Y-84000000D03*
%TD*%
D11*
%TO.P,R10,1*%
%TO.N,+5V*%
X99500000Y-97312500D03*
%TO.P,R10,2*%
%TO.N,GPIO2HV*%
X99500000Y-95487500D03*
%TD*%
D12*
%TO.P,R11,1*%
%TO.N,+3.3V*%
X133312500Y-89162500D03*
%TO.P,R11,2*%
%TO.N,TX*%
X131487500Y-89162500D03*
%TD*%
%TO.P,R1,1*%
%TO.N,+12V*%
X123000000Y-72000000D03*
%TO.P,R1,2*%
%TO.N,Net-(U3-EN)*%
X121175000Y-72000000D03*
%TD*%
D13*
%TO.P,C6,1*%
%TO.N,Net-(U3-COMP)*%
X130100000Y-83850000D03*
%TO.P,C6,2*%
%TO.N,Net-(C6-Pad2)*%
X130100000Y-81950000D03*
%TD*%
D14*
%TO.P,C5,1*%
%TO.N,Net-(U3-BST)*%
X120000000Y-74725000D03*
%TO.P,C5,2*%
%TO.N,SW*%
X120000000Y-77675000D03*
%TD*%
D12*
%TO.P,R13,1*%
%TO.N,+3.3V*%
X125100000Y-89100000D03*
%TO.P,R13,2*%
%TO.N,RX*%
X123275000Y-89100000D03*
%TD*%
D15*
%TO.P,L1,1*%
%TO.N,SW*%
X118550000Y-81500000D03*
%TO.P,L1,2*%
%TO.N,+5V*%
X114450000Y-81500000D03*
%TD*%
D16*
%TO.P,Q3,1,G*%
%TO.N,+3.3V*%
X133250000Y-93525000D03*
%TO.P,Q3,2,S*%
%TO.N,TX*%
X131350000Y-93525000D03*
%TO.P,Q3,3,D*%
%TO.N,RX_5V*%
X132300000Y-95400000D03*
%TD*%
%TO.P,Q1,1,G*%
%TO.N,+3.3V*%
X95950000Y-93562500D03*
%TO.P,Q1,2,S*%
%TO.N,GPIO2*%
X94050000Y-93562500D03*
%TO.P,Q1,3,D*%
%TO.N,GPIO2HV*%
X95000000Y-95437500D03*
%TD*%
D12*
%TO.P,R5,1*%
%TO.N,Net-(U3-FB)*%
X117500000Y-88500000D03*
%TO.P,R5,2*%
%TO.N,+5V*%
X115675000Y-88500000D03*
%TD*%
D17*
%TO.P,C3,1*%
%TO.N,+12V*%
X125500000Y-71950000D03*
%TO.P,C3,2*%
%TO.N,GND*%
X125500000Y-69000000D03*
%TD*%
D18*
%TO.P,J6,1,Pin_1*%
%TO.N,TX_5V*%
X138100000Y-87400000D03*
%TO.P,J6,2,Pin_2*%
%TO.N,RX_5V*%
X138100000Y-88400000D03*
%TO.P,J6,3,Pin_3*%
%TO.N,GPIO1HV*%
X138100000Y-89400000D03*
%TO.P,J6,4,Pin_4*%
%TO.N,GPIO2HV*%
X138100000Y-90400000D03*
%TO.P,J6,5,Pin_5*%
%TO.N,GND*%
X138100000Y-91400000D03*
%TO.P,J6,6,Pin_6*%
%TO.N,+5V*%
X138100000Y-92400000D03*
D19*
%TO.P,J6,MP*%
%TO.N,N/C*%
X140625000Y-86100000D03*
X140625000Y-93700000D03*
%TD*%
D12*
%TO.P,R9,1*%
%TO.N,+3.3V*%
X95912500Y-90600000D03*
%TO.P,R9,2*%
%TO.N,GPIO2*%
X94087500Y-90600000D03*
%TD*%
D11*
%TO.P,R14,1*%
%TO.N,+5V*%
X119600000Y-97212500D03*
%TO.P,R14,2*%
%TO.N,TX_5V*%
X119600000Y-95387500D03*
%TD*%
D20*
%TO.P,U3,1,SW*%
%TO.N,SW*%
X122595000Y-79475000D03*
%TO.P,U3,2,EN*%
%TO.N,Net-(U3-EN)*%
X123865000Y-79475000D03*
%TO.P,U3,3,COMP*%
%TO.N,Net-(U3-COMP)*%
X125135000Y-79475000D03*
%TO.P,U3,4,FB*%
%TO.N,Net-(U3-FB)*%
X126405000Y-79475000D03*
%TO.P,U3,5,GND*%
%TO.N,GND*%
X126405000Y-74525000D03*
%TO.P,U3,6,FREQ*%
%TO.N,Net-(U3-FREQ)*%
X125135000Y-74525000D03*
%TO.P,U3,7,VIN*%
%TO.N,+12V*%
X123865000Y-74525000D03*
%TO.P,U3,8,BST*%
%TO.N,Net-(U3-BST)*%
X122595000Y-74525000D03*
D21*
%TO.P,U3,9,EP*%
%TO.N,GND*%
X124500000Y-77000000D03*
%TD*%
D17*
%TO.P,C2,1*%
%TO.N,+12V*%
X128500000Y-71950000D03*
%TO.P,C2,2*%
%TO.N,GND*%
X128500000Y-69000000D03*
%TD*%
D22*
%TO.P,R4,1*%
%TO.N,Net-(U3-FREQ)*%
X129000000Y-74175000D03*
%TO.P,R4,2*%
%TO.N,GND*%
X129000000Y-76000000D03*
%TD*%
D11*
%TO.P,R8,1*%
%TO.N,+5V*%
X109900000Y-97312500D03*
%TO.P,R8,2*%
%TO.N,GPIO1HV*%
X109900000Y-95487500D03*
%TD*%
D14*
%TO.P,C7,1*%
%TO.N,+5V*%
X117000000Y-69000000D03*
%TO.P,C7,2*%
%TO.N,GND*%
X117000000Y-71950000D03*
%TD*%
D23*
%TO.P,R2,1*%
%TO.N,Net-(U3-EN)*%
X121175000Y-69000000D03*
%TO.P,R2,2*%
%TO.N,GND*%
X123000000Y-69000000D03*
%TD*%
D14*
%TO.P,C8,1*%
%TO.N,+5V*%
X114000000Y-69000000D03*
%TO.P,C8,2*%
%TO.N,GND*%
X114000000Y-71950000D03*
%TD*%
D11*
%TO.P,R12,1*%
%TO.N,+5V*%
X128700000Y-97212500D03*
%TO.P,R12,2*%
%TO.N,RX_5V*%
X128700000Y-95387500D03*
%TD*%
D24*
%TO.P,J1,1,Pin_1*%
%TO.N,RX_5V*%
X133955000Y-79450000D03*
D25*
%TO.P,J1,2,Pin_2*%
%TO.N,TX_5V*%
X133955000Y-76950000D03*
%TO.P,J1,3,Pin_3*%
%TO.N,GND*%
X133955000Y-74450000D03*
%TO.P,J1,4,Pin_4*%
%TO.N,+12V*%
X133955000Y-71950000D03*
%TD*%
D11*
%TO.P,R6,1*%
%TO.N,Net-(C6-Pad2)*%
X129000000Y-79922500D03*
%TO.P,R6,2*%
%TO.N,GND*%
X129000000Y-78097500D03*
%TD*%
D12*
%TO.P,R7,1*%
%TO.N,+3.3V*%
X105600000Y-90500000D03*
%TO.P,R7,2*%
%TO.N,GPIO1*%
X103775000Y-90500000D03*
%TD*%
D16*
%TO.P,Q4,1,G*%
%TO.N,+3.3V*%
X125087500Y-93637500D03*
%TO.P,Q4,2,S*%
%TO.N,RX*%
X123187500Y-93637500D03*
%TO.P,Q4,3,D*%
%TO.N,TX_5V*%
X124137500Y-95512500D03*
%TD*%
D12*
%TO.P,R3,1*%
%TO.N,Net-(U3-FB)*%
X118500000Y-86000000D03*
%TO.P,R3,2*%
%TO.N,GND*%
X116675000Y-86000000D03*
%TD*%
D16*
%TO.P,Q2,1,G*%
%TO.N,+3.3V*%
X105600000Y-93600000D03*
%TO.P,Q2,2,S*%
%TO.N,GPIO1*%
X103700000Y-93600000D03*
%TO.P,Q2,3,D*%
%TO.N,GPIO1HV*%
X104650000Y-95475000D03*
%TD*%
D26*
%TO.P,U1,1,GPIO0_A0_D0*%
%TO.N,unconnected-(U1-GPIO0_A0_D0-Pad1)*%
X94000000Y-69920000D03*
%TO.P,U1,2,GPIO1_A1_D1*%
%TO.N,GPIO1*%
X94000000Y-72460000D03*
%TO.P,U1,3,GPIO2_A2_D2*%
%TO.N,GPIO2*%
X94000000Y-75000000D03*
%TO.P,U1,4,GPIO21_D3*%
%TO.N,unconnected-(U1-GPIO21_D3-Pad4)*%
X94000000Y-77540000D03*
%TO.P,U1,5,GPIO22_D4_SDA*%
%TO.N,unconnected-(U1-GPIO22_D4_SDA-Pad5)*%
X94000000Y-80080000D03*
%TO.P,U1,6,GPIO23_D5_SCL*%
%TO.N,unconnected-(U1-GPIO23_D5_SCL-Pad6)*%
X94000000Y-82620000D03*
%TO.P,U1,7,GPIO16_D6_TX*%
%TO.N,unconnected-(U1-GPIO16_D6_TX-Pad7)*%
X94000000Y-85160000D03*
%TO.P,U1,8,GPIO17_D7_RX*%
%TO.N,unconnected-(U1-GPIO17_D7_RX-Pad8)*%
X110165000Y-85160000D03*
%TO.P,U1,9,GPIO19_D8_SCK*%
%TO.N,unconnected-(U1-GPIO19_D8_SCK-Pad9)*%
X110165000Y-82620000D03*
%TO.P,U1,10,GPIO20_D9_MISO*%
%TO.N,RX*%
X110165000Y-80080000D03*
%TO.P,U1,11,GPIO18_D10_MOSI*%
%TO.N,TX*%
X110165000Y-77540000D03*
%TO.P,U1,12,3V3*%
%TO.N,+3.3V*%
X110165000Y-75000000D03*
%TO.P,U1,13,GND*%
%TO.N,GND*%
X110165000Y-72460000D03*
%TO.P,U1,14,5V*%
%TO.N,+5V*%
X110165000Y-69920000D03*
D27*
%TO.P,U1,15,BAT*%
%TO.N,unconnected-(U1-BAT-Pad15)*%
X100273600Y-83071700D03*
%TO.P,U1,16,GND*%
%TO.N,unconnected-(U1-GND-Pad16)*%
X102813600Y-83071700D03*
D28*
%TO.P,U1,17,MTDI*%
%TO.N,unconnected-(U1-MTDI-Pad17)*%
X100781600Y-68898500D03*
%TO.P,U1,18,MTDO*%
%TO.N,unconnected-(U1-MTDO-Pad18)*%
X103321600Y-68898500D03*
%TO.P,U1,19,CHIP_EN*%
%TO.N,unconnected-(U1-CHIP_EN-Pad19)*%
X100781600Y-71438500D03*
%TO.P,U1,20,GND*%
%TO.N,unconnected-(U1-GND-Pad20)*%
X103321600Y-71438500D03*
%TO.P,U1,21,MTMS*%
%TO.N,unconnected-(U1-MTMS-Pad21)*%
X100781600Y-73978500D03*
%TO.P,U1,22,MTCK*%
%TO.N,unconnected-(U1-MTCK-Pad22)*%
X103321600Y-73978500D03*
%TO.P,U1,23,BOOT*%
%TO.N,unconnected-(U1-BOOT-Pad23)*%
X100781600Y-76518500D03*
%TO.P,U1,24,3V3_1*%
%TO.N,unconnected-(U1-3V3_1-Pad24)*%
X103229000Y-76461700D03*
%TD*%
D29*
%TO.N,GND*%
X95000000Y-92000000D03*
X124100000Y-92300000D03*
X109500000Y-92700000D03*
X132600000Y-84100000D03*
X110700000Y-87100000D03*
X136400000Y-91700000D03*
X122500000Y-81900000D03*
X113100000Y-86000000D03*
X98800000Y-79300000D03*
X117500000Y-77000000D03*
X140800000Y-88700000D03*
X132200000Y-91200000D03*
X134600000Y-92600000D03*
X104000000Y-79300000D03*
X92000000Y-94800000D03*
X120000000Y-89000000D03*
X106500000Y-70500000D03*
X127250000Y-86750000D03*
X135200000Y-68300000D03*
X100500000Y-92000000D03*
X130600000Y-69000000D03*
X136900000Y-73100000D03*
X136900000Y-75600000D03*
X106500000Y-72600000D03*
X129300000Y-93000000D03*
X111800000Y-90600000D03*
X114000000Y-74500000D03*
X131600000Y-75500000D03*
X142000000Y-98500000D03*
X138600000Y-96000000D03*
X92000000Y-91900000D03*
X119400000Y-92700000D03*
X104600000Y-92000000D03*
X139300000Y-91400000D03*
X107500000Y-78000000D03*
D30*
%TO.N,+5V*%
X110000000Y-97300000D03*
X115675000Y-88500000D03*
X119600000Y-97212500D03*
X99500000Y-97300000D03*
X128700000Y-97212500D03*
X138100000Y-92400000D03*
D29*
%TO.N,TX*%
X110165000Y-77540000D03*
X127800000Y-91600000D03*
%TO.N,+3.3V*%
X125100000Y-89100000D03*
X105700000Y-90300000D03*
X95900000Y-90500000D03*
X133312500Y-89162500D03*
X107500000Y-75500000D03*
X110165000Y-75000000D03*
%TO.N,Net-(U3-EN)*%
X123865000Y-79475000D03*
X121500000Y-73500000D03*
%TO.N,Net-(U3-FB)*%
X125000000Y-86400000D03*
X126405000Y-79475000D03*
%TO.N,GPIO2HV*%
X138200000Y-90400000D03*
X142300000Y-92200000D03*
%TD*%
D31*
%TO.N,+12V*%
X123000000Y-72000000D02*
X123000000Y-72252372D01*
X123000000Y-72252372D02*
X123865000Y-73117372D01*
X123050000Y-71950000D02*
X123000000Y-72000000D01*
X133955000Y-71950000D02*
X128500000Y-71950000D01*
X125500000Y-71950000D02*
X123050000Y-71950000D01*
X128500000Y-71950000D02*
X125500000Y-71950000D01*
D32*
X123865000Y-74525000D02*
X123865000Y-73117372D01*
D33*
%TO.N,GND*%
X113490000Y-72460000D02*
X114000000Y-71950000D01*
X110165000Y-72460000D02*
X113490000Y-72460000D01*
X114000000Y-71950000D02*
X117000000Y-71950000D01*
D34*
%TO.N,+5V*%
X114400000Y-77651222D02*
X114400000Y-81450000D01*
X119500000Y-72551222D02*
X114400000Y-77651222D01*
X118500000Y-69000000D02*
X119500000Y-70000000D01*
X112000000Y-69000000D02*
X114000000Y-69000000D01*
X114000000Y-69000000D02*
X117000000Y-69000000D01*
X109900000Y-97312500D02*
X110000000Y-97212500D01*
X119500000Y-70000000D02*
X119500000Y-72551222D01*
X114250000Y-81500000D02*
X114300000Y-81550000D01*
X114450000Y-81500000D02*
X114250000Y-81500000D01*
X110165000Y-69920000D02*
X111080000Y-69920000D01*
X117000000Y-69000000D02*
X118500000Y-69000000D01*
D35*
X114300000Y-81550000D02*
X114300000Y-87300000D01*
D34*
X114400000Y-81450000D02*
X114450000Y-81500000D01*
X99500000Y-97312500D02*
X99500000Y-97300000D01*
D35*
X114300000Y-87300000D02*
X115500000Y-88500000D01*
D34*
X111080000Y-69920000D02*
X112000000Y-69000000D01*
X115500000Y-88500000D02*
X115675000Y-88500000D01*
D36*
%TO.N,TX*%
X130237500Y-89162500D02*
X127800000Y-91600000D01*
X131350000Y-89300000D02*
X131487500Y-89162500D01*
X131350000Y-93525000D02*
X131350000Y-89300000D01*
X131487500Y-89162500D02*
X130237500Y-89162500D01*
D37*
%TO.N,+3.3V*%
X105600000Y-90400000D02*
X105700000Y-90300000D01*
X95912500Y-90600000D02*
X95912500Y-90512500D01*
X95912500Y-90512500D02*
X95900000Y-90500000D01*
X133250000Y-93525000D02*
X133250000Y-89225000D01*
X105600000Y-93600000D02*
X105600000Y-90500000D01*
X107500000Y-75500000D02*
X109665000Y-75500000D01*
X133250000Y-89225000D02*
X133312500Y-89162500D01*
X125087500Y-93637500D02*
X125087500Y-89112500D01*
X95900000Y-90500000D02*
X95900000Y-93512500D01*
X125087500Y-89112500D02*
X125100000Y-89100000D01*
X105600000Y-90500000D02*
X105600000Y-90400000D01*
X95900000Y-93512500D02*
X95950000Y-93562500D01*
X109665000Y-75500000D02*
X110165000Y-75000000D01*
D36*
X105550000Y-90537500D02*
X105587500Y-90500000D01*
%TO.N,RX*%
X121774000Y-90601000D02*
X115751057Y-90601000D01*
X115751057Y-90601000D02*
X111841000Y-86690943D01*
X111841000Y-81756000D02*
X110165000Y-80080000D01*
X123187500Y-93637500D02*
X123187500Y-89187500D01*
X123275000Y-89100000D02*
X121774000Y-90601000D01*
X111841000Y-86690943D02*
X111841000Y-81756000D01*
X123187500Y-89187500D02*
X123275000Y-89100000D01*
%TO.N,TX_5V*%
X124450000Y-95200000D02*
X124137500Y-95512500D01*
X131126000Y-86219532D02*
X126700000Y-90645532D01*
X125500000Y-95200000D02*
X124450000Y-95200000D01*
X124012500Y-95387500D02*
X124137500Y-95512500D01*
X133955000Y-76950000D02*
X131126000Y-79779000D01*
X135231000Y-84531000D02*
X135231000Y-78226000D01*
X119600000Y-95387500D02*
X124012500Y-95387500D01*
X138100000Y-87400000D02*
X135231000Y-84531000D01*
X126700000Y-90645532D02*
X126700000Y-94000000D01*
X126700000Y-94000000D02*
X125500000Y-95200000D01*
X135231000Y-78226000D02*
X133955000Y-76950000D01*
X131126000Y-79779000D02*
X131126000Y-86219532D01*
%TO.N,RX_5V*%
X128700000Y-95387500D02*
X132287500Y-95387500D01*
X133955000Y-85029999D02*
X133955000Y-79450000D01*
X137325001Y-88400000D02*
X133955000Y-85029999D01*
X133851000Y-94303468D02*
X132754468Y-95400000D01*
X132287500Y-95387500D02*
X132300000Y-95400000D01*
X133851000Y-91874001D02*
X133851000Y-94303468D01*
X132754468Y-95400000D02*
X132300000Y-95400000D01*
X137325001Y-88400000D02*
X133851000Y-91874001D01*
X138100000Y-88400000D02*
X137325001Y-88400000D01*
D31*
%TO.N,SW*%
X122600000Y-84000000D02*
X120100000Y-84000000D01*
X118550000Y-81500000D02*
X118800000Y-81500000D01*
X121175000Y-79125000D02*
X122083000Y-79125000D01*
X120100000Y-84000000D02*
X118550000Y-82450000D01*
X122320000Y-79750000D02*
X120550000Y-79750000D01*
X122514000Y-79556000D02*
X122514000Y-79475000D01*
X122083000Y-79125000D02*
X122514000Y-79556000D01*
X118550000Y-80550000D02*
X118550000Y-81500000D01*
X118550000Y-82450000D02*
X118550000Y-81500000D01*
X120000000Y-77675000D02*
X120000000Y-79100000D01*
X118800000Y-81500000D02*
X121175000Y-79125000D01*
X120000000Y-79100000D02*
X118550000Y-80550000D01*
X120550000Y-79750000D02*
X120550000Y-78225000D01*
X122514000Y-79556000D02*
X122320000Y-79750000D01*
X120550000Y-78225000D02*
X120000000Y-77675000D01*
D36*
%TO.N,GPIO2*%
X94050000Y-90637500D02*
X94087500Y-90600000D01*
X94050000Y-93562500D02*
X94050000Y-90637500D01*
X91900000Y-88412500D02*
X91900000Y-77100000D01*
X91900000Y-77100000D02*
X94000000Y-75000000D01*
X94087500Y-90600000D02*
X91900000Y-88412500D01*
%TO.N,GPIO1*%
X97200000Y-75660000D02*
X94000000Y-72460000D01*
X103700000Y-90575000D02*
X103775000Y-90500000D01*
X103775000Y-90500000D02*
X97200000Y-83925000D01*
X103700000Y-93600000D02*
X103700000Y-90575000D01*
X97200000Y-83925000D02*
X97200000Y-75660000D01*
D34*
%TO.N,Net-(U3-BST)*%
X120000000Y-74725000D02*
X122395000Y-74725000D01*
X122395000Y-74725000D02*
X122595000Y-74525000D01*
D36*
%TO.N,Net-(U3-COMP)*%
X130100000Y-83850000D02*
X130100000Y-83800000D01*
X130100000Y-83800000D02*
X128900000Y-82600000D01*
X125135000Y-80635000D02*
X125135000Y-79475000D01*
X128300000Y-81500000D02*
X126000000Y-81500000D01*
X126000000Y-81500000D02*
X125135000Y-80635000D01*
X128900000Y-82100000D02*
X128300000Y-81500000D01*
X128900000Y-82600000D02*
X128900000Y-82100000D01*
%TO.N,Net-(C6-Pad2)*%
X129000000Y-79922500D02*
X129000000Y-80850000D01*
X129000000Y-80850000D02*
X130100000Y-81950000D01*
%TO.N,Net-(U3-EN)*%
X121175000Y-72000000D02*
X121175000Y-73175000D01*
X121175000Y-69000000D02*
X121175000Y-72000000D01*
X121175000Y-73175000D02*
X121500000Y-73500000D01*
%TO.N,Net-(U3-FB)*%
X118500000Y-86000000D02*
X118900000Y-86400000D01*
X118900000Y-86400000D02*
X125000000Y-86400000D01*
X117500000Y-87000000D02*
X118500000Y-86000000D01*
X117500000Y-88500000D02*
X117500000Y-87000000D01*
%TO.N,Net-(U3-FREQ)*%
X125584001Y-73101000D02*
X127601000Y-73101000D01*
X128675000Y-74175000D02*
X129000000Y-74175000D01*
X127601000Y-73101000D02*
X128675000Y-74175000D01*
X125135000Y-73550001D02*
X125584001Y-73101000D01*
X125135000Y-74525000D02*
X125135000Y-73550001D01*
%TO.N,GPIO2HV*%
X99450000Y-95437500D02*
X99500000Y-95487500D01*
X137900000Y-98600000D02*
X138000000Y-98500000D01*
X95000000Y-95437500D02*
X99450000Y-95437500D01*
X138000000Y-98500000D02*
X140300000Y-98500000D01*
X140300000Y-98500000D02*
X142300000Y-96500000D01*
X102612500Y-98600000D02*
X137900000Y-98600000D01*
X142300000Y-96500000D02*
X142300000Y-92200000D01*
X99500000Y-95487500D02*
X102612500Y-98600000D01*
X138100000Y-90400000D02*
X138200000Y-90400000D01*
%TO.N,GPIO1HV*%
X122890968Y-96290968D02*
X123300000Y-96700000D01*
X128014840Y-96399000D02*
X129385160Y-96399000D01*
X135400000Y-91600000D02*
X137600000Y-89400000D01*
X127713840Y-96700000D02*
X128014840Y-96399000D01*
X110703468Y-96290968D02*
X122890968Y-96290968D01*
X123300000Y-96700000D02*
X127713840Y-96700000D01*
X109887500Y-95475000D02*
X109900000Y-95487500D01*
X133200000Y-96700000D02*
X135400000Y-94500000D01*
X135400000Y-94500000D02*
X135400000Y-91600000D01*
X137600000Y-89400000D02*
X138100000Y-89400000D01*
X109900000Y-95487500D02*
X110703468Y-96290968D01*
X104650000Y-95475000D02*
X109887500Y-95475000D01*
X129385160Y-96399000D02*
X129686160Y-96700000D01*
X129686160Y-96700000D02*
X133200000Y-96700000D01*
%TD*%
%TA.AperFunction,Conductor*%
%TO.N,GND*%
G36*
X100101140Y-67520185D02*
G01*
X100146895Y-67572989D01*
X100156839Y-67642147D01*
X100127814Y-67705703D01*
X100090395Y-67734985D01*
X100073782Y-67743449D01*
X99901813Y-67868390D01*
X99901809Y-67868394D01*
X99751496Y-68018708D01*
X99751490Y-68018713D01*
X99626551Y-68190679D01*
X99530044Y-68380085D01*
X99530043Y-68380087D01*
X99530043Y-68380088D01*
X99511600Y-68436849D01*
X99464353Y-68582260D01*
X99445041Y-68704195D01*
X99431100Y-68792213D01*
X99431100Y-69004787D01*
X99464354Y-69214743D01*
X99516420Y-69374986D01*
X99530044Y-69416914D01*
X99626551Y-69606320D01*
X99751490Y-69778286D01*
X99901813Y-69928609D01*
X100073782Y-70053550D01*
X100082546Y-70058016D01*
X100133342Y-70105991D01*
X100150136Y-70173812D01*
X100127598Y-70239947D01*
X100082546Y-70278984D01*
X100073782Y-70283449D01*
X99901813Y-70408390D01*
X99751490Y-70558713D01*
X99626551Y-70730679D01*
X99530044Y-70920085D01*
X99464353Y-71122260D01*
X99431100Y-71332213D01*
X99431100Y-71544786D01*
X99445191Y-71633757D01*
X99464354Y-71754743D01*
X99512189Y-71901964D01*
X99530044Y-71956914D01*
X99626551Y-72146320D01*
X99751490Y-72318286D01*
X99901813Y-72468609D01*
X100073782Y-72593550D01*
X100082546Y-72598016D01*
X100133342Y-72645991D01*
X100150136Y-72713812D01*
X100127598Y-72779947D01*
X100082546Y-72818984D01*
X100073782Y-72823449D01*
X99901813Y-72948390D01*
X99751490Y-73098713D01*
X99626551Y-73270679D01*
X99530044Y-73460085D01*
X99530043Y-73460087D01*
X99530043Y-73460088D01*
X99512809Y-73513129D01*
X99464353Y-73662260D01*
X99431100Y-73872213D01*
X99431100Y-74084786D01*
X99459905Y-74266657D01*
X99464354Y-74294743D01*
X99526987Y-74487508D01*
X99530044Y-74496914D01*
X99626551Y-74686320D01*
X99751490Y-74858286D01*
X99901813Y-75008609D01*
X100073782Y-75133550D01*
X100082546Y-75138016D01*
X100133342Y-75185991D01*
X100150136Y-75253812D01*
X100127598Y-75319947D01*
X100082546Y-75358984D01*
X100073782Y-75363449D01*
X99901813Y-75488390D01*
X99751490Y-75638713D01*
X99626551Y-75810679D01*
X99530044Y-76000085D01*
X99530043Y-76000087D01*
X99530043Y-76000088D01*
X99526728Y-76010292D01*
X99464353Y-76202260D01*
X99446897Y-76312473D01*
X99431100Y-76412213D01*
X99431100Y-76624787D01*
X99437499Y-76665186D01*
X99455795Y-76780708D01*
X99464354Y-76834743D01*
X99528014Y-77030668D01*
X99530044Y-77036914D01*
X99626551Y-77226320D01*
X99751490Y-77398286D01*
X99901813Y-77548609D01*
X100073779Y-77673548D01*
X100073781Y-77673549D01*
X100073784Y-77673551D01*
X100263188Y-77770057D01*
X100465357Y-77835746D01*
X100675313Y-77869000D01*
X100675314Y-77869000D01*
X100887886Y-77869000D01*
X100887887Y-77869000D01*
X101097843Y-77835746D01*
X101300012Y-77770057D01*
X101489416Y-77673551D01*
X101567595Y-77616751D01*
X101661386Y-77548609D01*
X101661388Y-77548606D01*
X101661392Y-77548604D01*
X101811704Y-77398292D01*
X101925616Y-77241504D01*
X101980944Y-77198839D01*
X102050557Y-77192860D01*
X102112352Y-77225465D01*
X102126251Y-77241505D01*
X102198890Y-77341486D01*
X102349213Y-77491809D01*
X102521179Y-77616748D01*
X102521181Y-77616749D01*
X102521184Y-77616751D01*
X102710588Y-77713257D01*
X102912757Y-77778946D01*
X103122713Y-77812200D01*
X103122714Y-77812200D01*
X103335286Y-77812200D01*
X103335287Y-77812200D01*
X103545243Y-77778946D01*
X103747412Y-77713257D01*
X103936816Y-77616751D01*
X104001721Y-77569595D01*
X104108786Y-77491809D01*
X104108788Y-77491806D01*
X104108792Y-77491804D01*
X104259104Y-77341492D01*
X104259106Y-77341488D01*
X104259109Y-77341486D01*
X104384048Y-77169520D01*
X104384047Y-77169520D01*
X104384051Y-77169516D01*
X104480557Y-76980112D01*
X104546246Y-76777943D01*
X104579500Y-76567987D01*
X104579500Y-76355413D01*
X104546246Y-76145457D01*
X104480557Y-75943288D01*
X104384051Y-75753884D01*
X104384049Y-75753881D01*
X104384048Y-75753879D01*
X104259109Y-75581913D01*
X104108790Y-75431594D01*
X104108785Y-75431590D01*
X103998653Y-75351575D01*
X103955987Y-75296246D01*
X103950008Y-75226632D01*
X103982613Y-75164837D01*
X104015242Y-75140772D01*
X104029416Y-75133551D01*
X104113047Y-75072790D01*
X104201386Y-75008609D01*
X104201388Y-75008606D01*
X104201392Y-75008604D01*
X104351704Y-74858292D01*
X104351706Y-74858288D01*
X104351709Y-74858286D01*
X104476648Y-74686320D01*
X104476647Y-74686320D01*
X104476651Y-74686316D01*
X104573157Y-74496912D01*
X104638846Y-74294743D01*
X104672100Y-74084787D01*
X104672100Y-73872213D01*
X104638846Y-73662257D01*
X104573157Y-73460088D01*
X104476651Y-73270684D01*
X104476649Y-73270681D01*
X104476648Y-73270679D01*
X104351709Y-73098713D01*
X104201386Y-72948390D01*
X104029420Y-72823451D01*
X104028715Y-72823091D01*
X104020654Y-72818985D01*
X103969859Y-72771012D01*
X103953063Y-72703192D01*
X103975599Y-72637056D01*
X104020654Y-72598015D01*
X104029416Y-72593551D01*
X104051389Y-72577586D01*
X104201386Y-72468609D01*
X104201388Y-72468606D01*
X104201392Y-72468604D01*
X104351704Y-72318292D01*
X104351706Y-72318288D01*
X104351709Y-72318286D01*
X104476648Y-72146320D01*
X104476647Y-72146320D01*
X104476651Y-72146316D01*
X104573157Y-71956912D01*
X104638846Y-71754743D01*
X104672100Y-71544787D01*
X104672100Y-71332213D01*
X104638846Y-71122257D01*
X104573157Y-70920088D01*
X104476651Y-70730684D01*
X104476649Y-70730681D01*
X104476648Y-70730679D01*
X104351709Y-70558713D01*
X104201386Y-70408390D01*
X104029420Y-70283451D01*
X104028715Y-70283091D01*
X104020654Y-70278985D01*
X103969859Y-70231012D01*
X103953063Y-70163192D01*
X103975599Y-70097056D01*
X104020654Y-70058015D01*
X104029416Y-70053551D01*
X104091479Y-70008460D01*
X104201386Y-69928609D01*
X104201388Y-69928606D01*
X104201392Y-69928604D01*
X104351704Y-69778292D01*
X104351706Y-69778288D01*
X104351709Y-69778286D01*
X104476648Y-69606320D01*
X104476647Y-69606320D01*
X104476651Y-69606316D01*
X104573157Y-69416912D01*
X104638846Y-69214743D01*
X104672100Y-69004787D01*
X104672100Y-68792213D01*
X104638846Y-68582257D01*
X104573157Y-68380088D01*
X104476651Y-68190684D01*
X104476649Y-68190681D01*
X104476648Y-68190679D01*
X104351709Y-68018713D01*
X104201386Y-67868390D01*
X104029417Y-67743449D01*
X104012805Y-67734985D01*
X103962008Y-67687011D01*
X103945213Y-67619190D01*
X103967750Y-67553055D01*
X104022465Y-67509603D01*
X104069099Y-67500500D01*
X142434108Y-67500500D01*
X142493040Y-67500500D01*
X142506922Y-67501280D01*
X142523878Y-67503190D01*
X142597268Y-67511458D01*
X142624333Y-67517636D01*
X142703539Y-67545351D01*
X142728549Y-67557395D01*
X142799606Y-67602043D01*
X142821313Y-67619355D01*
X142880644Y-67678686D01*
X142897957Y-67700395D01*
X142942602Y-67771447D01*
X142954649Y-67796464D01*
X142982362Y-67875662D01*
X142988541Y-67902734D01*
X142992177Y-67935001D01*
X142998444Y-67990631D01*
X142998720Y-67993076D01*
X142999500Y-68006959D01*
X142999500Y-91472649D01*
X142979815Y-91539688D01*
X142927011Y-91585443D01*
X142857853Y-91595387D01*
X142806609Y-91575751D01*
X142679185Y-91490609D01*
X142679172Y-91490602D01*
X142533501Y-91430264D01*
X142533489Y-91430261D01*
X142378845Y-91399500D01*
X142378842Y-91399500D01*
X142221158Y-91399500D01*
X142221155Y-91399500D01*
X142066510Y-91430261D01*
X142066498Y-91430264D01*
X141920827Y-91490602D01*
X141920814Y-91490609D01*
X141789711Y-91578210D01*
X141789707Y-91578213D01*
X141678213Y-91689707D01*
X141678210Y-91689711D01*
X141590609Y-91820814D01*
X141590602Y-91820827D01*
X141530264Y-91966498D01*
X141530261Y-91966510D01*
X141499500Y-92121153D01*
X141499500Y-92278846D01*
X141530261Y-92433489D01*
X141530263Y-92433498D01*
X141531633Y-92436804D01*
X141531834Y-92438675D01*
X141532031Y-92439324D01*
X141531907Y-92439361D01*
X141539103Y-92506274D01*
X141507829Y-92568753D01*
X141447741Y-92604407D01*
X141404472Y-92607617D01*
X141325012Y-92599500D01*
X139924998Y-92599500D01*
X139924981Y-92599501D01*
X139822203Y-92610000D01*
X139822200Y-92610001D01*
X139655668Y-92665185D01*
X139655659Y-92665190D01*
X139564596Y-92721357D01*
X139497203Y-92739797D01*
X139430540Y-92718874D01*
X139385771Y-92665231D01*
X139375500Y-92615818D01*
X139375500Y-92184313D01*
X139375499Y-92184298D01*
X139374696Y-92174098D01*
X139372598Y-92147431D01*
X139365423Y-92122736D01*
X139326745Y-91989606D01*
X139326745Y-91989605D01*
X139326744Y-91989604D01*
X139326744Y-91989602D01*
X139310791Y-91962627D01*
X139293611Y-91894905D01*
X139310794Y-91836386D01*
X139326281Y-91810199D01*
X139372100Y-91652486D01*
X139372295Y-91650001D01*
X139372295Y-91650000D01*
X139009050Y-91650000D01*
X138974455Y-91645076D01*
X138827573Y-91602402D01*
X138827567Y-91602401D01*
X138790701Y-91599500D01*
X138790694Y-91599500D01*
X138414551Y-91599500D01*
X138367099Y-91590061D01*
X138348082Y-91582184D01*
X138348074Y-91582182D01*
X138183771Y-91549500D01*
X138183767Y-91549500D01*
X138016233Y-91549500D01*
X138016228Y-91549500D01*
X137851925Y-91582182D01*
X137851917Y-91582184D01*
X137844050Y-91585443D01*
X137832900Y-91590061D01*
X137785449Y-91599500D01*
X137409298Y-91599500D01*
X137372432Y-91602401D01*
X137372426Y-91602402D01*
X137225545Y-91645076D01*
X137190950Y-91650000D01*
X136827705Y-91650000D01*
X136827704Y-91650001D01*
X136827899Y-91652488D01*
X136827900Y-91652494D01*
X136873716Y-91810193D01*
X136873717Y-91810196D01*
X136889207Y-91836388D01*
X136906389Y-91904112D01*
X136889207Y-91962627D01*
X136873258Y-91989595D01*
X136873254Y-91989605D01*
X136827402Y-92147426D01*
X136827401Y-92147432D01*
X136824500Y-92184298D01*
X136824500Y-92615701D01*
X136827401Y-92652567D01*
X136827402Y-92652573D01*
X136873254Y-92810393D01*
X136873255Y-92810396D01*
X136956917Y-92951862D01*
X136956923Y-92951870D01*
X137073129Y-93068076D01*
X137073133Y-93068079D01*
X137073135Y-93068081D01*
X137214602Y-93151744D01*
X137214609Y-93151746D01*
X137372426Y-93197597D01*
X137372429Y-93197597D01*
X137372431Y-93197598D01*
X137409306Y-93200500D01*
X137785449Y-93200500D01*
X137832900Y-93209938D01*
X137851918Y-93217816D01*
X137943819Y-93236096D01*
X138016228Y-93250499D01*
X138016232Y-93250500D01*
X138016233Y-93250500D01*
X138183768Y-93250500D01*
X138183769Y-93250499D01*
X138348082Y-93217816D01*
X138367099Y-93209938D01*
X138414551Y-93200500D01*
X138790686Y-93200500D01*
X138790694Y-93200500D01*
X138827569Y-93197598D01*
X138827571Y-93197597D01*
X138827573Y-93197597D01*
X138985392Y-93151746D01*
X138985392Y-93151745D01*
X138985398Y-93151744D01*
X139044551Y-93116760D01*
X139112271Y-93099579D01*
X139178534Y-93121738D01*
X139222297Y-93176204D01*
X139231027Y-93236096D01*
X139224500Y-93299981D01*
X139224500Y-94100001D01*
X139224501Y-94100019D01*
X139235000Y-94202796D01*
X139235001Y-94202799D01*
X139290185Y-94369331D01*
X139290187Y-94369336D01*
X139317323Y-94413330D01*
X139382288Y-94518656D01*
X139506344Y-94642712D01*
X139655666Y-94734814D01*
X139822203Y-94789999D01*
X139924991Y-94800500D01*
X141325008Y-94800499D01*
X141427797Y-94789999D01*
X141536498Y-94753978D01*
X141606324Y-94751577D01*
X141666366Y-94787308D01*
X141697559Y-94849828D01*
X141699500Y-94871685D01*
X141699500Y-96199903D01*
X141679815Y-96266942D01*
X141663181Y-96287584D01*
X140087584Y-97863181D01*
X140026261Y-97896666D01*
X139999903Y-97899500D01*
X137920940Y-97899500D01*
X137880019Y-97910464D01*
X137880019Y-97910465D01*
X137842751Y-97920451D01*
X137768214Y-97940423D01*
X137768213Y-97940424D01*
X137694666Y-97982887D01*
X137632666Y-97999500D01*
X129930441Y-97999500D01*
X129863402Y-97979815D01*
X129817647Y-97927011D01*
X129807703Y-97857853D01*
X129824901Y-97810405D01*
X129834814Y-97794334D01*
X129889999Y-97627797D01*
X129900500Y-97525009D01*
X129900500Y-97424500D01*
X129920185Y-97357461D01*
X129972989Y-97311706D01*
X130024500Y-97300500D01*
X133113331Y-97300500D01*
X133113347Y-97300501D01*
X133120943Y-97300501D01*
X133279054Y-97300501D01*
X133279057Y-97300501D01*
X133431785Y-97259577D01*
X133481904Y-97230639D01*
X133568716Y-97180520D01*
X133680520Y-97068716D01*
X133680520Y-97068714D01*
X133690728Y-97058507D01*
X133690730Y-97058504D01*
X135758506Y-94990728D01*
X135758511Y-94990724D01*
X135768714Y-94980520D01*
X135768716Y-94980520D01*
X135880520Y-94868716D01*
X135943230Y-94760098D01*
X135959577Y-94731785D01*
X136000501Y-94579057D01*
X136000501Y-94420943D01*
X136000501Y-94413348D01*
X136000500Y-94413330D01*
X136000500Y-91900096D01*
X136020185Y-91833057D01*
X136036815Y-91812419D01*
X136674803Y-91174431D01*
X136736121Y-91140949D01*
X136805812Y-91145933D01*
X136811876Y-91150000D01*
X137190950Y-91150000D01*
X137225545Y-91154924D01*
X137372426Y-91197597D01*
X137372429Y-91197597D01*
X137372431Y-91197598D01*
X137409306Y-91200500D01*
X137409314Y-91200500D01*
X138790686Y-91200500D01*
X138790694Y-91200500D01*
X138827569Y-91197598D01*
X138827571Y-91197597D01*
X138827573Y-91197597D01*
X138974455Y-91154924D01*
X139009050Y-91150000D01*
X139372295Y-91150000D01*
X139372295Y-91149998D01*
X139372100Y-91147511D01*
X139372099Y-91147505D01*
X139326283Y-90989806D01*
X139326282Y-90989803D01*
X139310792Y-90963610D01*
X139293611Y-90895886D01*
X139310793Y-90837369D01*
X139326744Y-90810398D01*
X139372598Y-90652569D01*
X139375500Y-90615694D01*
X139375500Y-90184306D01*
X139372598Y-90147431D01*
X139371226Y-90142710D01*
X139329764Y-89999998D01*
X139326744Y-89989602D01*
X139321998Y-89981577D01*
X139311084Y-89963122D01*
X139293900Y-89895399D01*
X139311084Y-89836878D01*
X139326742Y-89810401D01*
X139326744Y-89810398D01*
X139372598Y-89652569D01*
X139375500Y-89615694D01*
X139375500Y-89184306D01*
X139372598Y-89147431D01*
X139326744Y-88989602D01*
X139311084Y-88963122D01*
X139293900Y-88895399D01*
X139311084Y-88836878D01*
X139326742Y-88810401D01*
X139326744Y-88810398D01*
X139372598Y-88652569D01*
X139375500Y-88615694D01*
X139375500Y-88184306D01*
X139372598Y-88147431D01*
X139370079Y-88138761D01*
X139329764Y-87999998D01*
X139326744Y-87989602D01*
X139326742Y-87989598D01*
X139311084Y-87963122D01*
X139293900Y-87895399D01*
X139311084Y-87836878D01*
X139326742Y-87810401D01*
X139326744Y-87810398D01*
X139372598Y-87652569D01*
X139375500Y-87615694D01*
X139375500Y-87184306D01*
X139375500Y-87184181D01*
X139395185Y-87117142D01*
X139447989Y-87071387D01*
X139517147Y-87061443D01*
X139564594Y-87078641D01*
X139655666Y-87134814D01*
X139822203Y-87189999D01*
X139924991Y-87200500D01*
X141325008Y-87200499D01*
X141427797Y-87189999D01*
X141594334Y-87134814D01*
X141743656Y-87042712D01*
X141867712Y-86918656D01*
X141959814Y-86769334D01*
X142014999Y-86602797D01*
X142025500Y-86500009D01*
X142025499Y-85699992D01*
X142014999Y-85597203D01*
X141959814Y-85430666D01*
X141867712Y-85281344D01*
X141743656Y-85157288D01*
X141621033Y-85081654D01*
X141594336Y-85065187D01*
X141594331Y-85065185D01*
X141552444Y-85051305D01*
X141427797Y-85010001D01*
X141427795Y-85010000D01*
X141325010Y-84999500D01*
X139924998Y-84999500D01*
X139924981Y-84999501D01*
X139822203Y-85010000D01*
X139822200Y-85010001D01*
X139655668Y-85065185D01*
X139655663Y-85065187D01*
X139506342Y-85157289D01*
X139382289Y-85281342D01*
X139290187Y-85430663D01*
X139290186Y-85430666D01*
X139235001Y-85597203D01*
X139235001Y-85597204D01*
X139235000Y-85597204D01*
X139224500Y-85699983D01*
X139224500Y-86500001D01*
X139224501Y-86500017D01*
X139231028Y-86563903D01*
X139218258Y-86632596D01*
X139170378Y-86683481D01*
X139102588Y-86700401D01*
X139044550Y-86683238D01*
X139017485Y-86667232D01*
X138985398Y-86648256D01*
X138985396Y-86648255D01*
X138985394Y-86648254D01*
X138827573Y-86602402D01*
X138827567Y-86602401D01*
X138790701Y-86599500D01*
X138790694Y-86599500D01*
X138200098Y-86599500D01*
X138133059Y-86579815D01*
X138112417Y-86563181D01*
X135867819Y-84318583D01*
X135834334Y-84257260D01*
X135831500Y-84230902D01*
X135831500Y-78315060D01*
X135831501Y-78315047D01*
X135831501Y-78146944D01*
X135827475Y-78131919D01*
X135790577Y-77994216D01*
X135738686Y-77904337D01*
X135711524Y-77857290D01*
X135711518Y-77857282D01*
X135383103Y-77528867D01*
X135349618Y-77467544D01*
X135352852Y-77402870D01*
X135397246Y-77266243D01*
X135430500Y-77056287D01*
X135430500Y-76843713D01*
X135397246Y-76633757D01*
X135331557Y-76431588D01*
X135235051Y-76242184D01*
X135235049Y-76242181D01*
X135235048Y-76242179D01*
X135110109Y-76070213D01*
X134959790Y-75919894D01*
X134959785Y-75919890D01*
X134794781Y-75800008D01*
X134752115Y-75744678D01*
X134746136Y-75675065D01*
X134778741Y-75613270D01*
X134794781Y-75599371D01*
X134959466Y-75479721D01*
X135109723Y-75329464D01*
X135109727Y-75329459D01*
X135234620Y-75157557D01*
X135331095Y-74968217D01*
X135396757Y-74766129D01*
X135396757Y-74766126D01*
X135407231Y-74700000D01*
X134359146Y-74700000D01*
X134397630Y-74633343D01*
X134430000Y-74512535D01*
X134430000Y-74387465D01*
X134397630Y-74266657D01*
X134359146Y-74200000D01*
X135407231Y-74200000D01*
X135396757Y-74133873D01*
X135396757Y-74133870D01*
X135331095Y-73931782D01*
X135234620Y-73742442D01*
X135109727Y-73570540D01*
X135109723Y-73570535D01*
X134959464Y-73420276D01*
X134959459Y-73420272D01*
X134794781Y-73300627D01*
X134752115Y-73245297D01*
X134746136Y-73175684D01*
X134778741Y-73113889D01*
X134794776Y-73099994D01*
X134959792Y-72980104D01*
X135110104Y-72829792D01*
X135110106Y-72829788D01*
X135110109Y-72829786D01*
X135235048Y-72657820D01*
X135235047Y-72657820D01*
X135235051Y-72657816D01*
X135331557Y-72468412D01*
X135397246Y-72266243D01*
X135430500Y-72056287D01*
X135430500Y-71843713D01*
X135397246Y-71633757D01*
X135331557Y-71431588D01*
X135235051Y-71242184D01*
X135235049Y-71242181D01*
X135235048Y-71242179D01*
X135110109Y-71070213D01*
X134959786Y-70919890D01*
X134787820Y-70794951D01*
X134598414Y-70698444D01*
X134598413Y-70698443D01*
X134598412Y-70698443D01*
X134396243Y-70632754D01*
X134396241Y-70632753D01*
X134396240Y-70632753D01*
X134234957Y-70607208D01*
X134186287Y-70599500D01*
X133723713Y-70599500D01*
X133684202Y-70605757D01*
X133513759Y-70632753D01*
X133327012Y-70693431D01*
X133288694Y-70699500D01*
X122951578Y-70699500D01*
X122757172Y-70730291D01*
X122757169Y-70730291D01*
X122569974Y-70791115D01*
X122569973Y-70791115D01*
X122444945Y-70854820D01*
X122427664Y-70862038D01*
X122418167Y-70865185D01*
X122418166Y-70865186D01*
X122268842Y-70957289D01*
X122175181Y-71050951D01*
X122172402Y-71052468D01*
X122170749Y-71055170D01*
X122141935Y-71069104D01*
X122113858Y-71084436D01*
X122110700Y-71084210D01*
X122107849Y-71085589D01*
X122076080Y-71081734D01*
X122044166Y-71079452D01*
X122040688Y-71077439D01*
X122038488Y-71077173D01*
X122028386Y-71070323D01*
X122008384Y-71058751D01*
X122003920Y-71055052D01*
X121906156Y-70957288D01*
X121827048Y-70908494D01*
X121820384Y-70902972D01*
X121805492Y-70880887D01*
X121787678Y-70861081D01*
X121785411Y-70851105D01*
X121781322Y-70845041D01*
X121781030Y-70831828D01*
X121775500Y-70807491D01*
X121775500Y-70192507D01*
X121795185Y-70125468D01*
X121834403Y-70086968D01*
X121906156Y-70042712D01*
X122000175Y-69948692D01*
X122061494Y-69915210D01*
X122131186Y-69920194D01*
X122175534Y-69948695D01*
X122269154Y-70042315D01*
X122418375Y-70134356D01*
X122418380Y-70134358D01*
X122584802Y-70189505D01*
X122584809Y-70189506D01*
X122687519Y-70199999D01*
X123250000Y-70199999D01*
X123312472Y-70199999D01*
X123312486Y-70199998D01*
X123415197Y-70189505D01*
X123581619Y-70134358D01*
X123581624Y-70134356D01*
X123730845Y-70042315D01*
X123854815Y-69918345D01*
X123946856Y-69769124D01*
X123946859Y-69769117D01*
X123966619Y-69709485D01*
X124006391Y-69652040D01*
X124070906Y-69625216D01*
X124139682Y-69637530D01*
X124189864Y-69683391D01*
X124257684Y-69793345D01*
X124381654Y-69917315D01*
X124530875Y-70009356D01*
X124530880Y-70009358D01*
X124697302Y-70064505D01*
X124697309Y-70064506D01*
X124800019Y-70074999D01*
X125249999Y-70074999D01*
X125750000Y-70074999D01*
X126199972Y-70074999D01*
X126199986Y-70074998D01*
X126302697Y-70064505D01*
X126469119Y-70009358D01*
X126469124Y-70009356D01*
X126618345Y-69917315D01*
X126742315Y-69793345D01*
X126834356Y-69644124D01*
X126834359Y-69644117D01*
X126882293Y-69499461D01*
X126922065Y-69442016D01*
X126986581Y-69415192D01*
X127055357Y-69427507D01*
X127106557Y-69475049D01*
X127117705Y-69499459D01*
X127165642Y-69644121D01*
X127165643Y-69644124D01*
X127257684Y-69793345D01*
X127381654Y-69917315D01*
X127530875Y-70009356D01*
X127530880Y-70009358D01*
X127697302Y-70064505D01*
X127697309Y-70064506D01*
X127800019Y-70074999D01*
X128249999Y-70074999D01*
X128750000Y-70074999D01*
X129199972Y-70074999D01*
X129199986Y-70074998D01*
X129302697Y-70064505D01*
X129469119Y-70009358D01*
X129469124Y-70009356D01*
X129618345Y-69917315D01*
X129742315Y-69793345D01*
X129834356Y-69644124D01*
X129834358Y-69644119D01*
X129889505Y-69477697D01*
X129889506Y-69477690D01*
X129899999Y-69374986D01*
X129900000Y-69374973D01*
X129900000Y-69250000D01*
X128750000Y-69250000D01*
X128750000Y-70074999D01*
X128249999Y-70074999D01*
X128250000Y-70074998D01*
X128250000Y-69250000D01*
X127100000Y-69250000D01*
X127087680Y-69262320D01*
X127026357Y-69295804D01*
X126956665Y-69290819D01*
X126912319Y-69262319D01*
X126900000Y-69250000D01*
X125750000Y-69250000D01*
X125750000Y-70074999D01*
X125249999Y-70074999D01*
X125250000Y-70074998D01*
X125250000Y-69250000D01*
X123250000Y-69250000D01*
X123250000Y-70199999D01*
X122687519Y-70199999D01*
X122749999Y-70199998D01*
X122750000Y-70199998D01*
X122750000Y-68750000D01*
X123250000Y-68750000D01*
X125250000Y-68750000D01*
X125750000Y-68750000D01*
X126899998Y-68750000D01*
X126912317Y-68737681D01*
X126973640Y-68704195D01*
X127043331Y-68709179D01*
X127087680Y-68737680D01*
X127100000Y-68750000D01*
X128250000Y-68750000D01*
X128750000Y-68750000D01*
X129899999Y-68750000D01*
X129899999Y-68625028D01*
X129899998Y-68625013D01*
X129889505Y-68522302D01*
X129834358Y-68355880D01*
X129834356Y-68355875D01*
X129742315Y-68206654D01*
X129618345Y-68082684D01*
X129469124Y-67990643D01*
X129469119Y-67990641D01*
X129302697Y-67935494D01*
X129302690Y-67935493D01*
X129199986Y-67925000D01*
X128750000Y-67925000D01*
X128750000Y-68750000D01*
X128250000Y-68750000D01*
X128250000Y-67925000D01*
X127800028Y-67925000D01*
X127800012Y-67925001D01*
X127697302Y-67935494D01*
X127530880Y-67990641D01*
X127530875Y-67990643D01*
X127381654Y-68082684D01*
X127257684Y-68206654D01*
X127165643Y-68355875D01*
X127165641Y-68355880D01*
X127117706Y-68500539D01*
X127077933Y-68557984D01*
X127013417Y-68584807D01*
X126944641Y-68572492D01*
X126893442Y-68524949D01*
X126882294Y-68500539D01*
X126834358Y-68355880D01*
X126834356Y-68355875D01*
X126742315Y-68206654D01*
X126618345Y-68082684D01*
X126469124Y-67990643D01*
X126469119Y-67990641D01*
X126302697Y-67935494D01*
X126302690Y-67935493D01*
X126199986Y-67925000D01*
X125750000Y-67925000D01*
X125750000Y-68750000D01*
X125250000Y-68750000D01*
X125250000Y-67925000D01*
X124800028Y-67925000D01*
X124800012Y-67925001D01*
X124697302Y-67935494D01*
X124530880Y-67990641D01*
X124530875Y-67990643D01*
X124381654Y-68082684D01*
X124257682Y-68206656D01*
X124189863Y-68316608D01*
X124137915Y-68363332D01*
X124068952Y-68374553D01*
X124004870Y-68346710D01*
X123966619Y-68290514D01*
X123946858Y-68230880D01*
X123946856Y-68230875D01*
X123854815Y-68081654D01*
X123730845Y-67957684D01*
X123581624Y-67865643D01*
X123581619Y-67865641D01*
X123415197Y-67810494D01*
X123415190Y-67810493D01*
X123312486Y-67800000D01*
X123250000Y-67800000D01*
X123250000Y-68750000D01*
X122750000Y-68750000D01*
X122750000Y-67800000D01*
X122749999Y-67799999D01*
X122687528Y-67800000D01*
X122687511Y-67800001D01*
X122584802Y-67810494D01*
X122418380Y-67865641D01*
X122418375Y-67865643D01*
X122269157Y-67957682D01*
X122175534Y-68051305D01*
X122114210Y-68084789D01*
X122044519Y-68079805D01*
X122000172Y-68051304D01*
X121906157Y-67957289D01*
X121906156Y-67957288D01*
X121795200Y-67888850D01*
X121756836Y-67865187D01*
X121756831Y-67865185D01*
X121755362Y-67864698D01*
X121590297Y-67810001D01*
X121590295Y-67810000D01*
X121487510Y-67799500D01*
X120862498Y-67799500D01*
X120862480Y-67799501D01*
X120759703Y-67810000D01*
X120759700Y-67810001D01*
X120593168Y-67865185D01*
X120593163Y-67865187D01*
X120443842Y-67957289D01*
X120319789Y-68081342D01*
X120227687Y-68230663D01*
X120227685Y-68230668D01*
X120221199Y-68250242D01*
X120172501Y-68397203D01*
X120172501Y-68397204D01*
X120172500Y-68397204D01*
X120162000Y-68499983D01*
X120162000Y-68947717D01*
X120142315Y-69014756D01*
X120089511Y-69060511D01*
X120020353Y-69070455D01*
X119956797Y-69041430D01*
X119950319Y-69035398D01*
X119284209Y-68369289D01*
X119284206Y-68369285D01*
X119284206Y-68369286D01*
X119277139Y-68362219D01*
X119277139Y-68362218D01*
X119137782Y-68222861D01*
X119137781Y-68222860D01*
X119137780Y-68222859D01*
X118973920Y-68113371D01*
X118973911Y-68113366D01*
X118852070Y-68062898D01*
X118852068Y-68062897D01*
X118845165Y-68060038D01*
X118791836Y-68037949D01*
X118695105Y-68018708D01*
X118690495Y-68017791D01*
X118690488Y-68017789D01*
X118598543Y-67999500D01*
X118598541Y-67999500D01*
X118016798Y-67999500D01*
X117976795Y-67990631D01*
X117976190Y-67992458D01*
X117969334Y-67990186D01*
X117802797Y-67935001D01*
X117802795Y-67935000D01*
X117700010Y-67924500D01*
X116299998Y-67924500D01*
X116299981Y-67924501D01*
X116197203Y-67935000D01*
X116197200Y-67935001D01*
X116023810Y-67992458D01*
X116023204Y-67990631D01*
X115983202Y-67999500D01*
X115016798Y-67999500D01*
X114976795Y-67990631D01*
X114976190Y-67992458D01*
X114969334Y-67990186D01*
X114802797Y-67935001D01*
X114802795Y-67935000D01*
X114700010Y-67924500D01*
X113299998Y-67924500D01*
X113299981Y-67924501D01*
X113197203Y-67935000D01*
X113197200Y-67935001D01*
X113023810Y-67992458D01*
X113023204Y-67990631D01*
X112983202Y-67999500D01*
X111901456Y-67999500D01*
X111708171Y-68037947D01*
X111708163Y-68037949D01*
X111640704Y-68065892D01*
X111640703Y-68065892D01*
X111526092Y-68113364D01*
X111526079Y-68113371D01*
X111362218Y-68222860D01*
X111201024Y-68384054D01*
X111139701Y-68417538D01*
X111102365Y-68419884D01*
X111098037Y-68419500D01*
X111098032Y-68419500D01*
X109231971Y-68419500D01*
X109231965Y-68419500D01*
X109231964Y-68419501D01*
X109227645Y-68419885D01*
X109112584Y-68430113D01*
X108916954Y-68486089D01*
X108847628Y-68522302D01*
X108736593Y-68580302D01*
X108736591Y-68580303D01*
X108736590Y-68580304D01*
X108578890Y-68708890D01*
X108450304Y-68866590D01*
X108356089Y-69046954D01*
X108300114Y-69242583D01*
X108300113Y-69242586D01*
X108289500Y-69361966D01*
X108289500Y-70478028D01*
X108289501Y-70478034D01*
X108300113Y-70597415D01*
X108356089Y-70793045D01*
X108356090Y-70793048D01*
X108356091Y-70793049D01*
X108450302Y-70973407D01*
X108450304Y-70973409D01*
X108563338Y-71112035D01*
X108590447Y-71176432D01*
X108578438Y-71245261D01*
X108563338Y-71268757D01*
X108450721Y-71406870D01*
X108356557Y-71587138D01*
X108300609Y-71782671D01*
X108300608Y-71782674D01*
X108290000Y-71901999D01*
X108290000Y-73018000D01*
X108300608Y-73137325D01*
X108300609Y-73137328D01*
X108356557Y-73332861D01*
X108450721Y-73513129D01*
X108563338Y-73651242D01*
X108590447Y-73715638D01*
X108578438Y-73784468D01*
X108563338Y-73807963D01*
X108450305Y-73946587D01*
X108356089Y-74126954D01*
X108300114Y-74322583D01*
X108300113Y-74322586D01*
X108289500Y-74441966D01*
X108289500Y-74625500D01*
X108269815Y-74692539D01*
X108217011Y-74738294D01*
X108165500Y-74749500D01*
X107804604Y-74749500D01*
X107757155Y-74740062D01*
X107733497Y-74730263D01*
X107733493Y-74730262D01*
X107733488Y-74730260D01*
X107578845Y-74699500D01*
X107578842Y-74699500D01*
X107421158Y-74699500D01*
X107421155Y-74699500D01*
X107266510Y-74730261D01*
X107266498Y-74730264D01*
X107120827Y-74790602D01*
X107120814Y-74790609D01*
X106989711Y-74878210D01*
X106989707Y-74878213D01*
X106878213Y-74989707D01*
X106878210Y-74989711D01*
X106790609Y-75120814D01*
X106790602Y-75120827D01*
X106730264Y-75266498D01*
X106730261Y-75266510D01*
X106699500Y-75421153D01*
X106699500Y-75578846D01*
X106730261Y-75733489D01*
X106730264Y-75733501D01*
X106790602Y-75879172D01*
X106790609Y-75879185D01*
X106878210Y-76010288D01*
X106878213Y-76010292D01*
X106989707Y-76121786D01*
X106989711Y-76121789D01*
X107120814Y-76209390D01*
X107120827Y-76209397D01*
X107218853Y-76250000D01*
X107266503Y-76269737D01*
X107421153Y-76300499D01*
X107421156Y-76300500D01*
X107421158Y-76300500D01*
X107578844Y-76300500D01*
X107578845Y-76300499D01*
X107655152Y-76285320D01*
X107733488Y-76269739D01*
X107733489Y-76269738D01*
X107733497Y-76269737D01*
X107757155Y-76259937D01*
X107804604Y-76250500D01*
X108381705Y-76250500D01*
X108448744Y-76270185D01*
X108494499Y-76322989D01*
X108504443Y-76392147D01*
X108477807Y-76452860D01*
X108450302Y-76486593D01*
X108434880Y-76516117D01*
X108356089Y-76666954D01*
X108324333Y-76777939D01*
X108302337Y-76854815D01*
X108300114Y-76862583D01*
X108300113Y-76862586D01*
X108292945Y-76943211D01*
X108289665Y-76980114D01*
X108289500Y-76981966D01*
X108289500Y-78098028D01*
X108289501Y-78098034D01*
X108300113Y-78217415D01*
X108356089Y-78413045D01*
X108356090Y-78413048D01*
X108356091Y-78413049D01*
X108450302Y-78593407D01*
X108511438Y-78668385D01*
X108563015Y-78731639D01*
X108590124Y-78796036D01*
X108578115Y-78864865D01*
X108563015Y-78888361D01*
X108450304Y-79026590D01*
X108356089Y-79206954D01*
X108300114Y-79402583D01*
X108300113Y-79402586D01*
X108289500Y-79521966D01*
X108289500Y-79976000D01*
X108269815Y-80043039D01*
X108217011Y-80088794D01*
X108165500Y-80100000D01*
X97924500Y-80100000D01*
X97857461Y-80080315D01*
X97811706Y-80027511D01*
X97800500Y-79976000D01*
X97800500Y-75580944D01*
X97798616Y-75573914D01*
X97798615Y-75573910D01*
X97794361Y-75558033D01*
X97780225Y-75505276D01*
X97759577Y-75428216D01*
X97753135Y-75417058D01*
X97680524Y-75291290D01*
X97680521Y-75291286D01*
X97680520Y-75291284D01*
X97568716Y-75179480D01*
X97568715Y-75179479D01*
X97564385Y-75175149D01*
X97564374Y-75175139D01*
X95841252Y-73452017D01*
X95807767Y-73390694D01*
X95809717Y-73330224D01*
X95864886Y-73137418D01*
X95875500Y-73018037D01*
X95875499Y-71901964D01*
X95864886Y-71782582D01*
X95808909Y-71586951D01*
X95714698Y-71406593D01*
X95601983Y-71268359D01*
X95574875Y-71203965D01*
X95586884Y-71135135D01*
X95601981Y-71111642D01*
X95714698Y-70973407D01*
X95808909Y-70793049D01*
X95864886Y-70597418D01*
X95875500Y-70478037D01*
X95875499Y-69361964D01*
X95864886Y-69242582D01*
X95808909Y-69046951D01*
X95714698Y-68866593D01*
X95619629Y-68750000D01*
X95586109Y-68708890D01*
X95430808Y-68582260D01*
X95428407Y-68580302D01*
X95248049Y-68486091D01*
X95248048Y-68486090D01*
X95248045Y-68486089D01*
X95130829Y-68452550D01*
X95052418Y-68430114D01*
X95052415Y-68430113D01*
X95052413Y-68430113D01*
X94986102Y-68424217D01*
X94933037Y-68419500D01*
X94933032Y-68419500D01*
X93066971Y-68419500D01*
X93066965Y-68419500D01*
X93066964Y-68419501D01*
X93062645Y-68419885D01*
X92947584Y-68430113D01*
X92751954Y-68486089D01*
X92682628Y-68522302D01*
X92571593Y-68580302D01*
X92571591Y-68580303D01*
X92571590Y-68580304D01*
X92413890Y-68708890D01*
X92285304Y-68866590D01*
X92191089Y-69046954D01*
X92135114Y-69242583D01*
X92135113Y-69242586D01*
X92124500Y-69361966D01*
X92124500Y-70478028D01*
X92124501Y-70478034D01*
X92135113Y-70597415D01*
X92191089Y-70793045D01*
X92191090Y-70793048D01*
X92191091Y-70793049D01*
X92285302Y-70973407D01*
X92285304Y-70973409D01*
X92398015Y-71111639D01*
X92425124Y-71176036D01*
X92413115Y-71244865D01*
X92398015Y-71268361D01*
X92367423Y-71305880D01*
X92285302Y-71406593D01*
X92272246Y-71431588D01*
X92191089Y-71586954D01*
X92135114Y-71782583D01*
X92135113Y-71782586D01*
X92124500Y-71901966D01*
X92124500Y-73018028D01*
X92124501Y-73018034D01*
X92135113Y-73137415D01*
X92191089Y-73333045D01*
X92191090Y-73333048D01*
X92191091Y-73333049D01*
X92285302Y-73513407D01*
X92310016Y-73543716D01*
X92398015Y-73651639D01*
X92425124Y-73716036D01*
X92413115Y-73784865D01*
X92398015Y-73808361D01*
X92285307Y-73946587D01*
X92285302Y-73946593D01*
X92253555Y-74007370D01*
X92191089Y-74126954D01*
X92135114Y-74322583D01*
X92135113Y-74322586D01*
X92124500Y-74441966D01*
X92124500Y-75558028D01*
X92124501Y-75558034D01*
X92135113Y-75677415D01*
X92190282Y-75870224D01*
X92189799Y-75940092D01*
X92158747Y-75992016D01*
X91534262Y-76616501D01*
X91534255Y-76616508D01*
X91531286Y-76619478D01*
X91531284Y-76619480D01*
X91419480Y-76731284D01*
X91396976Y-76770263D01*
X91390946Y-76780706D01*
X91390945Y-76780708D01*
X91343674Y-76862584D01*
X91340423Y-76868215D01*
X91299499Y-77020943D01*
X91299499Y-77020945D01*
X91299499Y-77189046D01*
X91299500Y-77189059D01*
X91299500Y-88325830D01*
X91299499Y-88325848D01*
X91299499Y-88491554D01*
X91299498Y-88491554D01*
X91340424Y-88644289D01*
X91340425Y-88644290D01*
X91362186Y-88681980D01*
X91362187Y-88681982D01*
X91419475Y-88781209D01*
X91419481Y-88781217D01*
X91538349Y-88900085D01*
X91538355Y-88900090D01*
X93038181Y-90399916D01*
X93071666Y-90461239D01*
X93074500Y-90487597D01*
X93074500Y-91100001D01*
X93074501Y-91100019D01*
X93085000Y-91202796D01*
X93085001Y-91202799D01*
X93125752Y-91325776D01*
X93140186Y-91369334D01*
X93214984Y-91490602D01*
X93232289Y-91518657D01*
X93356345Y-91642713D01*
X93379994Y-91657299D01*
X93387988Y-91662230D01*
X93390594Y-91663837D01*
X93437320Y-91715784D01*
X93449500Y-91769377D01*
X93449500Y-92454191D01*
X93429815Y-92521230D01*
X93413181Y-92541872D01*
X93381923Y-92573129D01*
X93381917Y-92573137D01*
X93298255Y-92714603D01*
X93298254Y-92714606D01*
X93252402Y-92872426D01*
X93252401Y-92872432D01*
X93249500Y-92909298D01*
X93249500Y-94215701D01*
X93252401Y-94252567D01*
X93252402Y-94252573D01*
X93298254Y-94410393D01*
X93298255Y-94410396D01*
X93381917Y-94551862D01*
X93381923Y-94551870D01*
X93498129Y-94668076D01*
X93498133Y-94668079D01*
X93498135Y-94668081D01*
X93639602Y-94751744D01*
X93668360Y-94760099D01*
X93797426Y-94797597D01*
X93797429Y-94797597D01*
X93797431Y-94797598D01*
X93834306Y-94800500D01*
X94075500Y-94800500D01*
X94142539Y-94820185D01*
X94188294Y-94872989D01*
X94199500Y-94924500D01*
X94199500Y-96090701D01*
X94202401Y-96127567D01*
X94202402Y-96127573D01*
X94248254Y-96285393D01*
X94248255Y-96285396D01*
X94331917Y-96426862D01*
X94331923Y-96426870D01*
X94448129Y-96543076D01*
X94448133Y-96543079D01*
X94448135Y-96543081D01*
X94589602Y-96626744D01*
X94631224Y-96638836D01*
X94747426Y-96672597D01*
X94747429Y-96672597D01*
X94747431Y-96672598D01*
X94784306Y-96675500D01*
X94784314Y-96675500D01*
X95215686Y-96675500D01*
X95215694Y-96675500D01*
X95252569Y-96672598D01*
X95252571Y-96672597D01*
X95252573Y-96672597D01*
X95294191Y-96660505D01*
X95410398Y-96626744D01*
X95551865Y-96543081D01*
X95668081Y-96426865D01*
X95751744Y-96285398D01*
X95795613Y-96134403D01*
X95797646Y-96127405D01*
X95835252Y-96068519D01*
X95898725Y-96039313D01*
X95916722Y-96038000D01*
X98276652Y-96038000D01*
X98343691Y-96057685D01*
X98382189Y-96096901D01*
X98457288Y-96218656D01*
X98457289Y-96218657D01*
X98550951Y-96312319D01*
X98584436Y-96373642D01*
X98579452Y-96443334D01*
X98550951Y-96487681D01*
X98457289Y-96581342D01*
X98365187Y-96730663D01*
X98365186Y-96730666D01*
X98310001Y-96897203D01*
X98310001Y-96897204D01*
X98310000Y-96897204D01*
X98299500Y-96999983D01*
X98299500Y-97625001D01*
X98299501Y-97625019D01*
X98310000Y-97727796D01*
X98310001Y-97727799D01*
X98365185Y-97894331D01*
X98365187Y-97894336D01*
X98385341Y-97927011D01*
X98457288Y-98043656D01*
X98581344Y-98167712D01*
X98730666Y-98259814D01*
X98897203Y-98314999D01*
X98999991Y-98325500D01*
X100000008Y-98325499D01*
X100000016Y-98325498D01*
X100000019Y-98325498D01*
X100056302Y-98319748D01*
X100102797Y-98314999D01*
X100269334Y-98259814D01*
X100418656Y-98167712D01*
X100542712Y-98043656D01*
X100634814Y-97894334D01*
X100676808Y-97767603D01*
X100716578Y-97710162D01*
X100781094Y-97683338D01*
X100849869Y-97695653D01*
X100882193Y-97718929D01*
X102243784Y-99080520D01*
X102243786Y-99080521D01*
X102243790Y-99080524D01*
X102319678Y-99124337D01*
X102380716Y-99159577D01*
X102533443Y-99200501D01*
X102533445Y-99200501D01*
X102699154Y-99200501D01*
X102699170Y-99200500D01*
X137813331Y-99200500D01*
X137813347Y-99200501D01*
X137820943Y-99200501D01*
X137979054Y-99200501D01*
X137979057Y-99200501D01*
X138131785Y-99159577D01*
X138181904Y-99130639D01*
X138193952Y-99123682D01*
X138205341Y-99117109D01*
X138205406Y-99117093D01*
X138267334Y-99100500D01*
X140213331Y-99100500D01*
X140213347Y-99100501D01*
X140220943Y-99100501D01*
X140379054Y-99100501D01*
X140379057Y-99100501D01*
X140531785Y-99059577D01*
X140581904Y-99030639D01*
X140668716Y-98980520D01*
X140780520Y-98868716D01*
X140780520Y-98868714D01*
X140790728Y-98858507D01*
X140790730Y-98858504D01*
X142668713Y-96980521D01*
X142668716Y-96980520D01*
X142780520Y-96868716D01*
X142781131Y-96867657D01*
X142787661Y-96861104D01*
X142811544Y-96848006D01*
X142833541Y-96831942D01*
X142841730Y-96831453D01*
X142848923Y-96827509D01*
X142876093Y-96829402D01*
X142903287Y-96827780D01*
X142910440Y-96831796D01*
X142918624Y-96832367D01*
X142940460Y-96848652D01*
X142964210Y-96861987D01*
X142968055Y-96869231D01*
X142974633Y-96874137D01*
X142984198Y-96899643D01*
X142996969Y-96923701D01*
X142998360Y-96937404D01*
X142999168Y-96939558D01*
X142998767Y-96941414D01*
X142999500Y-96948627D01*
X142999500Y-98993040D01*
X142998720Y-99006923D01*
X142988541Y-99097265D01*
X142982362Y-99124337D01*
X142954649Y-99203535D01*
X142942602Y-99228552D01*
X142897957Y-99299604D01*
X142880644Y-99321313D01*
X142821313Y-99380644D01*
X142799604Y-99397957D01*
X142728552Y-99442602D01*
X142703535Y-99454649D01*
X142624337Y-99482362D01*
X142597265Y-99488541D01*
X142506923Y-99498720D01*
X142493040Y-99499500D01*
X91006960Y-99499500D01*
X90993077Y-99498720D01*
X90902734Y-99488541D01*
X90875662Y-99482362D01*
X90796464Y-99454649D01*
X90771447Y-99442602D01*
X90700395Y-99397957D01*
X90678686Y-99380644D01*
X90619355Y-99321313D01*
X90602042Y-99299604D01*
X90557397Y-99228552D01*
X90545351Y-99203539D01*
X90517636Y-99124333D01*
X90511458Y-99097268D01*
X90501280Y-99006922D01*
X90500500Y-98993040D01*
X90500500Y-68006959D01*
X90501280Y-67993077D01*
X90501606Y-67990186D01*
X90511459Y-67902729D01*
X90517635Y-67875668D01*
X90545353Y-67796457D01*
X90557393Y-67771453D01*
X90602046Y-67700389D01*
X90619351Y-67678690D01*
X90678690Y-67619351D01*
X90700389Y-67602046D01*
X90771453Y-67557393D01*
X90796457Y-67545353D01*
X90875668Y-67517635D01*
X90902729Y-67511459D01*
X90978753Y-67502893D01*
X90993078Y-67501280D01*
X91006960Y-67500500D01*
X91065892Y-67500500D01*
X100034101Y-67500500D01*
X100101140Y-67520185D01*
G37*
%TD.AperFunction*%
%TA.AperFunction,Conductor*%
G36*
X95552127Y-86516854D02*
G01*
X95592960Y-86573549D01*
X95600000Y-86614735D01*
X95600000Y-88200000D01*
X100574403Y-88200000D01*
X100641442Y-88219685D01*
X100662084Y-88236319D01*
X102725681Y-90299916D01*
X102759166Y-90361239D01*
X102762000Y-90387597D01*
X102762000Y-91000001D01*
X102762001Y-91000019D01*
X102772500Y-91102796D01*
X102772501Y-91102799D01*
X102805208Y-91201500D01*
X102827686Y-91269334D01*
X102889367Y-91369336D01*
X102919789Y-91418657D01*
X103043845Y-91542713D01*
X103049513Y-91547195D01*
X103048070Y-91549019D01*
X103087320Y-91592654D01*
X103099500Y-91646248D01*
X103099500Y-92491691D01*
X103079815Y-92558730D01*
X103063181Y-92579372D01*
X103031923Y-92610629D01*
X103031917Y-92610637D01*
X102948255Y-92752103D01*
X102948254Y-92752106D01*
X102902402Y-92909926D01*
X102902401Y-92909932D01*
X102899500Y-92946798D01*
X102899500Y-94253201D01*
X102902401Y-94290067D01*
X102902402Y-94290073D01*
X102948254Y-94447893D01*
X102948255Y-94447896D01*
X103031917Y-94589362D01*
X103031923Y-94589370D01*
X103148129Y-94705576D01*
X103148133Y-94705579D01*
X103148135Y-94705581D01*
X103289602Y-94789244D01*
X103328338Y-94800498D01*
X103447426Y-94835097D01*
X103447429Y-94835097D01*
X103447431Y-94835098D01*
X103484306Y-94838000D01*
X103725500Y-94838000D01*
X103792539Y-94857685D01*
X103838294Y-94910489D01*
X103849500Y-94962000D01*
X103849500Y-96128201D01*
X103852401Y-96165067D01*
X103852402Y-96165073D01*
X103898254Y-96322893D01*
X103898255Y-96322896D01*
X103981917Y-96464362D01*
X103981923Y-96464370D01*
X104098129Y-96580576D01*
X104098133Y-96580579D01*
X104098135Y-96580581D01*
X104239602Y-96664244D01*
X104278342Y-96675499D01*
X104397426Y-96710097D01*
X104397429Y-96710097D01*
X104397431Y-96710098D01*
X104434306Y-96713000D01*
X104434314Y-96713000D01*
X104865686Y-96713000D01*
X104865694Y-96713000D01*
X104902569Y-96710098D01*
X104902571Y-96710097D01*
X104902573Y-96710097D01*
X104944191Y-96698005D01*
X105060398Y-96664244D01*
X105201865Y-96580581D01*
X105318081Y-96464365D01*
X105401744Y-96322898D01*
X105447598Y-96165069D01*
X105447646Y-96164905D01*
X105485252Y-96106019D01*
X105548725Y-96076813D01*
X105566722Y-96075500D01*
X108699782Y-96075500D01*
X108766821Y-96095185D01*
X108805319Y-96134401D01*
X108857288Y-96218656D01*
X108857289Y-96218657D01*
X108950951Y-96312319D01*
X108984436Y-96373642D01*
X108979452Y-96443334D01*
X108950951Y-96487681D01*
X108857289Y-96581342D01*
X108765187Y-96730663D01*
X108765186Y-96730666D01*
X108710001Y-96897203D01*
X108710001Y-96897204D01*
X108710000Y-96897204D01*
X108699500Y-96999983D01*
X108699500Y-97625001D01*
X108699501Y-97625019D01*
X108710000Y-97727796D01*
X108723193Y-97767607D01*
X108746021Y-97836498D01*
X108748423Y-97906324D01*
X108712692Y-97966366D01*
X108650172Y-97997559D01*
X108628315Y-97999500D01*
X102912598Y-97999500D01*
X102845559Y-97979815D01*
X102824917Y-97963181D01*
X100736818Y-95875083D01*
X100703333Y-95813760D01*
X100700499Y-95787411D01*
X100700499Y-95174992D01*
X100689999Y-95072203D01*
X100634814Y-94905666D01*
X100542712Y-94756344D01*
X100418656Y-94632288D01*
X100269334Y-94540186D01*
X100102797Y-94485001D01*
X100102795Y-94485000D01*
X100000010Y-94474500D01*
X98999998Y-94474500D01*
X98999980Y-94474501D01*
X98897203Y-94485000D01*
X98897200Y-94485001D01*
X98730668Y-94540185D01*
X98730663Y-94540187D01*
X98581342Y-94632289D01*
X98457288Y-94756343D01*
X98457285Y-94756347D01*
X98443870Y-94778097D01*
X98391922Y-94824822D01*
X98338332Y-94837000D01*
X96632309Y-94837000D01*
X96565270Y-94817315D01*
X96519515Y-94764511D01*
X96509571Y-94695353D01*
X96538596Y-94631797D01*
X96544628Y-94625319D01*
X96618076Y-94551870D01*
X96618081Y-94551865D01*
X96701744Y-94410398D01*
X96745634Y-94259330D01*
X96747597Y-94252573D01*
X96747598Y-94252567D01*
X96750500Y-94215694D01*
X96750500Y-92909306D01*
X96747598Y-92872431D01*
X96747418Y-92871813D01*
X96705519Y-92727597D01*
X96701744Y-92714602D01*
X96687056Y-92689765D01*
X96667768Y-92657150D01*
X96650500Y-92594030D01*
X96650500Y-91687230D01*
X96670185Y-91620191D01*
X96686819Y-91599549D01*
X96711819Y-91574549D01*
X96767712Y-91518656D01*
X96859814Y-91369334D01*
X96914999Y-91202797D01*
X96925500Y-91100009D01*
X96925499Y-90099992D01*
X96914999Y-89997203D01*
X96859814Y-89830666D01*
X96767712Y-89681344D01*
X96643656Y-89557288D01*
X96494334Y-89465186D01*
X96327797Y-89410001D01*
X96327795Y-89410000D01*
X96225010Y-89399500D01*
X95599998Y-89399500D01*
X95599980Y-89399501D01*
X95497203Y-89410000D01*
X95497200Y-89410001D01*
X95330668Y-89465185D01*
X95330663Y-89465187D01*
X95181342Y-89557289D01*
X95087681Y-89650951D01*
X95026358Y-89684436D01*
X94956666Y-89679452D01*
X94912319Y-89650951D01*
X94818657Y-89557289D01*
X94818656Y-89557288D01*
X94669334Y-89465186D01*
X94502797Y-89410001D01*
X94502795Y-89410000D01*
X94400016Y-89399500D01*
X93787597Y-89399500D01*
X93720558Y-89379815D01*
X93699916Y-89363181D01*
X92536819Y-88200084D01*
X92503334Y-88138761D01*
X92500500Y-88112403D01*
X92500500Y-86667232D01*
X92520185Y-86600193D01*
X92572989Y-86554438D01*
X92642147Y-86544494D01*
X92681908Y-86557321D01*
X92751951Y-86593909D01*
X92947582Y-86649886D01*
X93066963Y-86660500D01*
X94933036Y-86660499D01*
X95052418Y-86649886D01*
X95248049Y-86593909D01*
X95418591Y-86504825D01*
X95487123Y-86491235D01*
X95552127Y-86516854D01*
G37*
%TD.AperFunction*%
%TA.AperFunction,Conductor*%
G36*
X130475318Y-89876430D02*
G01*
X130531251Y-89918302D01*
X130537523Y-89927516D01*
X130540185Y-89931832D01*
X130540186Y-89931834D01*
X130632288Y-90081156D01*
X130713775Y-90162643D01*
X130714256Y-90163136D01*
X130730295Y-90193391D01*
X130746666Y-90223372D01*
X130746787Y-90224500D01*
X130746982Y-90224868D01*
X130746913Y-90225678D01*
X130749500Y-90249730D01*
X130749500Y-92416691D01*
X130729815Y-92483730D01*
X130713181Y-92504372D01*
X130681923Y-92535629D01*
X130681917Y-92535637D01*
X130598255Y-92677103D01*
X130598254Y-92677106D01*
X130552402Y-92834926D01*
X130552401Y-92834932D01*
X130549500Y-92871798D01*
X130549500Y-94178201D01*
X130552401Y-94215067D01*
X130552402Y-94215073D01*
X130598254Y-94372893D01*
X130598255Y-94372896D01*
X130598256Y-94372898D01*
X130599204Y-94374501D01*
X130681917Y-94514362D01*
X130681923Y-94514370D01*
X130742872Y-94575319D01*
X130776357Y-94636642D01*
X130771373Y-94706334D01*
X130729501Y-94762267D01*
X130664037Y-94786684D01*
X130655191Y-94787000D01*
X129892508Y-94787000D01*
X129825469Y-94767315D01*
X129786969Y-94728097D01*
X129742712Y-94656344D01*
X129618656Y-94532288D01*
X129524966Y-94474500D01*
X129469336Y-94440187D01*
X129469331Y-94440185D01*
X129467862Y-94439698D01*
X129302797Y-94385001D01*
X129302795Y-94385000D01*
X129200010Y-94374500D01*
X128199998Y-94374500D01*
X128199980Y-94374501D01*
X128097203Y-94385000D01*
X128097200Y-94385001D01*
X127930668Y-94440185D01*
X127930663Y-94440187D01*
X127781342Y-94532289D01*
X127657289Y-94656342D01*
X127565187Y-94805663D01*
X127565185Y-94805668D01*
X127546412Y-94862321D01*
X127510001Y-94972203D01*
X127510001Y-94972204D01*
X127510000Y-94972204D01*
X127499500Y-95074983D01*
X127499500Y-95700001D01*
X127499501Y-95700019D01*
X127510000Y-95802796D01*
X127510001Y-95802799D01*
X127548615Y-95919327D01*
X127549150Y-95934890D01*
X127554593Y-95949481D01*
X127550326Y-95969094D01*
X127551017Y-95989155D01*
X127542848Y-96003479D01*
X127539743Y-96017755D01*
X127518593Y-96046010D01*
X127501425Y-96063179D01*
X127440103Y-96096665D01*
X127413741Y-96099500D01*
X125062000Y-96099500D01*
X124994961Y-96079815D01*
X124949206Y-96027011D01*
X124938000Y-95975500D01*
X124938000Y-95924500D01*
X124957685Y-95857461D01*
X125010489Y-95811706D01*
X125062000Y-95800500D01*
X125413331Y-95800500D01*
X125413347Y-95800501D01*
X125420943Y-95800501D01*
X125579054Y-95800501D01*
X125579057Y-95800501D01*
X125731785Y-95759577D01*
X125801572Y-95719285D01*
X125868716Y-95680520D01*
X125980520Y-95568716D01*
X125980520Y-95568714D01*
X125990724Y-95558511D01*
X125990728Y-95558506D01*
X127058506Y-94490728D01*
X127058511Y-94490724D01*
X127068714Y-94480520D01*
X127068716Y-94480520D01*
X127180520Y-94368716D01*
X127225566Y-94290694D01*
X127238544Y-94268216D01*
X127238545Y-94268214D01*
X127259574Y-94231790D01*
X127259573Y-94231790D01*
X127259577Y-94231785D01*
X127300500Y-94079058D01*
X127300500Y-93920943D01*
X127300500Y-92445134D01*
X127320185Y-92378095D01*
X127372989Y-92332340D01*
X127442147Y-92322396D01*
X127471950Y-92330572D01*
X127566503Y-92369737D01*
X127721153Y-92400499D01*
X127721156Y-92400500D01*
X127721158Y-92400500D01*
X127878844Y-92400500D01*
X127878845Y-92400499D01*
X128033497Y-92369737D01*
X128179179Y-92309394D01*
X128310289Y-92221789D01*
X128421789Y-92110289D01*
X128509394Y-91979179D01*
X128569737Y-91833497D01*
X128600500Y-91678842D01*
X128600638Y-91678150D01*
X128633023Y-91616239D01*
X128634518Y-91614716D01*
X130344305Y-89904929D01*
X130405626Y-89871446D01*
X130475318Y-89876430D01*
G37*
%TD.AperFunction*%
%TA.AperFunction,Conductor*%
G36*
X108405203Y-86145721D02*
G01*
X108433907Y-86182020D01*
X108450302Y-86213407D01*
X108578890Y-86371109D01*
X108665500Y-86441729D01*
X108736593Y-86499698D01*
X108916951Y-86593909D01*
X109112582Y-86649886D01*
X109231963Y-86660500D01*
X111098036Y-86660499D01*
X111106199Y-86659773D01*
X111174717Y-86673444D01*
X111224968Y-86721989D01*
X111240116Y-86767095D01*
X111240497Y-86769991D01*
X111240499Y-86769998D01*
X111240499Y-86770000D01*
X111251069Y-86809447D01*
X111281423Y-86922730D01*
X111302697Y-86959575D01*
X111302698Y-86959578D01*
X111360475Y-87059652D01*
X111360481Y-87059660D01*
X111479349Y-87178528D01*
X111479354Y-87178532D01*
X115382341Y-91081520D01*
X115382343Y-91081521D01*
X115382347Y-91081524D01*
X115519266Y-91160573D01*
X115519273Y-91160577D01*
X115672000Y-91201501D01*
X115672002Y-91201501D01*
X115837711Y-91201501D01*
X115837727Y-91201500D01*
X121687331Y-91201500D01*
X121687347Y-91201501D01*
X121694943Y-91201501D01*
X121853054Y-91201501D01*
X121853057Y-91201501D01*
X122005785Y-91160577D01*
X122073194Y-91121658D01*
X122142716Y-91081520D01*
X122254520Y-90969716D01*
X122254520Y-90969714D01*
X122264720Y-90959515D01*
X122264723Y-90959510D01*
X122375322Y-90848912D01*
X122436642Y-90815430D01*
X122506334Y-90820414D01*
X122562267Y-90862286D01*
X122586684Y-90927751D01*
X122587000Y-90936596D01*
X122587000Y-92529191D01*
X122567315Y-92596230D01*
X122550681Y-92616872D01*
X122519423Y-92648129D01*
X122519417Y-92648137D01*
X122435755Y-92789603D01*
X122435754Y-92789606D01*
X122389902Y-92947426D01*
X122389901Y-92947432D01*
X122387000Y-92984298D01*
X122387000Y-94290701D01*
X122389901Y-94327567D01*
X122389902Y-94327573D01*
X122435754Y-94485393D01*
X122435757Y-94485400D01*
X122503459Y-94599880D01*
X122520642Y-94667604D01*
X122498482Y-94733866D01*
X122444015Y-94777629D01*
X122396727Y-94787000D01*
X120792508Y-94787000D01*
X120725469Y-94767315D01*
X120686969Y-94728097D01*
X120642712Y-94656344D01*
X120518656Y-94532288D01*
X120424966Y-94474500D01*
X120369336Y-94440187D01*
X120369331Y-94440185D01*
X120367862Y-94439698D01*
X120202797Y-94385001D01*
X120202795Y-94385000D01*
X120100010Y-94374500D01*
X119099998Y-94374500D01*
X119099980Y-94374501D01*
X118997203Y-94385000D01*
X118997200Y-94385001D01*
X118830668Y-94440185D01*
X118830663Y-94440187D01*
X118681342Y-94532289D01*
X118557289Y-94656342D01*
X118465187Y-94805663D01*
X118465185Y-94805668D01*
X118446412Y-94862321D01*
X118410001Y-94972203D01*
X118410001Y-94972204D01*
X118410000Y-94972204D01*
X118399500Y-95074983D01*
X118399500Y-95074996D01*
X118399501Y-95566468D01*
X118379817Y-95633507D01*
X118327013Y-95679262D01*
X118275501Y-95690468D01*
X111224500Y-95690468D01*
X111157461Y-95670783D01*
X111111706Y-95617979D01*
X111100500Y-95566468D01*
X111100499Y-95174998D01*
X111100498Y-95174980D01*
X111089999Y-95072203D01*
X111089998Y-95072200D01*
X111062999Y-94990724D01*
X111034814Y-94905666D01*
X110942712Y-94756344D01*
X110818656Y-94632288D01*
X110669334Y-94540186D01*
X110502797Y-94485001D01*
X110502795Y-94485000D01*
X110400010Y-94474500D01*
X109399998Y-94474500D01*
X109399980Y-94474501D01*
X109297203Y-94485000D01*
X109297200Y-94485001D01*
X109130668Y-94540185D01*
X109130663Y-94540187D01*
X108981342Y-94632289D01*
X108857289Y-94756342D01*
X108850521Y-94767315D01*
X108829121Y-94802011D01*
X108820741Y-94815597D01*
X108768793Y-94862321D01*
X108715202Y-94874500D01*
X106282309Y-94874500D01*
X106215270Y-94854815D01*
X106169515Y-94802011D01*
X106159571Y-94732853D01*
X106188596Y-94669297D01*
X106194628Y-94662819D01*
X106268076Y-94589370D01*
X106268081Y-94589365D01*
X106351744Y-94447898D01*
X106394741Y-94299903D01*
X106397597Y-94290073D01*
X106397598Y-94290067D01*
X106400500Y-94253194D01*
X106400500Y-92946806D01*
X106397598Y-92909931D01*
X106397597Y-92909926D01*
X106355424Y-92764765D01*
X106350500Y-92730170D01*
X106350500Y-91574730D01*
X106370185Y-91507691D01*
X106386819Y-91487049D01*
X106401219Y-91472649D01*
X106455212Y-91418656D01*
X106547314Y-91269334D01*
X106602499Y-91102797D01*
X106613000Y-91000009D01*
X106612999Y-89999992D01*
X106612761Y-89997666D01*
X106602499Y-89897203D01*
X106602498Y-89897200D01*
X106580450Y-89830663D01*
X106547314Y-89730666D01*
X106455212Y-89581344D01*
X106331156Y-89457288D01*
X106181834Y-89365186D01*
X106015297Y-89310001D01*
X106015295Y-89310000D01*
X105912510Y-89299500D01*
X105287498Y-89299500D01*
X105287480Y-89299501D01*
X105184703Y-89310000D01*
X105184700Y-89310001D01*
X105018168Y-89365185D01*
X105018163Y-89365187D01*
X104868842Y-89457289D01*
X104775181Y-89550951D01*
X104713858Y-89584436D01*
X104644166Y-89579452D01*
X104599819Y-89550951D01*
X104506157Y-89457289D01*
X104506156Y-89457288D01*
X104356834Y-89365186D01*
X104190297Y-89310001D01*
X104190295Y-89310000D01*
X104087516Y-89299500D01*
X103475097Y-89299500D01*
X103408058Y-89279815D01*
X103387416Y-89263181D01*
X102535916Y-88411681D01*
X102502431Y-88350358D01*
X102507415Y-88280666D01*
X102549287Y-88224733D01*
X102614751Y-88200316D01*
X102623597Y-88200000D01*
X108200000Y-88200000D01*
X108200000Y-86239434D01*
X108219685Y-86172395D01*
X108272489Y-86126640D01*
X108341647Y-86116696D01*
X108405203Y-86145721D01*
G37*
%TD.AperFunction*%
%TA.AperFunction,Conductor*%
G36*
X134718834Y-91957916D02*
G01*
X134774767Y-91999788D01*
X134799184Y-92065252D01*
X134799500Y-92074098D01*
X134799500Y-94199903D01*
X134790855Y-94229343D01*
X134784332Y-94259330D01*
X134780577Y-94264345D01*
X134779815Y-94266942D01*
X134763181Y-94287584D01*
X134663181Y-94387584D01*
X134601858Y-94421069D01*
X134532166Y-94416085D01*
X134476233Y-94374213D01*
X134451816Y-94308749D01*
X134451500Y-94299903D01*
X134451500Y-92174098D01*
X134471185Y-92107059D01*
X134487819Y-92086417D01*
X134587819Y-91986417D01*
X134649142Y-91952932D01*
X134718834Y-91957916D01*
G37*
%TD.AperFunction*%
%TA.AperFunction,Conductor*%
G36*
X124230834Y-90020548D02*
G01*
X124275181Y-90049049D01*
X124300681Y-90074549D01*
X124334166Y-90135872D01*
X124337000Y-90162230D01*
X124337000Y-92767670D01*
X124332076Y-92802265D01*
X124289902Y-92947426D01*
X124289901Y-92947432D01*
X124287000Y-92984298D01*
X124287000Y-94150500D01*
X124284449Y-94159185D01*
X124285738Y-94168147D01*
X124274759Y-94192187D01*
X124267315Y-94217539D01*
X124260474Y-94223466D01*
X124256713Y-94231703D01*
X124234478Y-94245992D01*
X124214511Y-94263294D01*
X124203996Y-94265581D01*
X124197935Y-94269477D01*
X124163000Y-94274500D01*
X124112000Y-94274500D01*
X124044961Y-94254815D01*
X123999206Y-94202011D01*
X123988000Y-94150500D01*
X123988000Y-92984313D01*
X123987999Y-92984298D01*
X123985098Y-92947432D01*
X123985097Y-92947426D01*
X123939245Y-92789606D01*
X123939244Y-92789603D01*
X123939244Y-92789602D01*
X123855581Y-92648135D01*
X123855579Y-92648133D01*
X123855576Y-92648129D01*
X123824319Y-92616872D01*
X123790834Y-92555549D01*
X123788000Y-92529191D01*
X123788000Y-90345908D01*
X123807685Y-90278869D01*
X123851771Y-90240363D01*
X123850687Y-90238605D01*
X123856832Y-90234814D01*
X123856834Y-90234814D01*
X124006156Y-90142712D01*
X124099819Y-90049049D01*
X124161142Y-90015564D01*
X124230834Y-90020548D01*
G37*
%TD.AperFunction*%
%TA.AperFunction,Conductor*%
G36*
X104730834Y-91420548D02*
G01*
X104775181Y-91449049D01*
X104813181Y-91487049D01*
X104846666Y-91548372D01*
X104849500Y-91574730D01*
X104849500Y-92730170D01*
X104844576Y-92764765D01*
X104802402Y-92909926D01*
X104802401Y-92909932D01*
X104799500Y-92946798D01*
X104799500Y-94113000D01*
X104796949Y-94121685D01*
X104798238Y-94130647D01*
X104787259Y-94154687D01*
X104779815Y-94180039D01*
X104772974Y-94185966D01*
X104769213Y-94194203D01*
X104746978Y-94208492D01*
X104727011Y-94225794D01*
X104716496Y-94228081D01*
X104710435Y-94231977D01*
X104675500Y-94237000D01*
X104624500Y-94237000D01*
X104557461Y-94217315D01*
X104511706Y-94164511D01*
X104500500Y-94113000D01*
X104500500Y-92946813D01*
X104500499Y-92946798D01*
X104499718Y-92936876D01*
X104497598Y-92909931D01*
X104497418Y-92909313D01*
X104451745Y-92752106D01*
X104451744Y-92752103D01*
X104451744Y-92752102D01*
X104368081Y-92610635D01*
X104368079Y-92610633D01*
X104368076Y-92610629D01*
X104336819Y-92579372D01*
X104303334Y-92518049D01*
X104300500Y-92491691D01*
X104300500Y-91738767D01*
X104320185Y-91671728D01*
X104359401Y-91633230D01*
X104506156Y-91542712D01*
X104599819Y-91449049D01*
X104661142Y-91415564D01*
X104730834Y-91420548D01*
G37*
%TD.AperFunction*%
%TA.AperFunction,Conductor*%
G36*
X95043334Y-91520548D02*
G01*
X95087681Y-91549049D01*
X95113181Y-91574549D01*
X95146666Y-91635872D01*
X95149500Y-91662230D01*
X95149500Y-94075500D01*
X95146949Y-94084185D01*
X95148238Y-94093147D01*
X95137259Y-94117187D01*
X95129815Y-94142539D01*
X95122974Y-94148466D01*
X95119213Y-94156703D01*
X95096978Y-94170992D01*
X95077011Y-94188294D01*
X95066496Y-94190581D01*
X95060435Y-94194477D01*
X95025500Y-94199500D01*
X94974500Y-94199500D01*
X94907461Y-94179815D01*
X94861706Y-94127011D01*
X94850500Y-94075500D01*
X94850500Y-92909313D01*
X94850499Y-92909298D01*
X94850403Y-92908083D01*
X94847598Y-92872431D01*
X94847418Y-92871813D01*
X94805519Y-92727597D01*
X94801744Y-92714602D01*
X94718081Y-92573135D01*
X94718079Y-92573133D01*
X94718076Y-92573129D01*
X94686819Y-92541872D01*
X94653334Y-92480549D01*
X94650500Y-92454191D01*
X94650500Y-91815638D01*
X94670185Y-91748599D01*
X94709401Y-91710100D01*
X94818656Y-91642712D01*
X94912319Y-91549049D01*
X94973642Y-91515564D01*
X95043334Y-91520548D01*
G37*
%TD.AperFunction*%
%TA.AperFunction,Conductor*%
G36*
X132418834Y-90107548D02*
G01*
X132474767Y-90149420D01*
X132499184Y-90214884D01*
X132499500Y-90223730D01*
X132499500Y-92655170D01*
X132494576Y-92689765D01*
X132452402Y-92834926D01*
X132452401Y-92834932D01*
X132449500Y-92871798D01*
X132449500Y-94038000D01*
X132446949Y-94046685D01*
X132448238Y-94055647D01*
X132437259Y-94079687D01*
X132429815Y-94105039D01*
X132422974Y-94110966D01*
X132419213Y-94119203D01*
X132396978Y-94133492D01*
X132377011Y-94150794D01*
X132366496Y-94153081D01*
X132360435Y-94156977D01*
X132325500Y-94162000D01*
X132274500Y-94162000D01*
X132207461Y-94142315D01*
X132161706Y-94089511D01*
X132150500Y-94038000D01*
X132150500Y-92871813D01*
X132150499Y-92871798D01*
X132148733Y-92849360D01*
X132147598Y-92834931D01*
X132140470Y-92810398D01*
X132101745Y-92677106D01*
X132101744Y-92677103D01*
X132101744Y-92677102D01*
X132018081Y-92535635D01*
X132018079Y-92535633D01*
X132018076Y-92535629D01*
X131986819Y-92504372D01*
X131953334Y-92443049D01*
X131950500Y-92416691D01*
X131950500Y-90426232D01*
X131970185Y-90359193D01*
X132022989Y-90313438D01*
X132035495Y-90308526D01*
X132069334Y-90297314D01*
X132218656Y-90205212D01*
X132287819Y-90136049D01*
X132349142Y-90102564D01*
X132418834Y-90107548D01*
G37*
%TD.AperFunction*%
%TA.AperFunction,Conductor*%
G36*
X123246978Y-80792236D02*
G01*
X123273274Y-80794104D01*
X123282381Y-80799957D01*
X123289483Y-80801506D01*
X123306325Y-80814127D01*
X123306969Y-80813298D01*
X123313132Y-80818078D01*
X123313135Y-80818081D01*
X123454602Y-80901744D01*
X123496224Y-80913836D01*
X123612426Y-80947597D01*
X123612429Y-80947597D01*
X123612431Y-80947598D01*
X123649306Y-80950500D01*
X123649314Y-80950500D01*
X124080686Y-80950500D01*
X124080694Y-80950500D01*
X124117569Y-80947598D01*
X124117571Y-80947597D01*
X124117573Y-80947597D01*
X124178778Y-80929815D01*
X124275398Y-80901744D01*
X124406248Y-80824359D01*
X124415606Y-80821985D01*
X124423194Y-80816009D01*
X124448920Y-80813532D01*
X124473971Y-80807177D01*
X124483130Y-80810240D01*
X124492743Y-80809315D01*
X124515724Y-80821140D01*
X124540233Y-80829337D01*
X124547936Y-80837716D01*
X124554870Y-80841284D01*
X124576707Y-80869008D01*
X124577125Y-80869733D01*
X124577150Y-80869826D01*
X124577172Y-80869814D01*
X124654477Y-81003712D01*
X124654481Y-81003717D01*
X124773349Y-81122585D01*
X124773354Y-81122589D01*
X125631284Y-81980520D01*
X125631286Y-81980521D01*
X125631290Y-81980524D01*
X125763172Y-82056665D01*
X125768216Y-82059577D01*
X125920943Y-82100501D01*
X125920945Y-82100501D01*
X126086654Y-82100501D01*
X126086670Y-82100500D01*
X127999903Y-82100500D01*
X128029343Y-82109144D01*
X128059330Y-82115668D01*
X128064345Y-82119422D01*
X128066942Y-82120185D01*
X128087584Y-82136819D01*
X128263181Y-82312416D01*
X128296666Y-82373739D01*
X128299500Y-82400097D01*
X128299500Y-82513330D01*
X128299499Y-82513348D01*
X128299499Y-82687185D01*
X128296675Y-82687185D01*
X128288014Y-82742686D01*
X128241628Y-82794936D01*
X128174357Y-82813814D01*
X128107558Y-82793326D01*
X128088165Y-82777504D01*
X128068345Y-82757684D01*
X127919124Y-82665643D01*
X127919119Y-82665641D01*
X127752697Y-82610494D01*
X127752690Y-82610493D01*
X127649986Y-82600000D01*
X126850000Y-82600000D01*
X126850000Y-83750000D01*
X128349999Y-83750000D01*
X128349999Y-83300028D01*
X128349998Y-83300015D01*
X128339819Y-83200377D01*
X128352588Y-83131684D01*
X128400469Y-83080799D01*
X128468258Y-83063878D01*
X128534435Y-83086293D01*
X128550858Y-83100093D01*
X128844537Y-83393772D01*
X128878022Y-83455095D01*
X128880214Y-83494055D01*
X128874500Y-83549981D01*
X128874500Y-84150001D01*
X128874501Y-84150019D01*
X128885000Y-84252796D01*
X128885001Y-84252799D01*
X128898560Y-84293716D01*
X128940186Y-84419334D01*
X129032288Y-84568656D01*
X129156344Y-84692712D01*
X129305666Y-84784814D01*
X129472203Y-84839999D01*
X129574991Y-84850500D01*
X130401500Y-84850499D01*
X130468539Y-84870183D01*
X130514294Y-84922987D01*
X130525500Y-84974499D01*
X130525500Y-85919434D01*
X130505815Y-85986473D01*
X130489181Y-86007115D01*
X126219481Y-90276814D01*
X126219477Y-90276819D01*
X126175785Y-90352498D01*
X126175785Y-90352499D01*
X126140423Y-90413746D01*
X126134397Y-90436235D01*
X126099499Y-90566475D01*
X126099499Y-90566477D01*
X126099499Y-90734578D01*
X126099500Y-90734591D01*
X126099500Y-92814138D01*
X126094428Y-92831409D01*
X126094377Y-92849413D01*
X126084788Y-92864239D01*
X126079815Y-92881177D01*
X126066211Y-92892964D01*
X126056434Y-92908083D01*
X126040352Y-92915371D01*
X126027011Y-92926932D01*
X126009193Y-92929493D01*
X125992796Y-92936926D01*
X125975327Y-92934363D01*
X125957853Y-92936876D01*
X125941478Y-92929397D01*
X125923666Y-92926785D01*
X125910355Y-92915184D01*
X125894297Y-92907851D01*
X125884564Y-92892707D01*
X125870993Y-92880879D01*
X125856708Y-92849360D01*
X125856523Y-92849073D01*
X125856423Y-92848732D01*
X125842923Y-92802264D01*
X125838000Y-92767670D01*
X125838000Y-90187230D01*
X125857685Y-90120191D01*
X125874319Y-90099549D01*
X125899319Y-90074549D01*
X125955212Y-90018656D01*
X126047314Y-89869334D01*
X126102499Y-89702797D01*
X126113000Y-89600009D01*
X126112999Y-88599992D01*
X126108883Y-88559703D01*
X126102499Y-88497203D01*
X126102498Y-88497200D01*
X126095806Y-88477004D01*
X126047314Y-88330666D01*
X125955212Y-88181344D01*
X125831156Y-88057288D01*
X125721419Y-87989602D01*
X125681836Y-87965187D01*
X125681831Y-87965185D01*
X125672219Y-87962000D01*
X125515297Y-87910001D01*
X125515295Y-87910000D01*
X125412510Y-87899500D01*
X124787498Y-87899500D01*
X124787480Y-87899501D01*
X124684703Y-87910000D01*
X124684700Y-87910001D01*
X124518168Y-87965185D01*
X124518163Y-87965187D01*
X124368842Y-88057289D01*
X124275181Y-88150951D01*
X124213858Y-88184436D01*
X124144166Y-88179452D01*
X124099819Y-88150951D01*
X124006157Y-88057289D01*
X124006156Y-88057288D01*
X123896419Y-87989602D01*
X123856836Y-87965187D01*
X123856831Y-87965185D01*
X123847219Y-87962000D01*
X123690297Y-87910001D01*
X123690295Y-87910000D01*
X123587510Y-87899500D01*
X122962498Y-87899500D01*
X122962480Y-87899501D01*
X122859703Y-87910000D01*
X122859700Y-87910001D01*
X122693168Y-87965185D01*
X122693163Y-87965187D01*
X122543842Y-88057289D01*
X122419789Y-88181342D01*
X122327687Y-88330663D01*
X122327685Y-88330668D01*
X122306975Y-88393168D01*
X122272501Y-88497203D01*
X122272501Y-88497204D01*
X122272500Y-88497204D01*
X122262000Y-88599983D01*
X122262000Y-89212401D01*
X122242315Y-89279440D01*
X122225681Y-89300082D01*
X121983054Y-89542710D01*
X121715364Y-89810401D01*
X121561584Y-89964181D01*
X121500261Y-89997666D01*
X121473903Y-90000500D01*
X116051155Y-90000500D01*
X116021714Y-89991855D01*
X115991728Y-89985332D01*
X115986712Y-89981577D01*
X115984116Y-89980815D01*
X115963474Y-89964181D01*
X115910979Y-89911686D01*
X115877494Y-89850363D01*
X115882478Y-89780671D01*
X115924350Y-89724738D01*
X115986059Y-89700647D01*
X115987508Y-89700499D01*
X116090297Y-89689999D01*
X116256834Y-89634814D01*
X116406156Y-89542712D01*
X116499819Y-89449049D01*
X116561142Y-89415564D01*
X116630834Y-89420548D01*
X116675181Y-89449049D01*
X116768844Y-89542712D01*
X116918166Y-89634814D01*
X117084703Y-89689999D01*
X117187491Y-89700500D01*
X117812508Y-89700499D01*
X117812516Y-89700498D01*
X117812519Y-89700498D01*
X117868802Y-89694748D01*
X117915297Y-89689999D01*
X118081834Y-89634814D01*
X118231156Y-89542712D01*
X118355212Y-89418656D01*
X118447314Y-89269334D01*
X118502499Y-89102797D01*
X118513000Y-89000009D01*
X118512999Y-87999992D01*
X118509443Y-87965185D01*
X118502499Y-87897203D01*
X118502498Y-87897200D01*
X118482509Y-87836878D01*
X118447314Y-87730666D01*
X118355212Y-87581344D01*
X118231156Y-87457288D01*
X118231155Y-87457287D01*
X118186976Y-87430037D01*
X118140252Y-87378089D01*
X118129031Y-87309126D01*
X118156875Y-87245044D01*
X118214944Y-87206189D01*
X118252068Y-87200499D01*
X118812508Y-87200499D01*
X118812516Y-87200498D01*
X118812519Y-87200498D01*
X118868802Y-87194748D01*
X118915297Y-87189999D01*
X119081834Y-87134814D01*
X119231156Y-87042712D01*
X119237049Y-87036819D01*
X119298372Y-87003334D01*
X119324730Y-87000500D01*
X124420234Y-87000500D01*
X124487273Y-87020185D01*
X124489125Y-87021398D01*
X124620814Y-87109390D01*
X124620827Y-87109397D01*
X124712651Y-87147431D01*
X124766503Y-87169737D01*
X124903095Y-87196907D01*
X124921153Y-87200499D01*
X124921156Y-87200500D01*
X124921158Y-87200500D01*
X125078844Y-87200500D01*
X125078845Y-87200499D01*
X125233497Y-87169737D01*
X125379179Y-87109394D01*
X125510289Y-87021789D01*
X125621789Y-86910289D01*
X125709394Y-86779179D01*
X125769737Y-86633497D01*
X125796294Y-86499986D01*
X125800500Y-86478843D01*
X125800500Y-86321155D01*
X125800499Y-86321153D01*
X125796011Y-86298589D01*
X125769737Y-86166503D01*
X125758956Y-86140475D01*
X125709397Y-86020827D01*
X125709390Y-86020814D01*
X125621789Y-85889711D01*
X125621786Y-85889707D01*
X125510292Y-85778213D01*
X125510288Y-85778210D01*
X125379185Y-85690609D01*
X125379172Y-85690602D01*
X125233501Y-85630264D01*
X125233489Y-85630261D01*
X125078845Y-85599500D01*
X125078842Y-85599500D01*
X124921158Y-85599500D01*
X124921155Y-85599500D01*
X124766510Y-85630261D01*
X124766498Y-85630264D01*
X124620827Y-85690602D01*
X124620814Y-85690609D01*
X124489125Y-85778602D01*
X124422447Y-85799480D01*
X124420234Y-85799500D01*
X119636999Y-85799500D01*
X119569960Y-85779815D01*
X119524205Y-85727011D01*
X119512999Y-85675500D01*
X119512999Y-85499998D01*
X119512998Y-85499981D01*
X119502499Y-85397203D01*
X119502498Y-85397200D01*
X119476928Y-85320035D01*
X119474526Y-85250207D01*
X119510258Y-85190165D01*
X119572778Y-85158972D01*
X119632948Y-85163099D01*
X119768399Y-85207110D01*
X119807173Y-85219709D01*
X120001578Y-85250500D01*
X120001583Y-85250500D01*
X120198417Y-85250500D01*
X121108804Y-85250500D01*
X121173900Y-85268961D01*
X121280659Y-85334810D01*
X121280660Y-85334810D01*
X121280666Y-85334814D01*
X121447203Y-85389999D01*
X121549991Y-85400500D01*
X123650008Y-85400499D01*
X123667512Y-85398711D01*
X123682303Y-85397200D01*
X123752797Y-85389999D01*
X123919334Y-85334814D01*
X124068656Y-85242712D01*
X124192712Y-85118656D01*
X124284814Y-84969334D01*
X124339999Y-84802797D01*
X124350500Y-84700009D01*
X124350500Y-84699986D01*
X124850001Y-84699986D01*
X124860494Y-84802697D01*
X124915641Y-84969119D01*
X124915643Y-84969124D01*
X125007684Y-85118345D01*
X125131654Y-85242315D01*
X125280875Y-85334356D01*
X125280880Y-85334358D01*
X125447302Y-85389505D01*
X125447309Y-85389506D01*
X125550019Y-85399999D01*
X126349999Y-85399999D01*
X126850000Y-85399999D01*
X127649972Y-85399999D01*
X127649986Y-85399998D01*
X127752697Y-85389505D01*
X127919119Y-85334358D01*
X127919124Y-85334356D01*
X128068345Y-85242315D01*
X128192315Y-85118345D01*
X128284356Y-84969124D01*
X128284358Y-84969119D01*
X128339505Y-84802697D01*
X128339506Y-84802690D01*
X128349999Y-84699986D01*
X128350000Y-84699973D01*
X128350000Y-84250000D01*
X126850000Y-84250000D01*
X126850000Y-85399999D01*
X126349999Y-85399999D01*
X126350000Y-85399998D01*
X126350000Y-84250000D01*
X124850001Y-84250000D01*
X124850001Y-84699986D01*
X124350500Y-84699986D01*
X124350499Y-83964396D01*
X124350499Y-83300013D01*
X124850000Y-83300013D01*
X124850000Y-83750000D01*
X126350000Y-83750000D01*
X126350000Y-82600000D01*
X125550028Y-82600000D01*
X125550012Y-82600001D01*
X125447302Y-82610494D01*
X125280880Y-82665641D01*
X125280875Y-82665643D01*
X125131654Y-82757684D01*
X125007684Y-82881654D01*
X124915643Y-83030875D01*
X124915641Y-83030880D01*
X124860494Y-83197302D01*
X124860493Y-83197309D01*
X124850000Y-83300013D01*
X124350499Y-83300013D01*
X124350499Y-83299998D01*
X124350498Y-83299981D01*
X124339999Y-83197203D01*
X124339998Y-83197200D01*
X124318288Y-83131684D01*
X124284814Y-83030666D01*
X124192712Y-82881344D01*
X124068656Y-82757288D01*
X123919334Y-82665186D01*
X123752797Y-82610001D01*
X123752795Y-82610000D01*
X123650010Y-82599500D01*
X121549998Y-82599500D01*
X121549981Y-82599501D01*
X121447203Y-82610000D01*
X121447200Y-82610001D01*
X121280668Y-82665185D01*
X121280659Y-82665189D01*
X121173900Y-82731039D01*
X121108804Y-82749500D01*
X120669336Y-82749500D01*
X120602297Y-82729815D01*
X120581655Y-82713181D01*
X120056154Y-82187680D01*
X120022669Y-82126357D01*
X120027653Y-82056665D01*
X120056152Y-82012320D01*
X121031655Y-81036819D01*
X121092978Y-81003334D01*
X121119336Y-81000500D01*
X122418422Y-81000500D01*
X122612826Y-80969709D01*
X122653267Y-80956568D01*
X122691585Y-80950500D01*
X122810686Y-80950500D01*
X122810694Y-80950500D01*
X122847569Y-80947598D01*
X122847571Y-80947597D01*
X122847573Y-80947597D01*
X122908778Y-80929815D01*
X123005398Y-80901744D01*
X123146865Y-80818081D01*
X123146870Y-80818075D01*
X123153031Y-80813298D01*
X123153534Y-80813947D01*
X123155741Y-80811003D01*
X123180444Y-80801803D01*
X123203579Y-80789155D01*
X123212674Y-80789800D01*
X123221218Y-80786619D01*
X123246978Y-80792236D01*
G37*
%TD.AperFunction*%
%TA.AperFunction,Conductor*%
G36*
X132398833Y-79457913D02*
G01*
X132454767Y-79499784D01*
X132479184Y-79565249D01*
X132479500Y-79574095D01*
X132479501Y-80100000D01*
X132479501Y-80100019D01*
X132490000Y-80202796D01*
X132490001Y-80202799D01*
X132537852Y-80347203D01*
X132545186Y-80369334D01*
X132637288Y-80518656D01*
X132761344Y-80642712D01*
X132910666Y-80734814D01*
X133077203Y-80789999D01*
X133179991Y-80800500D01*
X133230500Y-80800499D01*
X133297538Y-80820182D01*
X133343293Y-80872985D01*
X133354500Y-80924499D01*
X133354500Y-84943329D01*
X133354499Y-84943347D01*
X133354499Y-85109053D01*
X133354498Y-85109053D01*
X133366656Y-85154426D01*
X133392399Y-85250500D01*
X133395424Y-85261786D01*
X133406715Y-85281342D01*
X133406716Y-85281344D01*
X133474477Y-85398711D01*
X133474481Y-85398716D01*
X133593349Y-85517584D01*
X133593355Y-85517589D01*
X136388085Y-88312319D01*
X136421570Y-88373642D01*
X136416586Y-88443334D01*
X136388085Y-88487681D01*
X134212181Y-90663585D01*
X134150858Y-90697070D01*
X134081166Y-90692086D01*
X134025233Y-90650214D01*
X134000816Y-90584750D01*
X134000500Y-90575904D01*
X134000500Y-90299367D01*
X134020185Y-90232328D01*
X134039386Y-90211156D01*
X134038549Y-90210319D01*
X134101442Y-90147426D01*
X134167712Y-90081156D01*
X134259814Y-89931834D01*
X134314999Y-89765297D01*
X134325500Y-89662509D01*
X134325499Y-88662492D01*
X134324485Y-88652569D01*
X134314999Y-88559703D01*
X134314998Y-88559700D01*
X134303583Y-88525251D01*
X134259814Y-88393166D01*
X134167712Y-88243844D01*
X134043656Y-88119788D01*
X133894334Y-88027686D01*
X133727797Y-87972501D01*
X133727795Y-87972500D01*
X133625010Y-87962000D01*
X132999998Y-87962000D01*
X132999980Y-87962001D01*
X132897203Y-87972500D01*
X132897200Y-87972501D01*
X132730668Y-88027685D01*
X132730663Y-88027687D01*
X132581342Y-88119789D01*
X132487681Y-88213451D01*
X132426358Y-88246936D01*
X132356666Y-88241952D01*
X132312319Y-88213451D01*
X132218657Y-88119789D01*
X132218656Y-88119788D01*
X132069334Y-88027686D01*
X131902797Y-87972501D01*
X131902795Y-87972500D01*
X131800010Y-87962000D01*
X131174998Y-87962000D01*
X131174980Y-87962001D01*
X131072203Y-87972500D01*
X131072200Y-87972501D01*
X130905668Y-88027685D01*
X130905663Y-88027687D01*
X130756342Y-88119789D01*
X130632289Y-88243842D01*
X130540187Y-88393163D01*
X130540185Y-88393168D01*
X130512405Y-88477004D01*
X130498534Y-88497036D01*
X130488412Y-88519203D01*
X130478999Y-88525251D01*
X130472632Y-88534449D01*
X130450133Y-88543802D01*
X130429634Y-88556977D01*
X130412532Y-88559435D01*
X130408116Y-88561272D01*
X130394699Y-88562000D01*
X130324170Y-88562000D01*
X130324154Y-88561999D01*
X130316558Y-88561999D01*
X130158443Y-88561999D01*
X130082079Y-88582461D01*
X130005714Y-88602923D01*
X130005709Y-88602926D01*
X129868790Y-88681975D01*
X129868784Y-88681980D01*
X127785339Y-90765425D01*
X127768746Y-90774485D01*
X127755139Y-90787617D01*
X127725631Y-90798028D01*
X127724016Y-90798910D01*
X127721856Y-90799360D01*
X127715272Y-90800670D01*
X127645680Y-90794446D01*
X127590500Y-90751586D01*
X127567252Y-90685698D01*
X127583317Y-90617700D01*
X127603390Y-90591376D01*
X131484506Y-86710259D01*
X131484511Y-86710256D01*
X131494714Y-86700052D01*
X131494716Y-86700052D01*
X131606520Y-86588248D01*
X131669685Y-86478842D01*
X131685577Y-86451317D01*
X131726500Y-86298590D01*
X131726500Y-86140475D01*
X131726500Y-80079096D01*
X131746185Y-80012057D01*
X131762815Y-79991419D01*
X132267821Y-79486412D01*
X132329142Y-79452929D01*
X132398833Y-79457913D01*
G37*
%TD.AperFunction*%
%TA.AperFunction,Conductor*%
G36*
X132938783Y-73220185D02*
G01*
X132984538Y-73272989D01*
X132994482Y-73342147D01*
X132965457Y-73405703D01*
X132952282Y-73418785D01*
X132950532Y-73420279D01*
X132800276Y-73570535D01*
X132800272Y-73570540D01*
X132675379Y-73742442D01*
X132578904Y-73931782D01*
X132513242Y-74133870D01*
X132513242Y-74133873D01*
X132502769Y-74200000D01*
X133550854Y-74200000D01*
X133512370Y-74266657D01*
X133480000Y-74387465D01*
X133480000Y-74512535D01*
X133512370Y-74633343D01*
X133550854Y-74700000D01*
X132502769Y-74700000D01*
X132513242Y-74766126D01*
X132513242Y-74766129D01*
X132578904Y-74968217D01*
X132675379Y-75157557D01*
X132800272Y-75329459D01*
X132800276Y-75329464D01*
X132950535Y-75479723D01*
X132950540Y-75479727D01*
X133115218Y-75599372D01*
X133157884Y-75654701D01*
X133163863Y-75724315D01*
X133131258Y-75786110D01*
X133115218Y-75800008D01*
X132950214Y-75919890D01*
X132950209Y-75919894D01*
X132799890Y-76070213D01*
X132674951Y-76242179D01*
X132578444Y-76431585D01*
X132512753Y-76633760D01*
X132489917Y-76777943D01*
X132479500Y-76843713D01*
X132479500Y-77056287D01*
X132480741Y-77064122D01*
X132512753Y-77266240D01*
X132557146Y-77402868D01*
X132559141Y-77472709D01*
X132526896Y-77528867D01*
X130760598Y-79295165D01*
X130760591Y-79295172D01*
X130757286Y-79298478D01*
X130757284Y-79298480D01*
X130645480Y-79410284D01*
X130618172Y-79457584D01*
X130612378Y-79467618D01*
X130612378Y-79467619D01*
X130580998Y-79521971D01*
X130566423Y-79547215D01*
X130525499Y-79699943D01*
X130525499Y-79699945D01*
X130525499Y-79868046D01*
X130525500Y-79868059D01*
X130525500Y-80825500D01*
X130505815Y-80892539D01*
X130453011Y-80938294D01*
X130401500Y-80949500D01*
X130046230Y-80949500D01*
X129979191Y-80929815D01*
X129933436Y-80877011D01*
X129923492Y-80807853D01*
X129952517Y-80744297D01*
X129958549Y-80737819D01*
X129994503Y-80701865D01*
X130042712Y-80653656D01*
X130134814Y-80504334D01*
X130189999Y-80337797D01*
X130200500Y-80235009D01*
X130200499Y-79609992D01*
X130195928Y-79565249D01*
X130189999Y-79507203D01*
X130189998Y-79507200D01*
X130155332Y-79402586D01*
X130134814Y-79340666D01*
X130042712Y-79191344D01*
X129948695Y-79097327D01*
X129915210Y-79036004D01*
X129920194Y-78966312D01*
X129948695Y-78921964D01*
X130042317Y-78828342D01*
X130134356Y-78679124D01*
X130134358Y-78679119D01*
X130189505Y-78512697D01*
X130189506Y-78512690D01*
X130199999Y-78409986D01*
X130200000Y-78409973D01*
X130200000Y-78347500D01*
X127800001Y-78347500D01*
X127800001Y-78409986D01*
X127810494Y-78512697D01*
X127865641Y-78679119D01*
X127865643Y-78679124D01*
X127957684Y-78828345D01*
X128051304Y-78921965D01*
X128084789Y-78983288D01*
X128079805Y-79052980D01*
X128051305Y-79097327D01*
X127957287Y-79191345D01*
X127865187Y-79340663D01*
X127865186Y-79340666D01*
X127810001Y-79507203D01*
X127810001Y-79507204D01*
X127810000Y-79507204D01*
X127799500Y-79609983D01*
X127799500Y-80235001D01*
X127799501Y-80235019D01*
X127810000Y-80337796D01*
X127810001Y-80337799D01*
X127847175Y-80449981D01*
X127865186Y-80504334D01*
X127950536Y-80642710D01*
X127957289Y-80653657D01*
X127991451Y-80687819D01*
X128024936Y-80749142D01*
X128019952Y-80818834D01*
X127978080Y-80874767D01*
X127912616Y-80899184D01*
X127903770Y-80899500D01*
X127172895Y-80899500D01*
X127105856Y-80879815D01*
X127060101Y-80827011D01*
X127050157Y-80757853D01*
X127070671Y-80709503D01*
X127069110Y-80708580D01*
X127101591Y-80653657D01*
X127156744Y-80560398D01*
X127202598Y-80402569D01*
X127205500Y-80365694D01*
X127205500Y-78584306D01*
X127202598Y-78547431D01*
X127197726Y-78530663D01*
X127156745Y-78389606D01*
X127156744Y-78389603D01*
X127156744Y-78389602D01*
X127073081Y-78248135D01*
X127073079Y-78248133D01*
X127073076Y-78248129D01*
X126956870Y-78131923D01*
X126956862Y-78131917D01*
X126818360Y-78050008D01*
X126815398Y-78048256D01*
X126815397Y-78048255D01*
X126815396Y-78048255D01*
X126815393Y-78048254D01*
X126657573Y-78002402D01*
X126657567Y-78002401D01*
X126620701Y-77999500D01*
X126620694Y-77999500D01*
X126189306Y-77999500D01*
X126189298Y-77999500D01*
X126152432Y-78002401D01*
X126152426Y-78002402D01*
X125994606Y-78048254D01*
X125994603Y-78048255D01*
X125853137Y-78131917D01*
X125846969Y-78136702D01*
X125845072Y-78134256D01*
X125796358Y-78160857D01*
X125726666Y-78155873D01*
X125694296Y-78135069D01*
X125693031Y-78136702D01*
X125686862Y-78131917D01*
X125548360Y-78050008D01*
X125545398Y-78048256D01*
X125545397Y-78048255D01*
X125545396Y-78048255D01*
X125545393Y-78048254D01*
X125387573Y-78002402D01*
X125387567Y-78002401D01*
X125350701Y-77999500D01*
X125350694Y-77999500D01*
X124919306Y-77999500D01*
X124919298Y-77999500D01*
X124882432Y-78002401D01*
X124882426Y-78002402D01*
X124724606Y-78048254D01*
X124724603Y-78048255D01*
X124583137Y-78131917D01*
X124576969Y-78136702D01*
X124575072Y-78134256D01*
X124526358Y-78160857D01*
X124456666Y-78155873D01*
X124424296Y-78135069D01*
X124423031Y-78136702D01*
X124416862Y-78131917D01*
X124278360Y-78050008D01*
X124275398Y-78048256D01*
X124275397Y-78048255D01*
X124275396Y-78048255D01*
X124275393Y-78048254D01*
X124117573Y-78002402D01*
X124117567Y-78002401D01*
X124080701Y-77999500D01*
X124080694Y-77999500D01*
X123649306Y-77999500D01*
X123649298Y-77999500D01*
X123612432Y-78002401D01*
X123612426Y-78002402D01*
X123454606Y-78048254D01*
X123454603Y-78048255D01*
X123313137Y-78131917D01*
X123306969Y-78136702D01*
X123305072Y-78134256D01*
X123256358Y-78160857D01*
X123186666Y-78155873D01*
X123154296Y-78135069D01*
X123153031Y-78136702D01*
X123146862Y-78131917D01*
X123008360Y-78050008D01*
X123005398Y-78048256D01*
X123005397Y-78048255D01*
X123005396Y-78048255D01*
X123005393Y-78048254D01*
X122847573Y-78002402D01*
X122847567Y-78002401D01*
X122810701Y-77999500D01*
X122810694Y-77999500D01*
X122658316Y-77999500D01*
X122602021Y-77985985D01*
X122563030Y-77966117D01*
X122375827Y-77905291D01*
X122369803Y-77904337D01*
X122369802Y-77904336D01*
X122181422Y-77874500D01*
X122181417Y-77874500D01*
X121841060Y-77874500D01*
X121774021Y-77854815D01*
X121728266Y-77802011D01*
X121723132Y-77788827D01*
X121721893Y-77785013D01*
X127800000Y-77785013D01*
X127800000Y-77847500D01*
X128750000Y-77847500D01*
X129250000Y-77847500D01*
X130199999Y-77847500D01*
X130199999Y-77785028D01*
X130199998Y-77785013D01*
X130189505Y-77682302D01*
X130134358Y-77515880D01*
X130134356Y-77515875D01*
X130042315Y-77366654D01*
X129918345Y-77242684D01*
X129775033Y-77154289D01*
X129728309Y-77102341D01*
X129717086Y-77033378D01*
X129744930Y-76969296D01*
X129775033Y-76943211D01*
X129918345Y-76854815D01*
X130042315Y-76730845D01*
X130134356Y-76581624D01*
X130134358Y-76581619D01*
X130189505Y-76415197D01*
X130189506Y-76415190D01*
X130199999Y-76312486D01*
X130200000Y-76312473D01*
X130200000Y-76250000D01*
X129250000Y-76250000D01*
X129250000Y-77847500D01*
X128750000Y-77847500D01*
X128750000Y-76250000D01*
X127800001Y-76250000D01*
X127800001Y-76312486D01*
X127810494Y-76415197D01*
X127865641Y-76581619D01*
X127865643Y-76581624D01*
X127957684Y-76730845D01*
X128081654Y-76854815D01*
X128224966Y-76943211D01*
X128271690Y-76995159D01*
X128282913Y-77064122D01*
X128255069Y-77128204D01*
X128224966Y-77154289D01*
X128081654Y-77242684D01*
X127957684Y-77366654D01*
X127865643Y-77515875D01*
X127865641Y-77515880D01*
X127810494Y-77682302D01*
X127810493Y-77682309D01*
X127800000Y-77785013D01*
X121721893Y-77785013D01*
X121708884Y-77744975D01*
X121619524Y-77569595D01*
X121503828Y-77410354D01*
X121432493Y-77339019D01*
X121399008Y-77277696D01*
X121396816Y-77263939D01*
X121394645Y-77242684D01*
X121389999Y-77197203D01*
X121334814Y-77030666D01*
X121242712Y-76881344D01*
X121118656Y-76757288D01*
X121025888Y-76700069D01*
X120969336Y-76665187D01*
X120969331Y-76665185D01*
X120967862Y-76664698D01*
X120802797Y-76610001D01*
X120802795Y-76610000D01*
X120700016Y-76599500D01*
X120700009Y-76599500D01*
X120673446Y-76599500D01*
X120617151Y-76585985D01*
X120608582Y-76581619D01*
X120596077Y-76575247D01*
X120480030Y-76516117D01*
X120292826Y-76455290D01*
X120098422Y-76424500D01*
X120098417Y-76424500D01*
X119901583Y-76424500D01*
X119901578Y-76424500D01*
X119707172Y-76455291D01*
X119707169Y-76455291D01*
X119519975Y-76516115D01*
X119519974Y-76516115D01*
X119382845Y-76585985D01*
X119326555Y-76599500D01*
X119299999Y-76599500D01*
X119299981Y-76599501D01*
X119197202Y-76610001D01*
X119197200Y-76610001D01*
X119030668Y-76665185D01*
X119030663Y-76665187D01*
X118881342Y-76757289D01*
X118757289Y-76881342D01*
X118665187Y-77030663D01*
X118665185Y-77030668D01*
X118654100Y-77064122D01*
X118610001Y-77197203D01*
X118610001Y-77197204D01*
X118610000Y-77197204D01*
X118599500Y-77299983D01*
X118599500Y-78050001D01*
X118599501Y-78050019D01*
X118610000Y-78152796D01*
X118610001Y-78152799D01*
X118660455Y-78305058D01*
X118665186Y-78319334D01*
X118731039Y-78426099D01*
X118735735Y-78442657D01*
X118744477Y-78456260D01*
X118749500Y-78491195D01*
X118749500Y-78530663D01*
X118729815Y-78597702D01*
X118713181Y-78618344D01*
X117596174Y-79735350D01*
X117596171Y-79735353D01*
X117558649Y-79786998D01*
X117523429Y-79819649D01*
X117461161Y-79858057D01*
X117381342Y-79907289D01*
X117257289Y-80031342D01*
X117165187Y-80180663D01*
X117165186Y-80180666D01*
X117110001Y-80347203D01*
X117110001Y-80347204D01*
X117110000Y-80347204D01*
X117099500Y-80449983D01*
X117099500Y-82550001D01*
X117099501Y-82550018D01*
X117110000Y-82652796D01*
X117110001Y-82652799D01*
X117165185Y-82819331D01*
X117165187Y-82819336D01*
X117257289Y-82968657D01*
X117381344Y-83092712D01*
X117523429Y-83180350D01*
X117558649Y-83213001D01*
X117578264Y-83239998D01*
X117596171Y-83264645D01*
X118920805Y-84589279D01*
X118954290Y-84650602D01*
X118949306Y-84720294D01*
X118907434Y-84776227D01*
X118841970Y-84800644D01*
X118820526Y-84800318D01*
X118812528Y-84799501D01*
X118812512Y-84799500D01*
X118812509Y-84799500D01*
X118812503Y-84799500D01*
X118187498Y-84799500D01*
X118187480Y-84799501D01*
X118084703Y-84810000D01*
X118084700Y-84810001D01*
X117918168Y-84865185D01*
X117918163Y-84865187D01*
X117768845Y-84957287D01*
X117674827Y-85051305D01*
X117613503Y-85084789D01*
X117543812Y-85079805D01*
X117499465Y-85051304D01*
X117405845Y-84957684D01*
X117256624Y-84865643D01*
X117256619Y-84865641D01*
X117090197Y-84810494D01*
X117090190Y-84810493D01*
X116987486Y-84800000D01*
X116925000Y-84800000D01*
X116925000Y-86809447D01*
X116920775Y-86841540D01*
X116899499Y-86920943D01*
X116899499Y-87089046D01*
X116899500Y-87089059D01*
X116899500Y-87307491D01*
X116879815Y-87374530D01*
X116840598Y-87413029D01*
X116768844Y-87457287D01*
X116768843Y-87457288D01*
X116675181Y-87550951D01*
X116671259Y-87553092D01*
X116668850Y-87556855D01*
X116640869Y-87569686D01*
X116613858Y-87584436D01*
X116609401Y-87584117D01*
X116605340Y-87585980D01*
X116574869Y-87581647D01*
X116544166Y-87579452D01*
X116539345Y-87576597D01*
X116536166Y-87576145D01*
X116521977Y-87566310D01*
X116506444Y-87557110D01*
X116503023Y-87554155D01*
X116406156Y-87457288D01*
X116352717Y-87424327D01*
X116345205Y-87417838D01*
X116331432Y-87396481D01*
X116314439Y-87377588D01*
X116312815Y-87367611D01*
X116307339Y-87359119D01*
X116307298Y-87333706D01*
X116303218Y-87308626D01*
X116307244Y-87299357D01*
X116307229Y-87289250D01*
X116320935Y-87267849D01*
X116331061Y-87244544D01*
X116339460Y-87238923D01*
X116344911Y-87230413D01*
X116368010Y-87219819D01*
X116389130Y-87205688D01*
X116403692Y-87203456D01*
X116408421Y-87201288D01*
X116413308Y-87201982D01*
X116424772Y-87200226D01*
X116425000Y-87199998D01*
X116425000Y-86250000D01*
X115662501Y-86250000D01*
X115662501Y-86499986D01*
X115672994Y-86602697D01*
X115728141Y-86769119D01*
X115728143Y-86769124D01*
X115820184Y-86918345D01*
X115944154Y-87042315D01*
X115988975Y-87069961D01*
X116035699Y-87121909D01*
X116046922Y-87190872D01*
X116019078Y-87254954D01*
X115961010Y-87293810D01*
X115923878Y-87299500D01*
X115482940Y-87299500D01*
X115415901Y-87279815D01*
X115395259Y-87263181D01*
X115136819Y-87004741D01*
X115103334Y-86943418D01*
X115100500Y-86917060D01*
X115100500Y-85500013D01*
X115662500Y-85500013D01*
X115662500Y-85750000D01*
X116425000Y-85750000D01*
X116425000Y-84800000D01*
X116424999Y-84799999D01*
X116362528Y-84800000D01*
X116362511Y-84800001D01*
X116259802Y-84810494D01*
X116093380Y-84865641D01*
X116093375Y-84865643D01*
X115944154Y-84957684D01*
X115820184Y-85081654D01*
X115728143Y-85230875D01*
X115728141Y-85230880D01*
X115672994Y-85397302D01*
X115672993Y-85397309D01*
X115662500Y-85500013D01*
X115100500Y-85500013D01*
X115100500Y-83372642D01*
X115120185Y-83305603D01*
X115172989Y-83259848D01*
X115211897Y-83249284D01*
X115302797Y-83239999D01*
X115469334Y-83184814D01*
X115618656Y-83092712D01*
X115742712Y-82968656D01*
X115834814Y-82819334D01*
X115889999Y-82652797D01*
X115900500Y-82550009D01*
X115900499Y-80449992D01*
X115895654Y-80402567D01*
X115889999Y-80347203D01*
X115889998Y-80347200D01*
X115886881Y-80337795D01*
X115834814Y-80180666D01*
X115742712Y-80031344D01*
X115618656Y-79907288D01*
X115469334Y-79815186D01*
X115469332Y-79815185D01*
X115463187Y-79811395D01*
X115464290Y-79809605D01*
X115419649Y-79770290D01*
X115400500Y-79704091D01*
X115400500Y-78117003D01*
X115420185Y-78049964D01*
X115436814Y-78029327D01*
X118393351Y-75072789D01*
X118454674Y-75039305D01*
X118524366Y-75044289D01*
X118580299Y-75086161D01*
X118604390Y-75147870D01*
X118610000Y-75202796D01*
X118610001Y-75202799D01*
X118665185Y-75369331D01*
X118665187Y-75369336D01*
X118693744Y-75415634D01*
X118757288Y-75518656D01*
X118881344Y-75642712D01*
X119030666Y-75734814D01*
X119197203Y-75789999D01*
X119299991Y-75800500D01*
X120700008Y-75800499D01*
X120802797Y-75789999D01*
X120969334Y-75734814D01*
X120969334Y-75734813D01*
X120976190Y-75732542D01*
X120976795Y-75734368D01*
X121016798Y-75725500D01*
X121849191Y-75725500D01*
X121916230Y-75745185D01*
X121936872Y-75761819D01*
X122043129Y-75868076D01*
X122043133Y-75868079D01*
X122043135Y-75868081D01*
X122184602Y-75951744D01*
X122213353Y-75960097D01*
X122342426Y-75997597D01*
X122342429Y-75997597D01*
X122342431Y-75997598D01*
X122379306Y-76000500D01*
X122379314Y-76000500D01*
X122810686Y-76000500D01*
X122810694Y-76000500D01*
X122847569Y-75997598D01*
X122847571Y-75997597D01*
X122847573Y-75997597D01*
X122889191Y-75985505D01*
X123005398Y-75951744D01*
X123146865Y-75868081D01*
X123146870Y-75868075D01*
X123153031Y-75863298D01*
X123154933Y-75865750D01*
X123203579Y-75839155D01*
X123273274Y-75844104D01*
X123305695Y-75864940D01*
X123306969Y-75863298D01*
X123313132Y-75868078D01*
X123313135Y-75868081D01*
X123454602Y-75951744D01*
X123483353Y-75960097D01*
X123612426Y-75997597D01*
X123612429Y-75997597D01*
X123612431Y-75997598D01*
X123649306Y-76000500D01*
X123649314Y-76000500D01*
X124080686Y-76000500D01*
X124080694Y-76000500D01*
X124117569Y-75997598D01*
X124117571Y-75997597D01*
X124117573Y-75997597D01*
X124159191Y-75985505D01*
X124275398Y-75951744D01*
X124416865Y-75868081D01*
X124416870Y-75868075D01*
X124423031Y-75863298D01*
X124424933Y-75865750D01*
X124473579Y-75839155D01*
X124543274Y-75844104D01*
X124575695Y-75864940D01*
X124576969Y-75863298D01*
X124583132Y-75868078D01*
X124583135Y-75868081D01*
X124724602Y-75951744D01*
X124753353Y-75960097D01*
X124882426Y-75997597D01*
X124882429Y-75997597D01*
X124882431Y-75997598D01*
X124919306Y-76000500D01*
X124919314Y-76000500D01*
X125350686Y-76000500D01*
X125350694Y-76000500D01*
X125387569Y-75997598D01*
X125387571Y-75997597D01*
X125387573Y-75997597D01*
X125429191Y-75985505D01*
X125545398Y-75951744D01*
X125686865Y-75868081D01*
X125686870Y-75868076D01*
X125693026Y-75863301D01*
X125694839Y-75865638D01*
X125743949Y-75838798D01*
X125813643Y-75843756D01*
X125845996Y-75864551D01*
X125847278Y-75862900D01*
X125853447Y-75867685D01*
X125994801Y-75951281D01*
X126152514Y-75997100D01*
X126152511Y-75997100D01*
X126154998Y-75997295D01*
X126155000Y-75997295D01*
X126655000Y-75997295D01*
X126655001Y-75997295D01*
X126657486Y-75997100D01*
X126815198Y-75951281D01*
X126956552Y-75867685D01*
X126956561Y-75867678D01*
X127072678Y-75751561D01*
X127072685Y-75751552D01*
X127156282Y-75610196D01*
X127156283Y-75610193D01*
X127202099Y-75452495D01*
X127202100Y-75452489D01*
X127204999Y-75415649D01*
X127205000Y-75415634D01*
X127205000Y-74775000D01*
X126655000Y-74775000D01*
X126655000Y-75997295D01*
X126155000Y-75997295D01*
X126155000Y-74649000D01*
X126174685Y-74581961D01*
X126227489Y-74536206D01*
X126279000Y-74525000D01*
X126405000Y-74525000D01*
X126405000Y-74399000D01*
X126424685Y-74331961D01*
X126477489Y-74286206D01*
X126529000Y-74275000D01*
X127205000Y-74275000D01*
X127205000Y-73853597D01*
X127224685Y-73786558D01*
X127277489Y-73740803D01*
X127346647Y-73730859D01*
X127410203Y-73759884D01*
X127416681Y-73765916D01*
X127763181Y-74112416D01*
X127796666Y-74173739D01*
X127799500Y-74200097D01*
X127799500Y-74487500D01*
X127799501Y-74487519D01*
X127810000Y-74590296D01*
X127810001Y-74590299D01*
X127859042Y-74738294D01*
X127865186Y-74756834D01*
X127940051Y-74878211D01*
X127957289Y-74906157D01*
X128051304Y-75000172D01*
X128084789Y-75061495D01*
X128079805Y-75131187D01*
X128051305Y-75175534D01*
X127957682Y-75269157D01*
X127865643Y-75418375D01*
X127865641Y-75418380D01*
X127810494Y-75584802D01*
X127810493Y-75584809D01*
X127800000Y-75687513D01*
X127800000Y-75750000D01*
X130199999Y-75750000D01*
X130199999Y-75687528D01*
X130199998Y-75687513D01*
X130189505Y-75584802D01*
X130134358Y-75418380D01*
X130134356Y-75418375D01*
X130042315Y-75269154D01*
X129948695Y-75175534D01*
X129915210Y-75114211D01*
X129920194Y-75044519D01*
X129948691Y-75000176D01*
X130042712Y-74906156D01*
X130134814Y-74756834D01*
X130189999Y-74590297D01*
X130200500Y-74487509D01*
X130200499Y-73862492D01*
X130199590Y-73853597D01*
X130189999Y-73759703D01*
X130189998Y-73759700D01*
X130161844Y-73674738D01*
X130134814Y-73593166D01*
X130042712Y-73443844D01*
X130011049Y-73412181D01*
X129977564Y-73350858D01*
X129982548Y-73281166D01*
X130024420Y-73225233D01*
X130089884Y-73200816D01*
X130098730Y-73200500D01*
X132871744Y-73200500D01*
X132938783Y-73220185D01*
G37*
%TD.AperFunction*%
%TA.AperFunction,Conductor*%
G36*
X112994205Y-70002939D02*
G01*
X113001825Y-70001906D01*
X113023505Y-70008460D01*
X113023810Y-70007542D01*
X113030665Y-70009813D01*
X113030666Y-70009814D01*
X113197203Y-70064999D01*
X113299991Y-70075500D01*
X114700008Y-70075499D01*
X114802797Y-70064999D01*
X114969334Y-70009814D01*
X114969334Y-70009813D01*
X114976190Y-70007542D01*
X114976795Y-70009368D01*
X115016798Y-70000500D01*
X115983202Y-70000500D01*
X116023204Y-70009368D01*
X116023810Y-70007542D01*
X116030665Y-70009813D01*
X116030666Y-70009814D01*
X116197203Y-70064999D01*
X116299991Y-70075500D01*
X117700008Y-70075499D01*
X117802797Y-70064999D01*
X117969334Y-70009814D01*
X117969334Y-70009813D01*
X117976190Y-70007542D01*
X117976634Y-70008883D01*
X117981863Y-70005523D01*
X118016798Y-70000500D01*
X118034218Y-70000500D01*
X118101257Y-70020185D01*
X118121899Y-70036819D01*
X118463181Y-70378101D01*
X118496666Y-70439424D01*
X118499500Y-70465782D01*
X118499500Y-71136377D01*
X118479815Y-71203416D01*
X118427011Y-71249171D01*
X118357853Y-71259115D01*
X118294297Y-71230090D01*
X118269962Y-71201475D01*
X118242317Y-71156656D01*
X118118345Y-71032684D01*
X117969124Y-70940643D01*
X117969119Y-70940641D01*
X117802697Y-70885494D01*
X117802690Y-70885493D01*
X117699986Y-70875000D01*
X117250000Y-70875000D01*
X117250000Y-73024999D01*
X117311940Y-73024999D01*
X117378979Y-73044684D01*
X117424734Y-73097488D01*
X117434678Y-73166646D01*
X117405653Y-73230202D01*
X117399621Y-73236680D01*
X116123766Y-74512535D01*
X113762221Y-76874080D01*
X113762218Y-76874083D01*
X113693090Y-76943211D01*
X113622859Y-77013441D01*
X113513371Y-77177301D01*
X113513364Y-77177314D01*
X113437950Y-77359382D01*
X113437947Y-77359392D01*
X113399500Y-77552678D01*
X113399500Y-79765201D01*
X113379815Y-79832240D01*
X113340598Y-79870739D01*
X113281344Y-79907287D01*
X113157289Y-80031342D01*
X113065187Y-80180663D01*
X113065186Y-80180666D01*
X113010001Y-80347203D01*
X113010001Y-80347204D01*
X113010000Y-80347204D01*
X112999500Y-80449983D01*
X112999500Y-82550001D01*
X112999501Y-82550018D01*
X113010000Y-82652796D01*
X113010001Y-82652799D01*
X113021396Y-82687185D01*
X113065186Y-82819334D01*
X113157288Y-82968656D01*
X113281344Y-83092712D01*
X113430666Y-83184814D01*
X113430667Y-83184814D01*
X113436813Y-83188605D01*
X113435706Y-83190399D01*
X113480337Y-83229687D01*
X113499500Y-83295908D01*
X113499500Y-87200845D01*
X113479815Y-87267884D01*
X113427011Y-87313639D01*
X113357853Y-87323583D01*
X113294297Y-87294558D01*
X113287819Y-87288526D01*
X112477819Y-86478526D01*
X112444334Y-86417203D01*
X112441500Y-86390845D01*
X112441500Y-81845059D01*
X112441501Y-81845046D01*
X112441501Y-81676945D01*
X112441501Y-81676943D01*
X112400577Y-81524215D01*
X112400575Y-81524211D01*
X112369944Y-81471156D01*
X112369944Y-81471157D01*
X112321522Y-81387287D01*
X112321521Y-81387286D01*
X112321520Y-81387284D01*
X112209716Y-81275480D01*
X112209715Y-81275479D01*
X112205385Y-81271149D01*
X112205374Y-81271139D01*
X112006252Y-81072017D01*
X111972767Y-81010694D01*
X111974717Y-80950224D01*
X111974924Y-80949500D01*
X112029886Y-80757418D01*
X112040500Y-80638037D01*
X112040499Y-79521964D01*
X112029886Y-79402582D01*
X111973909Y-79206951D01*
X111879698Y-79026593D01*
X111766983Y-78888359D01*
X111739875Y-78823965D01*
X111751884Y-78755135D01*
X111766981Y-78731642D01*
X111879698Y-78593407D01*
X111973909Y-78413049D01*
X112029886Y-78217418D01*
X112040500Y-78098037D01*
X112040499Y-76981964D01*
X112029886Y-76862582D01*
X111973909Y-76666951D01*
X111879698Y-76486593D01*
X111766983Y-76348359D01*
X111739875Y-76283965D01*
X111751884Y-76215135D01*
X111766981Y-76191642D01*
X111879698Y-76053407D01*
X111973909Y-75873049D01*
X112029886Y-75677418D01*
X112040500Y-75558037D01*
X112040499Y-74441964D01*
X112029886Y-74322582D01*
X111973909Y-74126951D01*
X111879698Y-73946593D01*
X111766661Y-73807964D01*
X111739552Y-73743568D01*
X111751561Y-73674738D01*
X111766662Y-73651241D01*
X111879278Y-73513130D01*
X111973442Y-73332861D01*
X112029390Y-73137328D01*
X112029391Y-73137325D01*
X112039999Y-73018000D01*
X112040000Y-73017998D01*
X112040000Y-72324986D01*
X112600001Y-72324986D01*
X112610494Y-72427697D01*
X112665641Y-72594119D01*
X112665643Y-72594124D01*
X112757684Y-72743345D01*
X112881654Y-72867315D01*
X113030875Y-72959356D01*
X113030880Y-72959358D01*
X113197302Y-73014505D01*
X113197309Y-73014506D01*
X113300019Y-73024999D01*
X113749999Y-73024999D01*
X114250000Y-73024999D01*
X114699972Y-73024999D01*
X114699986Y-73024998D01*
X114802697Y-73014505D01*
X114969119Y-72959358D01*
X114969124Y-72959356D01*
X115118345Y-72867315D01*
X115242315Y-72743345D01*
X115334356Y-72594124D01*
X115334359Y-72594117D01*
X115382293Y-72449461D01*
X115422065Y-72392016D01*
X115486581Y-72365192D01*
X115555357Y-72377507D01*
X115606557Y-72425049D01*
X115617705Y-72449459D01*
X115665642Y-72594121D01*
X115665643Y-72594124D01*
X115757684Y-72743345D01*
X115881654Y-72867315D01*
X116030875Y-72959356D01*
X116030880Y-72959358D01*
X116197302Y-73014505D01*
X116197309Y-73014506D01*
X116300019Y-73024999D01*
X116749999Y-73024999D01*
X116750000Y-73024998D01*
X116750000Y-72200000D01*
X115600000Y-72200000D01*
X115587680Y-72212320D01*
X115526357Y-72245804D01*
X115456665Y-72240819D01*
X115412319Y-72212319D01*
X115400000Y-72200000D01*
X114250000Y-72200000D01*
X114250000Y-73024999D01*
X113749999Y-73024999D01*
X113750000Y-73024998D01*
X113750000Y-72200000D01*
X112600001Y-72200000D01*
X112600001Y-72324986D01*
X112040000Y-72324986D01*
X112040000Y-71902002D01*
X112039999Y-71901999D01*
X112029391Y-71782674D01*
X111978832Y-71605976D01*
X111978832Y-71605974D01*
X111973443Y-71587139D01*
X111967109Y-71575013D01*
X112600000Y-71575013D01*
X112600000Y-71700000D01*
X113750000Y-71700000D01*
X114250000Y-71700000D01*
X115399998Y-71700000D01*
X115412317Y-71687681D01*
X115473640Y-71654195D01*
X115543331Y-71659179D01*
X115587680Y-71687680D01*
X115600000Y-71700000D01*
X116750000Y-71700000D01*
X116750000Y-70875000D01*
X116300028Y-70875000D01*
X116300012Y-70875001D01*
X116197302Y-70885494D01*
X116030880Y-70940641D01*
X116030875Y-70940643D01*
X115881654Y-71032684D01*
X115757684Y-71156654D01*
X115665643Y-71305875D01*
X115665641Y-71305880D01*
X115617706Y-71450539D01*
X115577933Y-71507984D01*
X115513417Y-71534807D01*
X115444641Y-71522492D01*
X115393442Y-71474949D01*
X115382294Y-71450539D01*
X115334358Y-71305880D01*
X115334356Y-71305875D01*
X115242315Y-71156654D01*
X115118345Y-71032684D01*
X114969124Y-70940643D01*
X114969119Y-70940641D01*
X114802697Y-70885494D01*
X114802690Y-70885493D01*
X114699986Y-70875000D01*
X114250000Y-70875000D01*
X114250000Y-71700000D01*
X113750000Y-71700000D01*
X113750000Y-70875000D01*
X113300028Y-70875000D01*
X113300012Y-70875001D01*
X113197302Y-70885494D01*
X113030880Y-70940641D01*
X113030875Y-70940643D01*
X112881654Y-71032684D01*
X112757684Y-71156654D01*
X112665643Y-71305875D01*
X112665641Y-71305880D01*
X112610494Y-71472302D01*
X112610493Y-71472309D01*
X112600000Y-71575013D01*
X111967109Y-71575013D01*
X111879278Y-71406870D01*
X111766661Y-71268757D01*
X111739552Y-71204361D01*
X111751561Y-71135531D01*
X111766658Y-71112039D01*
X111879698Y-70973407D01*
X111973909Y-70793049D01*
X112029886Y-70597418D01*
X112040500Y-70478037D01*
X112040499Y-70425781D01*
X112060182Y-70358743D01*
X112076808Y-70338110D01*
X112378103Y-70036817D01*
X112439426Y-70003334D01*
X112465783Y-70000500D01*
X112983202Y-70000500D01*
X112994205Y-70002939D01*
G37*
%TD.AperFunction*%
%TD*%
M02*
