%TF.GenerationSoftware,KiCad,Pcbnew,9.0.8-9.0.8~ubuntu24.04.1*%
%TF.CreationDate,2026-05-07T18:38:22+02:00*%
%TF.ProjectId,acw02_zb-v1.2,61637730-325f-47a6-922d-76312e322e6b,rev?*%
%TF.SameCoordinates,Original*%
%TF.FileFunction,Legend,Top*%
%TF.FilePolarity,Positive*%
%FSLAX46Y46*%
G04 Gerber Fmt 4.6, Leading zero omitted, Abs format (unit mm)*
G04 Created by KiCad (PCBNEW 9.0.8-9.0.8~ubuntu24.04.1) date 2026-05-07 18:38:22*
%MOMM*%
%LPD*%
G01*
G04 APERTURE LIST*
G04 Aperture macros list*
%AMRoundRect*
0 Rectangle with rounded corners*
0 $1 Rounding radius*
0 $2 $3 $4 $5 $6 $7 $8 $9 X,Y pos of 4 corners*
0 Add a 4 corners polygon primitive as box body*
4,1,4,$2,$3,$4,$5,$6,$7,$8,$9,$2,$3,0*
0 Add four circle primitives for the rounded corners*
1,1,$1+$1,$2,$3*
1,1,$1+$1,$4,$5*
1,1,$1+$1,$6,$7*
1,1,$1+$1,$8,$9*
0 Add four rect primitives between the rounded corners*
20,1,$1+$1,$2,$3,$4,$5,0*
20,1,$1+$1,$4,$5,$6,$7,0*
20,1,$1+$1,$6,$7,$8,$9,0*
20,1,$1+$1,$8,$9,$2,$3,0*%
G04 Aperture macros list end*
%ADD10C,0.150000*%
%ADD11C,0.120000*%
%ADD12C,0.100000*%
%ADD13C,0.127000*%
%ADD14C,0.504000*%
%ADD15RoundRect,0.250000X-1.000000X-0.650000X1.000000X-0.650000X1.000000X0.650000X-1.000000X0.650000X0*%
%ADD16RoundRect,0.250000X0.450000X-0.262500X0.450000X0.262500X-0.450000X0.262500X-0.450000X-0.262500X0*%
%ADD17RoundRect,0.250000X0.262500X0.450000X-0.262500X0.450000X-0.262500X-0.450000X0.262500X-0.450000X0*%
%ADD18RoundRect,0.250000X0.475000X-0.250000X0.475000X0.250000X-0.475000X0.250000X-0.475000X-0.250000X0*%
%ADD19RoundRect,0.250000X-0.650000X0.325000X-0.650000X-0.325000X0.650000X-0.325000X0.650000X0.325000X0*%
%ADD20RoundRect,0.250000X0.700000X1.000000X-0.700000X1.000000X-0.700000X-1.000000X0.700000X-1.000000X0*%
%ADD21RoundRect,0.150000X-0.150000X0.587500X-0.150000X-0.587500X0.150000X-0.587500X0.150000X0.587500X0*%
%ADD22RoundRect,0.250000X0.650000X-0.325000X0.650000X0.325000X-0.650000X0.325000X-0.650000X-0.325000X0*%
%ADD23RoundRect,0.150000X-0.625000X0.150000X-0.625000X-0.150000X0.625000X-0.150000X0.625000X0.150000X0*%
%ADD24RoundRect,0.250000X-0.650000X0.350000X-0.650000X-0.350000X0.650000X-0.350000X0.650000X0.350000X0*%
%ADD25RoundRect,0.150000X0.150000X-0.825000X0.150000X0.825000X-0.150000X0.825000X-0.150000X-0.825000X0*%
%ADD26R,3.000000X2.290000*%
%ADD27RoundRect,0.250000X-0.450000X0.262500X-0.450000X-0.262500X0.450000X-0.262500X0.450000X0.262500X0*%
%ADD28RoundRect,0.250000X-0.262500X-0.450000X0.262500X-0.450000X0.262500X0.450000X-0.262500X0.450000X0*%
%ADD29RoundRect,0.250000X0.725000X-0.600000X0.725000X0.600000X-0.725000X0.600000X-0.725000X-0.600000X0*%
%ADD30O,1.950000X1.700000*%
%ADD31RoundRect,0.525400X-0.900400X-0.525400X0.900400X-0.525400X0.900400X0.525400X-0.900400X0.525400X0*%
%ADD32RoundRect,0.300400X-0.300400X1.000400X-0.300400X-1.000400X0.300400X-1.000400X0.300400X1.000400X0*%
%ADD33C,1.700000*%
G04 APERTURE END LIST*
D10*
X130560588Y-73917438D02*
X130465350Y-73869819D01*
X130465350Y-73869819D02*
X130322493Y-73869819D01*
X130322493Y-73869819D02*
X130179636Y-73917438D01*
X130179636Y-73917438D02*
X130084398Y-74012676D01*
X130084398Y-74012676D02*
X130036779Y-74107914D01*
X130036779Y-74107914D02*
X129989160Y-74298390D01*
X129989160Y-74298390D02*
X129989160Y-74441247D01*
X129989160Y-74441247D02*
X130036779Y-74631723D01*
X130036779Y-74631723D02*
X130084398Y-74726961D01*
X130084398Y-74726961D02*
X130179636Y-74822200D01*
X130179636Y-74822200D02*
X130322493Y-74869819D01*
X130322493Y-74869819D02*
X130417731Y-74869819D01*
X130417731Y-74869819D02*
X130560588Y-74822200D01*
X130560588Y-74822200D02*
X130608207Y-74774580D01*
X130608207Y-74774580D02*
X130608207Y-74441247D01*
X130608207Y-74441247D02*
X130417731Y-74441247D01*
X131036779Y-74869819D02*
X131036779Y-73869819D01*
X131036779Y-73869819D02*
X131608207Y-74869819D01*
X131608207Y-74869819D02*
X131608207Y-73869819D01*
X132084398Y-74869819D02*
X132084398Y-73869819D01*
X132084398Y-73869819D02*
X132322493Y-73869819D01*
X132322493Y-73869819D02*
X132465350Y-73917438D01*
X132465350Y-73917438D02*
X132560588Y-74012676D01*
X132560588Y-74012676D02*
X132608207Y-74107914D01*
X132608207Y-74107914D02*
X132655826Y-74298390D01*
X132655826Y-74298390D02*
X132655826Y-74441247D01*
X132655826Y-74441247D02*
X132608207Y-74631723D01*
X132608207Y-74631723D02*
X132560588Y-74726961D01*
X132560588Y-74726961D02*
X132465350Y-74822200D01*
X132465350Y-74822200D02*
X132322493Y-74869819D01*
X132322493Y-74869819D02*
X132084398Y-74869819D01*
X129928922Y-71369819D02*
X130262255Y-72369819D01*
X130262255Y-72369819D02*
X130595588Y-71369819D01*
X131500350Y-72274580D02*
X131452731Y-72322200D01*
X131452731Y-72322200D02*
X131309874Y-72369819D01*
X131309874Y-72369819D02*
X131214636Y-72369819D01*
X131214636Y-72369819D02*
X131071779Y-72322200D01*
X131071779Y-72322200D02*
X130976541Y-72226961D01*
X130976541Y-72226961D02*
X130928922Y-72131723D01*
X130928922Y-72131723D02*
X130881303Y-71941247D01*
X130881303Y-71941247D02*
X130881303Y-71798390D01*
X130881303Y-71798390D02*
X130928922Y-71607914D01*
X130928922Y-71607914D02*
X130976541Y-71512676D01*
X130976541Y-71512676D02*
X131071779Y-71417438D01*
X131071779Y-71417438D02*
X131214636Y-71369819D01*
X131214636Y-71369819D02*
X131309874Y-71369819D01*
X131309874Y-71369819D02*
X131452731Y-71417438D01*
X131452731Y-71417438D02*
X131500350Y-71465057D01*
X132500350Y-72274580D02*
X132452731Y-72322200D01*
X132452731Y-72322200D02*
X132309874Y-72369819D01*
X132309874Y-72369819D02*
X132214636Y-72369819D01*
X132214636Y-72369819D02*
X132071779Y-72322200D01*
X132071779Y-72322200D02*
X131976541Y-72226961D01*
X131976541Y-72226961D02*
X131928922Y-72131723D01*
X131928922Y-72131723D02*
X131881303Y-71941247D01*
X131881303Y-71941247D02*
X131881303Y-71798390D01*
X131881303Y-71798390D02*
X131928922Y-71607914D01*
X131928922Y-71607914D02*
X131976541Y-71512676D01*
X131976541Y-71512676D02*
X132071779Y-71417438D01*
X132071779Y-71417438D02*
X132214636Y-71369819D01*
X132214636Y-71369819D02*
X132309874Y-71369819D01*
X132309874Y-71369819D02*
X132452731Y-71417438D01*
X132452731Y-71417438D02*
X132500350Y-71465057D01*
X130908207Y-77269819D02*
X130574874Y-76793628D01*
X130336779Y-77269819D02*
X130336779Y-76269819D01*
X130336779Y-76269819D02*
X130717731Y-76269819D01*
X130717731Y-76269819D02*
X130812969Y-76317438D01*
X130812969Y-76317438D02*
X130860588Y-76365057D01*
X130860588Y-76365057D02*
X130908207Y-76460295D01*
X130908207Y-76460295D02*
X130908207Y-76603152D01*
X130908207Y-76603152D02*
X130860588Y-76698390D01*
X130860588Y-76698390D02*
X130812969Y-76746009D01*
X130812969Y-76746009D02*
X130717731Y-76793628D01*
X130717731Y-76793628D02*
X130336779Y-76793628D01*
X131241541Y-76269819D02*
X131908207Y-77269819D01*
X131908207Y-76269819D02*
X131241541Y-77269819D01*
X130293922Y-78869819D02*
X130865350Y-78869819D01*
X130579636Y-79869819D02*
X130579636Y-78869819D01*
X131103446Y-78869819D02*
X131770112Y-79869819D01*
X131770112Y-78869819D02*
X131103446Y-79869819D01*
X93838095Y-89369819D02*
X93266667Y-89369819D01*
X93552381Y-89369819D02*
X93552381Y-88369819D01*
X93552381Y-88369819D02*
X93457143Y-88512676D01*
X93457143Y-88512676D02*
X93361905Y-88607914D01*
X93361905Y-88607914D02*
X93266667Y-88655533D01*
X94457143Y-88369819D02*
X94552381Y-88369819D01*
X94552381Y-88369819D02*
X94647619Y-88417438D01*
X94647619Y-88417438D02*
X94695238Y-88465057D01*
X94695238Y-88465057D02*
X94742857Y-88560295D01*
X94742857Y-88560295D02*
X94790476Y-88750771D01*
X94790476Y-88750771D02*
X94790476Y-88988866D01*
X94790476Y-88988866D02*
X94742857Y-89179342D01*
X94742857Y-89179342D02*
X94695238Y-89274580D01*
X94695238Y-89274580D02*
X94647619Y-89322200D01*
X94647619Y-89322200D02*
X94552381Y-89369819D01*
X94552381Y-89369819D02*
X94457143Y-89369819D01*
X94457143Y-89369819D02*
X94361905Y-89322200D01*
X94361905Y-89322200D02*
X94314286Y-89274580D01*
X94314286Y-89274580D02*
X94266667Y-89179342D01*
X94266667Y-89179342D02*
X94219048Y-88988866D01*
X94219048Y-88988866D02*
X94219048Y-88750771D01*
X94219048Y-88750771D02*
X94266667Y-88560295D01*
X94266667Y-88560295D02*
X94314286Y-88465057D01*
X94314286Y-88465057D02*
X94361905Y-88417438D01*
X94361905Y-88417438D02*
X94457143Y-88369819D01*
X95219048Y-89369819D02*
X95219048Y-88369819D01*
X95790476Y-89369819D02*
X95361905Y-88798390D01*
X95790476Y-88369819D02*
X95219048Y-88941247D01*
X96171429Y-89369819D02*
X96409524Y-89369819D01*
X96409524Y-89369819D02*
X96409524Y-89179342D01*
X96409524Y-89179342D02*
X96314286Y-89131723D01*
X96314286Y-89131723D02*
X96219048Y-89036485D01*
X96219048Y-89036485D02*
X96171429Y-88893628D01*
X96171429Y-88893628D02*
X96171429Y-88655533D01*
X96171429Y-88655533D02*
X96219048Y-88512676D01*
X96219048Y-88512676D02*
X96314286Y-88417438D01*
X96314286Y-88417438D02*
X96457143Y-88369819D01*
X96457143Y-88369819D02*
X96647619Y-88369819D01*
X96647619Y-88369819D02*
X96790476Y-88417438D01*
X96790476Y-88417438D02*
X96885714Y-88512676D01*
X96885714Y-88512676D02*
X96933333Y-88655533D01*
X96933333Y-88655533D02*
X96933333Y-88893628D01*
X96933333Y-88893628D02*
X96885714Y-89036485D01*
X96885714Y-89036485D02*
X96790476Y-89131723D01*
X96790476Y-89131723D02*
X96695238Y-89179342D01*
X96695238Y-89179342D02*
X96695238Y-89369819D01*
X96695238Y-89369819D02*
X96933333Y-89369819D01*
X98338095Y-94369819D02*
X97766667Y-94369819D01*
X98052381Y-94369819D02*
X98052381Y-93369819D01*
X98052381Y-93369819D02*
X97957143Y-93512676D01*
X97957143Y-93512676D02*
X97861905Y-93607914D01*
X97861905Y-93607914D02*
X97766667Y-93655533D01*
X98957143Y-93369819D02*
X99052381Y-93369819D01*
X99052381Y-93369819D02*
X99147619Y-93417438D01*
X99147619Y-93417438D02*
X99195238Y-93465057D01*
X99195238Y-93465057D02*
X99242857Y-93560295D01*
X99242857Y-93560295D02*
X99290476Y-93750771D01*
X99290476Y-93750771D02*
X99290476Y-93988866D01*
X99290476Y-93988866D02*
X99242857Y-94179342D01*
X99242857Y-94179342D02*
X99195238Y-94274580D01*
X99195238Y-94274580D02*
X99147619Y-94322200D01*
X99147619Y-94322200D02*
X99052381Y-94369819D01*
X99052381Y-94369819D02*
X98957143Y-94369819D01*
X98957143Y-94369819D02*
X98861905Y-94322200D01*
X98861905Y-94322200D02*
X98814286Y-94274580D01*
X98814286Y-94274580D02*
X98766667Y-94179342D01*
X98766667Y-94179342D02*
X98719048Y-93988866D01*
X98719048Y-93988866D02*
X98719048Y-93750771D01*
X98719048Y-93750771D02*
X98766667Y-93560295D01*
X98766667Y-93560295D02*
X98814286Y-93465057D01*
X98814286Y-93465057D02*
X98861905Y-93417438D01*
X98861905Y-93417438D02*
X98957143Y-93369819D01*
X99719048Y-94369819D02*
X99719048Y-93369819D01*
X100290476Y-94369819D02*
X99861905Y-93798390D01*
X100290476Y-93369819D02*
X99719048Y-93941247D01*
X100671429Y-94369819D02*
X100909524Y-94369819D01*
X100909524Y-94369819D02*
X100909524Y-94179342D01*
X100909524Y-94179342D02*
X100814286Y-94131723D01*
X100814286Y-94131723D02*
X100719048Y-94036485D01*
X100719048Y-94036485D02*
X100671429Y-93893628D01*
X100671429Y-93893628D02*
X100671429Y-93655533D01*
X100671429Y-93655533D02*
X100719048Y-93512676D01*
X100719048Y-93512676D02*
X100814286Y-93417438D01*
X100814286Y-93417438D02*
X100957143Y-93369819D01*
X100957143Y-93369819D02*
X101147619Y-93369819D01*
X101147619Y-93369819D02*
X101290476Y-93417438D01*
X101290476Y-93417438D02*
X101385714Y-93512676D01*
X101385714Y-93512676D02*
X101433333Y-93655533D01*
X101433333Y-93655533D02*
X101433333Y-93893628D01*
X101433333Y-93893628D02*
X101385714Y-94036485D01*
X101385714Y-94036485D02*
X101290476Y-94131723D01*
X101290476Y-94131723D02*
X101195238Y-94179342D01*
X101195238Y-94179342D02*
X101195238Y-94369819D01*
X101195238Y-94369819D02*
X101433333Y-94369819D01*
X105238095Y-89369819D02*
X104666667Y-89369819D01*
X104952381Y-89369819D02*
X104952381Y-88369819D01*
X104952381Y-88369819D02*
X104857143Y-88512676D01*
X104857143Y-88512676D02*
X104761905Y-88607914D01*
X104761905Y-88607914D02*
X104666667Y-88655533D01*
X105857143Y-88369819D02*
X105952381Y-88369819D01*
X105952381Y-88369819D02*
X106047619Y-88417438D01*
X106047619Y-88417438D02*
X106095238Y-88465057D01*
X106095238Y-88465057D02*
X106142857Y-88560295D01*
X106142857Y-88560295D02*
X106190476Y-88750771D01*
X106190476Y-88750771D02*
X106190476Y-88988866D01*
X106190476Y-88988866D02*
X106142857Y-89179342D01*
X106142857Y-89179342D02*
X106095238Y-89274580D01*
X106095238Y-89274580D02*
X106047619Y-89322200D01*
X106047619Y-89322200D02*
X105952381Y-89369819D01*
X105952381Y-89369819D02*
X105857143Y-89369819D01*
X105857143Y-89369819D02*
X105761905Y-89322200D01*
X105761905Y-89322200D02*
X105714286Y-89274580D01*
X105714286Y-89274580D02*
X105666667Y-89179342D01*
X105666667Y-89179342D02*
X105619048Y-88988866D01*
X105619048Y-88988866D02*
X105619048Y-88750771D01*
X105619048Y-88750771D02*
X105666667Y-88560295D01*
X105666667Y-88560295D02*
X105714286Y-88465057D01*
X105714286Y-88465057D02*
X105761905Y-88417438D01*
X105761905Y-88417438D02*
X105857143Y-88369819D01*
X106619048Y-89369819D02*
X106619048Y-88369819D01*
X107190476Y-89369819D02*
X106761905Y-88798390D01*
X107190476Y-88369819D02*
X106619048Y-88941247D01*
X107571429Y-89369819D02*
X107809524Y-89369819D01*
X107809524Y-89369819D02*
X107809524Y-89179342D01*
X107809524Y-89179342D02*
X107714286Y-89131723D01*
X107714286Y-89131723D02*
X107619048Y-89036485D01*
X107619048Y-89036485D02*
X107571429Y-88893628D01*
X107571429Y-88893628D02*
X107571429Y-88655533D01*
X107571429Y-88655533D02*
X107619048Y-88512676D01*
X107619048Y-88512676D02*
X107714286Y-88417438D01*
X107714286Y-88417438D02*
X107857143Y-88369819D01*
X107857143Y-88369819D02*
X108047619Y-88369819D01*
X108047619Y-88369819D02*
X108190476Y-88417438D01*
X108190476Y-88417438D02*
X108285714Y-88512676D01*
X108285714Y-88512676D02*
X108333333Y-88655533D01*
X108333333Y-88655533D02*
X108333333Y-88893628D01*
X108333333Y-88893628D02*
X108285714Y-89036485D01*
X108285714Y-89036485D02*
X108190476Y-89131723D01*
X108190476Y-89131723D02*
X108095238Y-89179342D01*
X108095238Y-89179342D02*
X108095238Y-89369819D01*
X108095238Y-89369819D02*
X108333333Y-89369819D01*
X108338095Y-94469819D02*
X107766667Y-94469819D01*
X108052381Y-94469819D02*
X108052381Y-93469819D01*
X108052381Y-93469819D02*
X107957143Y-93612676D01*
X107957143Y-93612676D02*
X107861905Y-93707914D01*
X107861905Y-93707914D02*
X107766667Y-93755533D01*
X108957143Y-93469819D02*
X109052381Y-93469819D01*
X109052381Y-93469819D02*
X109147619Y-93517438D01*
X109147619Y-93517438D02*
X109195238Y-93565057D01*
X109195238Y-93565057D02*
X109242857Y-93660295D01*
X109242857Y-93660295D02*
X109290476Y-93850771D01*
X109290476Y-93850771D02*
X109290476Y-94088866D01*
X109290476Y-94088866D02*
X109242857Y-94279342D01*
X109242857Y-94279342D02*
X109195238Y-94374580D01*
X109195238Y-94374580D02*
X109147619Y-94422200D01*
X109147619Y-94422200D02*
X109052381Y-94469819D01*
X109052381Y-94469819D02*
X108957143Y-94469819D01*
X108957143Y-94469819D02*
X108861905Y-94422200D01*
X108861905Y-94422200D02*
X108814286Y-94374580D01*
X108814286Y-94374580D02*
X108766667Y-94279342D01*
X108766667Y-94279342D02*
X108719048Y-94088866D01*
X108719048Y-94088866D02*
X108719048Y-93850771D01*
X108719048Y-93850771D02*
X108766667Y-93660295D01*
X108766667Y-93660295D02*
X108814286Y-93565057D01*
X108814286Y-93565057D02*
X108861905Y-93517438D01*
X108861905Y-93517438D02*
X108957143Y-93469819D01*
X109719048Y-94469819D02*
X109719048Y-93469819D01*
X110290476Y-94469819D02*
X109861905Y-93898390D01*
X110290476Y-93469819D02*
X109719048Y-94041247D01*
X110671429Y-94469819D02*
X110909524Y-94469819D01*
X110909524Y-94469819D02*
X110909524Y-94279342D01*
X110909524Y-94279342D02*
X110814286Y-94231723D01*
X110814286Y-94231723D02*
X110719048Y-94136485D01*
X110719048Y-94136485D02*
X110671429Y-93993628D01*
X110671429Y-93993628D02*
X110671429Y-93755533D01*
X110671429Y-93755533D02*
X110719048Y-93612676D01*
X110719048Y-93612676D02*
X110814286Y-93517438D01*
X110814286Y-93517438D02*
X110957143Y-93469819D01*
X110957143Y-93469819D02*
X111147619Y-93469819D01*
X111147619Y-93469819D02*
X111290476Y-93517438D01*
X111290476Y-93517438D02*
X111385714Y-93612676D01*
X111385714Y-93612676D02*
X111433333Y-93755533D01*
X111433333Y-93755533D02*
X111433333Y-93993628D01*
X111433333Y-93993628D02*
X111385714Y-94136485D01*
X111385714Y-94136485D02*
X111290476Y-94231723D01*
X111290476Y-94231723D02*
X111195238Y-94279342D01*
X111195238Y-94279342D02*
X111195238Y-94469819D01*
X111195238Y-94469819D02*
X111433333Y-94469819D01*
X114676190Y-89869819D02*
X114200000Y-89869819D01*
X114200000Y-89869819D02*
X114152381Y-90346009D01*
X114152381Y-90346009D02*
X114200000Y-90298390D01*
X114200000Y-90298390D02*
X114295238Y-90250771D01*
X114295238Y-90250771D02*
X114533333Y-90250771D01*
X114533333Y-90250771D02*
X114628571Y-90298390D01*
X114628571Y-90298390D02*
X114676190Y-90346009D01*
X114676190Y-90346009D02*
X114723809Y-90441247D01*
X114723809Y-90441247D02*
X114723809Y-90679342D01*
X114723809Y-90679342D02*
X114676190Y-90774580D01*
X114676190Y-90774580D02*
X114628571Y-90822200D01*
X114628571Y-90822200D02*
X114533333Y-90869819D01*
X114533333Y-90869819D02*
X114295238Y-90869819D01*
X114295238Y-90869819D02*
X114200000Y-90822200D01*
X114200000Y-90822200D02*
X114152381Y-90774580D01*
X115104762Y-89965057D02*
X115152381Y-89917438D01*
X115152381Y-89917438D02*
X115247619Y-89869819D01*
X115247619Y-89869819D02*
X115485714Y-89869819D01*
X115485714Y-89869819D02*
X115580952Y-89917438D01*
X115580952Y-89917438D02*
X115628571Y-89965057D01*
X115628571Y-89965057D02*
X115676190Y-90060295D01*
X115676190Y-90060295D02*
X115676190Y-90155533D01*
X115676190Y-90155533D02*
X115628571Y-90298390D01*
X115628571Y-90298390D02*
X115057143Y-90869819D01*
X115057143Y-90869819D02*
X115676190Y-90869819D01*
X116152381Y-90822200D02*
X116152381Y-90869819D01*
X116152381Y-90869819D02*
X116104762Y-90965057D01*
X116104762Y-90965057D02*
X116057143Y-91012676D01*
X116485714Y-89869819D02*
X117104761Y-89869819D01*
X117104761Y-89869819D02*
X116771428Y-90250771D01*
X116771428Y-90250771D02*
X116914285Y-90250771D01*
X116914285Y-90250771D02*
X117009523Y-90298390D01*
X117009523Y-90298390D02*
X117057142Y-90346009D01*
X117057142Y-90346009D02*
X117104761Y-90441247D01*
X117104761Y-90441247D02*
X117104761Y-90679342D01*
X117104761Y-90679342D02*
X117057142Y-90774580D01*
X117057142Y-90774580D02*
X117009523Y-90822200D01*
X117009523Y-90822200D02*
X116914285Y-90869819D01*
X116914285Y-90869819D02*
X116628571Y-90869819D01*
X116628571Y-90869819D02*
X116533333Y-90822200D01*
X116533333Y-90822200D02*
X116485714Y-90774580D01*
X117533333Y-90869819D02*
X117533333Y-89869819D01*
X118104761Y-90869819D02*
X117676190Y-90298390D01*
X118104761Y-89869819D02*
X117533333Y-90441247D01*
X118485714Y-90869819D02*
X118723809Y-90869819D01*
X118723809Y-90869819D02*
X118723809Y-90679342D01*
X118723809Y-90679342D02*
X118628571Y-90631723D01*
X118628571Y-90631723D02*
X118533333Y-90536485D01*
X118533333Y-90536485D02*
X118485714Y-90393628D01*
X118485714Y-90393628D02*
X118485714Y-90155533D01*
X118485714Y-90155533D02*
X118533333Y-90012676D01*
X118533333Y-90012676D02*
X118628571Y-89917438D01*
X118628571Y-89917438D02*
X118771428Y-89869819D01*
X118771428Y-89869819D02*
X118961904Y-89869819D01*
X118961904Y-89869819D02*
X119104761Y-89917438D01*
X119104761Y-89917438D02*
X119199999Y-90012676D01*
X119199999Y-90012676D02*
X119247618Y-90155533D01*
X119247618Y-90155533D02*
X119247618Y-90393628D01*
X119247618Y-90393628D02*
X119199999Y-90536485D01*
X119199999Y-90536485D02*
X119104761Y-90631723D01*
X119104761Y-90631723D02*
X119009523Y-90679342D01*
X119009523Y-90679342D02*
X119009523Y-90869819D01*
X119009523Y-90869819D02*
X119247618Y-90869819D01*
X90869819Y-81833332D02*
X91869819Y-81166666D01*
X90869819Y-81166666D02*
X91869819Y-81833332D01*
X91869819Y-80785713D02*
X91203152Y-80785713D01*
X90869819Y-80785713D02*
X90917438Y-80833332D01*
X90917438Y-80833332D02*
X90965057Y-80785713D01*
X90965057Y-80785713D02*
X90917438Y-80738094D01*
X90917438Y-80738094D02*
X90869819Y-80785713D01*
X90869819Y-80785713D02*
X90965057Y-80785713D01*
X91869819Y-79880952D02*
X91346009Y-79880952D01*
X91346009Y-79880952D02*
X91250771Y-79928571D01*
X91250771Y-79928571D02*
X91203152Y-80023809D01*
X91203152Y-80023809D02*
X91203152Y-80214285D01*
X91203152Y-80214285D02*
X91250771Y-80309523D01*
X91822200Y-79880952D02*
X91869819Y-79976190D01*
X91869819Y-79976190D02*
X91869819Y-80214285D01*
X91869819Y-80214285D02*
X91822200Y-80309523D01*
X91822200Y-80309523D02*
X91726961Y-80357142D01*
X91726961Y-80357142D02*
X91631723Y-80357142D01*
X91631723Y-80357142D02*
X91536485Y-80309523D01*
X91536485Y-80309523D02*
X91488866Y-80214285D01*
X91488866Y-80214285D02*
X91488866Y-79976190D01*
X91488866Y-79976190D02*
X91441247Y-79880952D01*
X91869819Y-79261904D02*
X91822200Y-79357142D01*
X91822200Y-79357142D02*
X91774580Y-79404761D01*
X91774580Y-79404761D02*
X91679342Y-79452380D01*
X91679342Y-79452380D02*
X91393628Y-79452380D01*
X91393628Y-79452380D02*
X91298390Y-79404761D01*
X91298390Y-79404761D02*
X91250771Y-79357142D01*
X91250771Y-79357142D02*
X91203152Y-79261904D01*
X91203152Y-79261904D02*
X91203152Y-79119047D01*
X91203152Y-79119047D02*
X91250771Y-79023809D01*
X91250771Y-79023809D02*
X91298390Y-78976190D01*
X91298390Y-78976190D02*
X91393628Y-78928571D01*
X91393628Y-78928571D02*
X91679342Y-78928571D01*
X91679342Y-78928571D02*
X91774580Y-78976190D01*
X91774580Y-78976190D02*
X91822200Y-79023809D01*
X91822200Y-79023809D02*
X91869819Y-79119047D01*
X91869819Y-79119047D02*
X91869819Y-79261904D01*
X91346009Y-77738094D02*
X91346009Y-77404761D01*
X91869819Y-77261904D02*
X91869819Y-77738094D01*
X91869819Y-77738094D02*
X90869819Y-77738094D01*
X90869819Y-77738094D02*
X90869819Y-77261904D01*
X91822200Y-76880951D02*
X91869819Y-76738094D01*
X91869819Y-76738094D02*
X91869819Y-76499999D01*
X91869819Y-76499999D02*
X91822200Y-76404761D01*
X91822200Y-76404761D02*
X91774580Y-76357142D01*
X91774580Y-76357142D02*
X91679342Y-76309523D01*
X91679342Y-76309523D02*
X91584104Y-76309523D01*
X91584104Y-76309523D02*
X91488866Y-76357142D01*
X91488866Y-76357142D02*
X91441247Y-76404761D01*
X91441247Y-76404761D02*
X91393628Y-76499999D01*
X91393628Y-76499999D02*
X91346009Y-76690475D01*
X91346009Y-76690475D02*
X91298390Y-76785713D01*
X91298390Y-76785713D02*
X91250771Y-76833332D01*
X91250771Y-76833332D02*
X91155533Y-76880951D01*
X91155533Y-76880951D02*
X91060295Y-76880951D01*
X91060295Y-76880951D02*
X90965057Y-76833332D01*
X90965057Y-76833332D02*
X90917438Y-76785713D01*
X90917438Y-76785713D02*
X90869819Y-76690475D01*
X90869819Y-76690475D02*
X90869819Y-76452380D01*
X90869819Y-76452380D02*
X90917438Y-76309523D01*
X91869819Y-75880951D02*
X90869819Y-75880951D01*
X90869819Y-75880951D02*
X90869819Y-75499999D01*
X90869819Y-75499999D02*
X90917438Y-75404761D01*
X90917438Y-75404761D02*
X90965057Y-75357142D01*
X90965057Y-75357142D02*
X91060295Y-75309523D01*
X91060295Y-75309523D02*
X91203152Y-75309523D01*
X91203152Y-75309523D02*
X91298390Y-75357142D01*
X91298390Y-75357142D02*
X91346009Y-75404761D01*
X91346009Y-75404761D02*
X91393628Y-75499999D01*
X91393628Y-75499999D02*
X91393628Y-75880951D01*
X90869819Y-74976189D02*
X90869819Y-74357142D01*
X90869819Y-74357142D02*
X91250771Y-74690475D01*
X91250771Y-74690475D02*
X91250771Y-74547618D01*
X91250771Y-74547618D02*
X91298390Y-74452380D01*
X91298390Y-74452380D02*
X91346009Y-74404761D01*
X91346009Y-74404761D02*
X91441247Y-74357142D01*
X91441247Y-74357142D02*
X91679342Y-74357142D01*
X91679342Y-74357142D02*
X91774580Y-74404761D01*
X91774580Y-74404761D02*
X91822200Y-74452380D01*
X91822200Y-74452380D02*
X91869819Y-74547618D01*
X91869819Y-74547618D02*
X91869819Y-74833332D01*
X91869819Y-74833332D02*
X91822200Y-74928570D01*
X91822200Y-74928570D02*
X91774580Y-74976189D01*
X90965057Y-73976189D02*
X90917438Y-73928570D01*
X90917438Y-73928570D02*
X90869819Y-73833332D01*
X90869819Y-73833332D02*
X90869819Y-73595237D01*
X90869819Y-73595237D02*
X90917438Y-73499999D01*
X90917438Y-73499999D02*
X90965057Y-73452380D01*
X90965057Y-73452380D02*
X91060295Y-73404761D01*
X91060295Y-73404761D02*
X91155533Y-73404761D01*
X91155533Y-73404761D02*
X91298390Y-73452380D01*
X91298390Y-73452380D02*
X91869819Y-74023808D01*
X91869819Y-74023808D02*
X91869819Y-73404761D01*
X91488866Y-72976189D02*
X91488866Y-72214285D01*
X91774580Y-71166666D02*
X91822200Y-71214285D01*
X91822200Y-71214285D02*
X91869819Y-71357142D01*
X91869819Y-71357142D02*
X91869819Y-71452380D01*
X91869819Y-71452380D02*
X91822200Y-71595237D01*
X91822200Y-71595237D02*
X91726961Y-71690475D01*
X91726961Y-71690475D02*
X91631723Y-71738094D01*
X91631723Y-71738094D02*
X91441247Y-71785713D01*
X91441247Y-71785713D02*
X91298390Y-71785713D01*
X91298390Y-71785713D02*
X91107914Y-71738094D01*
X91107914Y-71738094D02*
X91012676Y-71690475D01*
X91012676Y-71690475D02*
X90917438Y-71595237D01*
X90917438Y-71595237D02*
X90869819Y-71452380D01*
X90869819Y-71452380D02*
X90869819Y-71357142D01*
X90869819Y-71357142D02*
X90917438Y-71214285D01*
X90917438Y-71214285D02*
X90965057Y-71166666D01*
X90869819Y-70309523D02*
X90869819Y-70499999D01*
X90869819Y-70499999D02*
X90917438Y-70595237D01*
X90917438Y-70595237D02*
X90965057Y-70642856D01*
X90965057Y-70642856D02*
X91107914Y-70738094D01*
X91107914Y-70738094D02*
X91298390Y-70785713D01*
X91298390Y-70785713D02*
X91679342Y-70785713D01*
X91679342Y-70785713D02*
X91774580Y-70738094D01*
X91774580Y-70738094D02*
X91822200Y-70690475D01*
X91822200Y-70690475D02*
X91869819Y-70595237D01*
X91869819Y-70595237D02*
X91869819Y-70404761D01*
X91869819Y-70404761D02*
X91822200Y-70309523D01*
X91822200Y-70309523D02*
X91774580Y-70261904D01*
X91774580Y-70261904D02*
X91679342Y-70214285D01*
X91679342Y-70214285D02*
X91441247Y-70214285D01*
X91441247Y-70214285D02*
X91346009Y-70261904D01*
X91346009Y-70261904D02*
X91298390Y-70309523D01*
X91298390Y-70309523D02*
X91250771Y-70404761D01*
X91250771Y-70404761D02*
X91250771Y-70595237D01*
X91250771Y-70595237D02*
X91298390Y-70690475D01*
X91298390Y-70690475D02*
X91346009Y-70738094D01*
X91346009Y-70738094D02*
X91441247Y-70785713D01*
X120669819Y-87961904D02*
X120669819Y-88533332D01*
X120669819Y-88247618D02*
X119669819Y-88247618D01*
X119669819Y-88247618D02*
X119812676Y-88342856D01*
X119812676Y-88342856D02*
X119907914Y-88438094D01*
X119907914Y-88438094D02*
X119955533Y-88533332D01*
X119669819Y-87342856D02*
X119669819Y-87247618D01*
X119669819Y-87247618D02*
X119717438Y-87152380D01*
X119717438Y-87152380D02*
X119765057Y-87104761D01*
X119765057Y-87104761D02*
X119860295Y-87057142D01*
X119860295Y-87057142D02*
X120050771Y-87009523D01*
X120050771Y-87009523D02*
X120288866Y-87009523D01*
X120288866Y-87009523D02*
X120479342Y-87057142D01*
X120479342Y-87057142D02*
X120574580Y-87104761D01*
X120574580Y-87104761D02*
X120622200Y-87152380D01*
X120622200Y-87152380D02*
X120669819Y-87247618D01*
X120669819Y-87247618D02*
X120669819Y-87342856D01*
X120669819Y-87342856D02*
X120622200Y-87438094D01*
X120622200Y-87438094D02*
X120574580Y-87485713D01*
X120574580Y-87485713D02*
X120479342Y-87533332D01*
X120479342Y-87533332D02*
X120288866Y-87580951D01*
X120288866Y-87580951D02*
X120050771Y-87580951D01*
X120050771Y-87580951D02*
X119860295Y-87533332D01*
X119860295Y-87533332D02*
X119765057Y-87485713D01*
X119765057Y-87485713D02*
X119717438Y-87438094D01*
X119717438Y-87438094D02*
X119669819Y-87342856D01*
X120669819Y-86580951D02*
X119669819Y-86580951D01*
X120669819Y-86009523D02*
X120098390Y-86438094D01*
X119669819Y-86009523D02*
X120241247Y-86580951D01*
X120669819Y-85628570D02*
X120669819Y-85390475D01*
X120669819Y-85390475D02*
X120479342Y-85390475D01*
X120479342Y-85390475D02*
X120431723Y-85485713D01*
X120431723Y-85485713D02*
X120336485Y-85580951D01*
X120336485Y-85580951D02*
X120193628Y-85628570D01*
X120193628Y-85628570D02*
X119955533Y-85628570D01*
X119955533Y-85628570D02*
X119812676Y-85580951D01*
X119812676Y-85580951D02*
X119717438Y-85485713D01*
X119717438Y-85485713D02*
X119669819Y-85342856D01*
X119669819Y-85342856D02*
X119669819Y-85152380D01*
X119669819Y-85152380D02*
X119717438Y-85009523D01*
X119717438Y-85009523D02*
X119812676Y-84914285D01*
X119812676Y-84914285D02*
X119955533Y-84866666D01*
X119955533Y-84866666D02*
X120193628Y-84866666D01*
X120193628Y-84866666D02*
X120336485Y-84914285D01*
X120336485Y-84914285D02*
X120431723Y-85009523D01*
X120431723Y-85009523D02*
X120479342Y-85104761D01*
X120479342Y-85104761D02*
X120669819Y-85104761D01*
X120669819Y-85104761D02*
X120669819Y-84866666D01*
X90828571Y-99002485D02*
X91400000Y-99002485D01*
X90714285Y-99345342D02*
X91114285Y-98145342D01*
X91114285Y-98145342D02*
X91514285Y-99345342D01*
X92599999Y-99231057D02*
X92542856Y-99288200D01*
X92542856Y-99288200D02*
X92371428Y-99345342D01*
X92371428Y-99345342D02*
X92257142Y-99345342D01*
X92257142Y-99345342D02*
X92085713Y-99288200D01*
X92085713Y-99288200D02*
X91971428Y-99173914D01*
X91971428Y-99173914D02*
X91914285Y-99059628D01*
X91914285Y-99059628D02*
X91857142Y-98831057D01*
X91857142Y-98831057D02*
X91857142Y-98659628D01*
X91857142Y-98659628D02*
X91914285Y-98431057D01*
X91914285Y-98431057D02*
X91971428Y-98316771D01*
X91971428Y-98316771D02*
X92085713Y-98202485D01*
X92085713Y-98202485D02*
X92257142Y-98145342D01*
X92257142Y-98145342D02*
X92371428Y-98145342D01*
X92371428Y-98145342D02*
X92542856Y-98202485D01*
X92542856Y-98202485D02*
X92599999Y-98259628D01*
X92999999Y-98145342D02*
X93285713Y-99345342D01*
X93285713Y-99345342D02*
X93514285Y-98488200D01*
X93514285Y-98488200D02*
X93742856Y-99345342D01*
X93742856Y-99345342D02*
X94028571Y-98145342D01*
X94714285Y-98145342D02*
X94828571Y-98145342D01*
X94828571Y-98145342D02*
X94942857Y-98202485D01*
X94942857Y-98202485D02*
X95000000Y-98259628D01*
X95000000Y-98259628D02*
X95057142Y-98373914D01*
X95057142Y-98373914D02*
X95114285Y-98602485D01*
X95114285Y-98602485D02*
X95114285Y-98888200D01*
X95114285Y-98888200D02*
X95057142Y-99116771D01*
X95057142Y-99116771D02*
X95000000Y-99231057D01*
X95000000Y-99231057D02*
X94942857Y-99288200D01*
X94942857Y-99288200D02*
X94828571Y-99345342D01*
X94828571Y-99345342D02*
X94714285Y-99345342D01*
X94714285Y-99345342D02*
X94600000Y-99288200D01*
X94600000Y-99288200D02*
X94542857Y-99231057D01*
X94542857Y-99231057D02*
X94485714Y-99116771D01*
X94485714Y-99116771D02*
X94428571Y-98888200D01*
X94428571Y-98888200D02*
X94428571Y-98602485D01*
X94428571Y-98602485D02*
X94485714Y-98373914D01*
X94485714Y-98373914D02*
X94542857Y-98259628D01*
X94542857Y-98259628D02*
X94600000Y-98202485D01*
X94600000Y-98202485D02*
X94714285Y-98145342D01*
X95571428Y-98259628D02*
X95628571Y-98202485D01*
X95628571Y-98202485D02*
X95742857Y-98145342D01*
X95742857Y-98145342D02*
X96028571Y-98145342D01*
X96028571Y-98145342D02*
X96142857Y-98202485D01*
X96142857Y-98202485D02*
X96199999Y-98259628D01*
X96199999Y-98259628D02*
X96257142Y-98373914D01*
X96257142Y-98373914D02*
X96257142Y-98488200D01*
X96257142Y-98488200D02*
X96199999Y-98659628D01*
X96199999Y-98659628D02*
X95514285Y-99345342D01*
X95514285Y-99345342D02*
X96257142Y-99345342D01*
X96771428Y-98888200D02*
X97685714Y-98888200D01*
X98142856Y-98145342D02*
X98942856Y-98145342D01*
X98942856Y-98145342D02*
X98142856Y-99345342D01*
X98142856Y-99345342D02*
X98942856Y-99345342D01*
X99799999Y-98716771D02*
X99971427Y-98773914D01*
X99971427Y-98773914D02*
X100028570Y-98831057D01*
X100028570Y-98831057D02*
X100085713Y-98945342D01*
X100085713Y-98945342D02*
X100085713Y-99116771D01*
X100085713Y-99116771D02*
X100028570Y-99231057D01*
X100028570Y-99231057D02*
X99971427Y-99288200D01*
X99971427Y-99288200D02*
X99857142Y-99345342D01*
X99857142Y-99345342D02*
X99399999Y-99345342D01*
X99399999Y-99345342D02*
X99399999Y-98145342D01*
X99399999Y-98145342D02*
X99799999Y-98145342D01*
X99799999Y-98145342D02*
X99914285Y-98202485D01*
X99914285Y-98202485D02*
X99971427Y-98259628D01*
X99971427Y-98259628D02*
X100028570Y-98373914D01*
X100028570Y-98373914D02*
X100028570Y-98488200D01*
X100028570Y-98488200D02*
X99971427Y-98602485D01*
X99971427Y-98602485D02*
X99914285Y-98659628D01*
X99914285Y-98659628D02*
X99799999Y-98716771D01*
X99799999Y-98716771D02*
X99399999Y-98716771D01*
X101399999Y-98545342D02*
X101685713Y-99345342D01*
X101685713Y-99345342D02*
X101971428Y-98545342D01*
X103057142Y-99345342D02*
X102371428Y-99345342D01*
X102714285Y-99345342D02*
X102714285Y-98145342D01*
X102714285Y-98145342D02*
X102599999Y-98316771D01*
X102599999Y-98316771D02*
X102485714Y-98431057D01*
X102485714Y-98431057D02*
X102371428Y-98488200D01*
X103571428Y-99231057D02*
X103628571Y-99288200D01*
X103628571Y-99288200D02*
X103571428Y-99345342D01*
X103571428Y-99345342D02*
X103514285Y-99288200D01*
X103514285Y-99288200D02*
X103571428Y-99231057D01*
X103571428Y-99231057D02*
X103571428Y-99345342D01*
X104085714Y-98259628D02*
X104142857Y-98202485D01*
X104142857Y-98202485D02*
X104257143Y-98145342D01*
X104257143Y-98145342D02*
X104542857Y-98145342D01*
X104542857Y-98145342D02*
X104657143Y-98202485D01*
X104657143Y-98202485D02*
X104714285Y-98259628D01*
X104714285Y-98259628D02*
X104771428Y-98373914D01*
X104771428Y-98373914D02*
X104771428Y-98488200D01*
X104771428Y-98488200D02*
X104714285Y-98659628D01*
X104714285Y-98659628D02*
X104028571Y-99345342D01*
X104028571Y-99345342D02*
X104771428Y-99345342D01*
X118033333Y-81954819D02*
X117557143Y-81954819D01*
X117557143Y-81954819D02*
X117557143Y-80954819D01*
X118890476Y-81954819D02*
X118319048Y-81954819D01*
X118604762Y-81954819D02*
X118604762Y-80954819D01*
X118604762Y-80954819D02*
X118509524Y-81097676D01*
X118509524Y-81097676D02*
X118414286Y-81192914D01*
X118414286Y-81192914D02*
X118319048Y-81240533D01*
D11*
%TO.C,D1*%
X121090000Y-82350000D02*
X121090000Y-85650000D01*
X121090000Y-82350000D02*
X126600000Y-82350000D01*
X121090000Y-85650000D02*
X126600000Y-85650000D01*
%TO.C,R10*%
X98765000Y-96627064D02*
X98765000Y-96172936D01*
X100235000Y-96627064D02*
X100235000Y-96172936D01*
%TO.C,R11*%
X132627064Y-89897500D02*
X132172936Y-89897500D01*
X132627064Y-88427500D02*
X132172936Y-88427500D01*
%TO.C,R1*%
X122314564Y-72735000D02*
X121860436Y-72735000D01*
X122314564Y-71265000D02*
X121860436Y-71265000D01*
%TO.C,C6*%
X129365000Y-83161252D02*
X129365000Y-82638748D01*
X130835000Y-83161252D02*
X130835000Y-82638748D01*
%TO.C,C5*%
X120910000Y-75488748D02*
X120910000Y-76911252D01*
X119090000Y-75488748D02*
X119090000Y-76911252D01*
%TO.C,R13*%
X124414564Y-89835000D02*
X123960436Y-89835000D01*
X124414564Y-88365000D02*
X123960436Y-88365000D01*
%TO.C,L1*%
X119210000Y-84210000D02*
X113790000Y-84210000D01*
X119210000Y-83010000D02*
X119210000Y-84210000D01*
X119210000Y-78790000D02*
X119210000Y-79990000D01*
X113790000Y-84210000D02*
X113790000Y-83010000D01*
X113790000Y-79990000D02*
X113790000Y-78790000D01*
X113790000Y-78790000D02*
X119210000Y-78790000D01*
%TO.C,Q3*%
X133860000Y-93702500D02*
X133860000Y-95222500D01*
X133810000Y-93702500D02*
X133860000Y-93702500D01*
X131910000Y-93702500D02*
X132690000Y-93702500D01*
X130740000Y-93702500D02*
X130790000Y-93702500D01*
X133860000Y-95222500D02*
X132860000Y-95222500D01*
X131740000Y-95222500D02*
X130740000Y-95222500D01*
X130740000Y-95222500D02*
X130740000Y-93702500D01*
X132680000Y-93162500D02*
X132350000Y-93402500D01*
X132350000Y-92922500D01*
X132680000Y-93162500D01*
G36*
X132680000Y-93162500D02*
G01*
X132350000Y-93402500D01*
X132350000Y-92922500D01*
X132680000Y-93162500D01*
G37*
%TO.C,Q1*%
X96560000Y-93740000D02*
X96560000Y-95260000D01*
X96510000Y-93740000D02*
X96560000Y-93740000D01*
X94610000Y-93740000D02*
X95390000Y-93740000D01*
X93440000Y-93740000D02*
X93490000Y-93740000D01*
X96560000Y-95260000D02*
X95560000Y-95260000D01*
X94440000Y-95260000D02*
X93440000Y-95260000D01*
X93440000Y-95260000D02*
X93440000Y-93740000D01*
X95380000Y-93200000D02*
X95050000Y-93440000D01*
X95050000Y-92960000D01*
X95380000Y-93200000D01*
G36*
X95380000Y-93200000D02*
G01*
X95050000Y-93440000D01*
X95050000Y-92960000D01*
X95380000Y-93200000D01*
G37*
%TO.C,R5*%
X116814564Y-89235000D02*
X116360436Y-89235000D01*
X116814564Y-87765000D02*
X116360436Y-87765000D01*
%TO.C,C3*%
X124590000Y-71186252D02*
X124590000Y-69763748D01*
X126410000Y-71186252D02*
X126410000Y-69763748D01*
%TO.C,J6*%
X139465000Y-85790000D02*
X138315000Y-85790000D01*
X138315000Y-85790000D02*
X138315000Y-86840000D01*
X138315000Y-86840000D02*
X137325000Y-86840000D01*
X141435000Y-86960000D02*
X141435000Y-92840000D01*
X139465000Y-94010000D02*
X138315000Y-94010000D01*
X138315000Y-94010000D02*
X138315000Y-92960000D01*
%TO.C,R9*%
X95227064Y-91335000D02*
X94772936Y-91335000D01*
X95227064Y-89865000D02*
X94772936Y-89865000D01*
%TO.C,R14*%
X118865000Y-96527064D02*
X118865000Y-96072936D01*
X120335000Y-96527064D02*
X120335000Y-96072936D01*
%TO.C,U3*%
X121940000Y-79060000D02*
X121940000Y-74940000D01*
X122035000Y-79060000D02*
X121940000Y-79060000D01*
X127060000Y-79060000D02*
X126965000Y-79060000D01*
X121940000Y-74940000D02*
X122035000Y-74940000D01*
X126965000Y-74940000D02*
X127060000Y-74940000D01*
X127060000Y-74940000D02*
X127060000Y-79060000D01*
X122030000Y-79600000D02*
X121700000Y-79840000D01*
X121700000Y-79360000D01*
X122030000Y-79600000D01*
G36*
X122030000Y-79600000D02*
G01*
X121700000Y-79840000D01*
X121700000Y-79360000D01*
X122030000Y-79600000D01*
G37*
%TO.C,C2*%
X127590000Y-71186252D02*
X127590000Y-69763748D01*
X129410000Y-71186252D02*
X129410000Y-69763748D01*
%TO.C,R4*%
X129735000Y-74860436D02*
X129735000Y-75314564D01*
X128265000Y-74860436D02*
X128265000Y-75314564D01*
%TO.C,R8*%
X109165000Y-96627064D02*
X109165000Y-96172936D01*
X110635000Y-96627064D02*
X110635000Y-96172936D01*
%TO.C,C7*%
X117910000Y-69763748D02*
X117910000Y-71186252D01*
X116090000Y-69763748D02*
X116090000Y-71186252D01*
%TO.C,R2*%
X121860436Y-68265000D02*
X122314564Y-68265000D01*
X121860436Y-69735000D02*
X122314564Y-69735000D01*
%TO.C,C8*%
X114910000Y-69763748D02*
X114910000Y-71186252D01*
X113090000Y-69763748D02*
X113090000Y-71186252D01*
%TO.C,R12*%
X127965000Y-96527064D02*
X127965000Y-96072936D01*
X129435000Y-96527064D02*
X129435000Y-96072936D01*
%TO.C,J1*%
X131545000Y-82010000D02*
X131545000Y-80590000D01*
X143265000Y-82010000D02*
X131545000Y-82010000D01*
X131545000Y-80590000D02*
X136045000Y-80590000D01*
X136045000Y-80590000D02*
X136045000Y-75700000D01*
X131855000Y-79750000D02*
X131855000Y-79150000D01*
X132455000Y-79450000D02*
X131855000Y-79750000D01*
X131855000Y-79150000D02*
X132455000Y-79450000D01*
X143265000Y-75700000D02*
X143265000Y-82010000D01*
X143265000Y-75700000D02*
X143265000Y-69390000D01*
X131545000Y-70810000D02*
X136045000Y-70810000D01*
X136045000Y-70810000D02*
X136045000Y-75700000D01*
X131545000Y-69390000D02*
X131545000Y-70810000D01*
X143265000Y-69390000D02*
X131545000Y-69390000D01*
X137155000Y-79700000D02*
X142655000Y-79700000D01*
X142655000Y-79200000D01*
X137155000Y-79200000D01*
X137155000Y-79700000D01*
X137155000Y-77200000D02*
X142655000Y-77200000D01*
X142655000Y-76700000D01*
X137155000Y-76700000D01*
X137155000Y-77200000D01*
X137155000Y-74700000D02*
X142655000Y-74700000D01*
X142655000Y-74200000D01*
X137155000Y-74200000D01*
X137155000Y-74700000D01*
X137155000Y-72200000D02*
X142655000Y-72200000D01*
X142655000Y-71700000D01*
X137155000Y-71700000D01*
X137155000Y-72200000D01*
%TO.C,R6*%
X128265000Y-79237064D02*
X128265000Y-78782936D01*
X129735000Y-79237064D02*
X129735000Y-78782936D01*
%TO.C,R7*%
X104914564Y-91235000D02*
X104460436Y-91235000D01*
X104914564Y-89765000D02*
X104460436Y-89765000D01*
%TO.C,Q4*%
X125697500Y-93815000D02*
X125697500Y-95335000D01*
X125647500Y-93815000D02*
X125697500Y-93815000D01*
X123747500Y-93815000D02*
X124527500Y-93815000D01*
X122577500Y-93815000D02*
X122627500Y-93815000D01*
X125697500Y-95335000D02*
X124697500Y-95335000D01*
X123577500Y-95335000D02*
X122577500Y-95335000D01*
X122577500Y-95335000D02*
X122577500Y-93815000D01*
X124517500Y-93275000D02*
X124187500Y-93515000D01*
X124187500Y-93035000D01*
X124517500Y-93275000D01*
G36*
X124517500Y-93275000D02*
G01*
X124187500Y-93515000D01*
X124187500Y-93035000D01*
X124517500Y-93275000D01*
G37*
%TO.C,R3*%
X117814564Y-86735000D02*
X117360436Y-86735000D01*
X117814564Y-85265000D02*
X117360436Y-85265000D01*
%TO.C,Q2*%
X106210000Y-93777500D02*
X106210000Y-95297500D01*
X106160000Y-93777500D02*
X106210000Y-93777500D01*
X104260000Y-93777500D02*
X105040000Y-93777500D01*
X103090000Y-93777500D02*
X103140000Y-93777500D01*
X106210000Y-95297500D02*
X105210000Y-95297500D01*
X104090000Y-95297500D02*
X103090000Y-95297500D01*
X103090000Y-95297500D02*
X103090000Y-93777500D01*
X105030000Y-93237500D02*
X104700000Y-93477500D01*
X104700000Y-92997500D01*
X105030000Y-93237500D01*
G36*
X105030000Y-93237500D02*
G01*
X104700000Y-93477500D01*
X104700000Y-92997500D01*
X105030000Y-93237500D01*
G37*
D12*
%TO.C,U1*%
X93165000Y-86053000D02*
X93165000Y-68908000D01*
X95070000Y-87958000D02*
X109040000Y-87958000D01*
D13*
X97560000Y-67003000D02*
X97563728Y-65992728D01*
X98063728Y-65493000D02*
X106059000Y-65493000D01*
X106559000Y-65993000D02*
X106559000Y-67003000D01*
D12*
X109040000Y-67003000D02*
X95070000Y-67003000D01*
X110945000Y-86053000D02*
X110945000Y-68908000D01*
X93165000Y-68904000D02*
G75*
G02*
X95070000Y-66999000I1905001J-1D01*
G01*
X95070000Y-87958000D02*
G75*
G02*
X93165000Y-86053000I1J1905001D01*
G01*
D13*
X97563728Y-65992728D02*
G75*
G02*
X98063728Y-65493001I500018J-291D01*
G01*
X106059000Y-65493000D02*
G75*
G02*
X106559000Y-65993000I0J-500000D01*
G01*
D12*
X109040000Y-67003000D02*
G75*
G02*
X110945000Y-68908000I0J-1905000D01*
G01*
X110945000Y-86053000D02*
G75*
G02*
X109040000Y-87958000I-1905000J0D01*
G01*
D14*
X93207000Y-67419000D02*
G75*
G02*
X92703000Y-67419000I-252000J0D01*
G01*
X92703000Y-67419000D02*
G75*
G02*
X93207000Y-67419000I252000J0D01*
G01*
X94481000Y-68136000D02*
G75*
G02*
X93977000Y-68136000I-252000J0D01*
G01*
X93977000Y-68136000D02*
G75*
G02*
X94481000Y-68136000I252000J0D01*
G01*
%TD*%
%LPC*%
D15*
%TO.C,D1*%
X122600000Y-84000000D03*
X126600000Y-84000000D03*
%TD*%
D16*
%TO.C,R10*%
X99500000Y-97312500D03*
X99500000Y-95487500D03*
%TD*%
D17*
%TO.C,R11*%
X133312500Y-89162500D03*
X131487500Y-89162500D03*
%TD*%
%TO.C,R1*%
X123000000Y-72000000D03*
X121175000Y-72000000D03*
%TD*%
D18*
%TO.C,C6*%
X130100000Y-83850000D03*
X130100000Y-81950000D03*
%TD*%
D19*
%TO.C,C5*%
X120000000Y-74725000D03*
X120000000Y-77675000D03*
%TD*%
D17*
%TO.C,R13*%
X125100000Y-89100000D03*
X123275000Y-89100000D03*
%TD*%
D20*
%TO.C,L1*%
X118550000Y-81500000D03*
X114450000Y-81500000D03*
%TD*%
D21*
%TO.C,Q3*%
X133250000Y-93525000D03*
X131350000Y-93525000D03*
X132300000Y-95400000D03*
%TD*%
%TO.C,Q1*%
X95950000Y-93562500D03*
X94050000Y-93562500D03*
X95000000Y-95437500D03*
%TD*%
D17*
%TO.C,R5*%
X117500000Y-88500000D03*
X115675000Y-88500000D03*
%TD*%
D22*
%TO.C,C3*%
X125500000Y-71950000D03*
X125500000Y-69000000D03*
%TD*%
D23*
%TO.C,J6*%
X138100000Y-87400000D03*
X138100000Y-88400000D03*
X138100000Y-89400000D03*
X138100000Y-90400000D03*
X138100000Y-91400000D03*
X138100000Y-92400000D03*
D24*
X140625000Y-86100000D03*
X140625000Y-93700000D03*
%TD*%
D17*
%TO.C,R9*%
X95912500Y-90600000D03*
X94087500Y-90600000D03*
%TD*%
D16*
%TO.C,R14*%
X119600000Y-97212500D03*
X119600000Y-95387500D03*
%TD*%
D25*
%TO.C,U3*%
X122595000Y-79475000D03*
X123865000Y-79475000D03*
X125135000Y-79475000D03*
X126405000Y-79475000D03*
X126405000Y-74525000D03*
X125135000Y-74525000D03*
X123865000Y-74525000D03*
X122595000Y-74525000D03*
D26*
X124500000Y-77000000D03*
%TD*%
D22*
%TO.C,C2*%
X128500000Y-71950000D03*
X128500000Y-69000000D03*
%TD*%
D27*
%TO.C,R4*%
X129000000Y-74175000D03*
X129000000Y-76000000D03*
%TD*%
D16*
%TO.C,R8*%
X109900000Y-97312500D03*
X109900000Y-95487500D03*
%TD*%
D19*
%TO.C,C7*%
X117000000Y-69000000D03*
X117000000Y-71950000D03*
%TD*%
D28*
%TO.C,R2*%
X121175000Y-69000000D03*
X123000000Y-69000000D03*
%TD*%
D19*
%TO.C,C8*%
X114000000Y-69000000D03*
X114000000Y-71950000D03*
%TD*%
D16*
%TO.C,R12*%
X128700000Y-97212500D03*
X128700000Y-95387500D03*
%TD*%
D29*
%TO.C,J1*%
X133955000Y-79450000D03*
D30*
X133955000Y-76950000D03*
X133955000Y-74450000D03*
X133955000Y-71950000D03*
%TD*%
D16*
%TO.C,R6*%
X129000000Y-79922500D03*
X129000000Y-78097500D03*
%TD*%
D17*
%TO.C,R7*%
X105600000Y-90500000D03*
X103775000Y-90500000D03*
%TD*%
D21*
%TO.C,Q4*%
X125087500Y-93637500D03*
X123187500Y-93637500D03*
X124137500Y-95512500D03*
%TD*%
D17*
%TO.C,R3*%
X118500000Y-86000000D03*
X116675000Y-86000000D03*
%TD*%
D21*
%TO.C,Q2*%
X105600000Y-93600000D03*
X103700000Y-93600000D03*
X104650000Y-95475000D03*
%TD*%
D31*
%TO.C,U1*%
X94000000Y-69920000D03*
X94000000Y-72460000D03*
X94000000Y-75000000D03*
X94000000Y-77540000D03*
X94000000Y-80080000D03*
X94000000Y-82620000D03*
X94000000Y-85160000D03*
X110165000Y-85160000D03*
X110165000Y-82620000D03*
X110165000Y-80080000D03*
X110165000Y-77540000D03*
X110165000Y-75000000D03*
X110165000Y-72460000D03*
X110165000Y-69920000D03*
D32*
X100273600Y-83071700D03*
X102813600Y-83071700D03*
D33*
X100781600Y-68898500D03*
X103321600Y-68898500D03*
X100781600Y-71438500D03*
X103321600Y-71438500D03*
X100781600Y-73978500D03*
X103321600Y-73978500D03*
X100781600Y-76518500D03*
X103229000Y-76461700D03*
%TD*%
%LPD*%
M02*
