%TF.GenerationSoftware,KiCad,Pcbnew,9.0.8-9.0.8~ubuntu24.04.1*%
%TF.CreationDate,2026-05-07T18:38:22+02:00*%
%TF.ProjectId,acw02_zb-v1.2,61637730-325f-47a6-922d-76312e322e6b,rev?*%
%TF.SameCoordinates,Original*%
%TF.FileFunction,Copper,L2,Bot*%
%TF.FilePolarity,Positive*%
%FSLAX46Y46*%
G04 Gerber Fmt 4.6, Leading zero omitted, Abs format (unit mm)*
G04 Created by KiCad (PCBNEW 9.0.8-9.0.8~ubuntu24.04.1) date 2026-05-07 18:38:22*
%MOMM*%
%LPD*%
G01*
G04 APERTURE LIST*
G04 Aperture macros list*
%AMRoundRect*
0 Rectangle with rounded corners*
0 $1 Rounding radius*
0 $2 $3 $4 $5 $6 $7 $8 $9 X,Y pos of 4 corners*
0 Add a 4 corners polygon primitive as box body*
4,1,4,$2,$3,$4,$5,$6,$7,$8,$9,$2,$3,0*
0 Add four circle primitives for the rounded corners*
1,1,$1+$1,$2,$3*
1,1,$1+$1,$4,$5*
1,1,$1+$1,$6,$7*
1,1,$1+$1,$8,$9*
0 Add four rect primitives between the rounded corners*
20,1,$1+$1,$2,$3,$4,$5,0*
20,1,$1+$1,$4,$5,$6,$7,0*
20,1,$1+$1,$6,$7,$8,$9,0*
20,1,$1+$1,$8,$9,$2,$3,0*%
G04 Aperture macros list end*
%TA.AperFunction,ComponentPad*%
%ADD10RoundRect,0.250000X0.725000X-0.600000X0.725000X0.600000X-0.725000X0.600000X-0.725000X-0.600000X0*%
%TD*%
%TA.AperFunction,ComponentPad*%
%ADD11O,1.950000X1.700000*%
%TD*%
%TA.AperFunction,ViaPad*%
%ADD12C,0.600000*%
%TD*%
%TA.AperFunction,ViaPad*%
%ADD13C,0.700000*%
%TD*%
%TA.AperFunction,Conductor*%
%ADD14C,1.000000*%
%TD*%
%TA.AperFunction,Conductor*%
%ADD15C,0.200000*%
%TD*%
%TA.AperFunction,Conductor*%
%ADD16C,0.500000*%
%TD*%
G04 APERTURE END LIST*
D10*
%TO.P,J1,1,Pin_1*%
%TO.N,RX_5V*%
X133955000Y-79450000D03*
D11*
%TO.P,J1,2,Pin_2*%
%TO.N,TX_5V*%
X133955000Y-76950000D03*
%TO.P,J1,3,Pin_3*%
%TO.N,GND*%
X133955000Y-74450000D03*
%TO.P,J1,4,Pin_4*%
%TO.N,+12V*%
X133955000Y-71950000D03*
%TD*%
D12*
%TO.N,GND*%
X95000000Y-92000000D03*
X124100000Y-92300000D03*
X109500000Y-92700000D03*
X132600000Y-84100000D03*
X110700000Y-87100000D03*
X136400000Y-91700000D03*
X122500000Y-81900000D03*
X113100000Y-86000000D03*
X98800000Y-79300000D03*
X117500000Y-77000000D03*
X140800000Y-88700000D03*
X132200000Y-91200000D03*
X134600000Y-92600000D03*
X104000000Y-79300000D03*
X92000000Y-94800000D03*
X120000000Y-89000000D03*
X106500000Y-70500000D03*
X127250000Y-86750000D03*
X135200000Y-68300000D03*
X100500000Y-92000000D03*
X130600000Y-69000000D03*
X136900000Y-73100000D03*
X136900000Y-75600000D03*
X106500000Y-72600000D03*
X129300000Y-93000000D03*
X111800000Y-90600000D03*
X114000000Y-74500000D03*
X131600000Y-75500000D03*
X142000000Y-98500000D03*
X138600000Y-96000000D03*
X92000000Y-91900000D03*
X119400000Y-92700000D03*
X104600000Y-92000000D03*
X139300000Y-91400000D03*
X107500000Y-78000000D03*
D13*
%TO.N,+5V*%
X110000000Y-97300000D03*
X115675000Y-88500000D03*
X119600000Y-97212500D03*
X99500000Y-97300000D03*
X128700000Y-97212500D03*
X138100000Y-92400000D03*
D12*
%TO.N,TX*%
X110165000Y-77540000D03*
X127800000Y-91600000D03*
%TO.N,+3.3V*%
X125100000Y-89100000D03*
X105700000Y-90300000D03*
X95900000Y-90500000D03*
X133312500Y-89162500D03*
X107500000Y-75500000D03*
X110165000Y-75000000D03*
%TO.N,Net-(U3-EN)*%
X123865000Y-79475000D03*
X121500000Y-73500000D03*
%TO.N,Net-(U3-FB)*%
X125000000Y-86400000D03*
X126405000Y-79475000D03*
%TO.N,GPIO2HV*%
X138200000Y-90400000D03*
X142300000Y-92200000D03*
%TD*%
D14*
%TO.N,+5V*%
X110000000Y-97300000D02*
X110200000Y-97100000D01*
X128700000Y-97212500D02*
X133287500Y-97212500D01*
X115675000Y-88500000D02*
X115675000Y-97075000D01*
X115700000Y-97100000D02*
X119487500Y-97100000D01*
X119487500Y-97100000D02*
X119600000Y-97212500D01*
X115675000Y-97075000D02*
X115700000Y-97100000D01*
X119600000Y-97212500D02*
X128700000Y-97212500D01*
X110200000Y-97100000D02*
X115700000Y-97100000D01*
X133287500Y-97212500D02*
X138100000Y-92400000D01*
X99500000Y-97300000D02*
X110000000Y-97300000D01*
D15*
%TO.N,TX*%
X124225000Y-91600000D02*
X110165000Y-77540000D01*
X127800000Y-91600000D02*
X124225000Y-91600000D01*
D16*
%TO.N,+3.3V*%
X133250000Y-89100000D02*
X133312500Y-89162500D01*
X106200000Y-80200000D02*
X106200000Y-76800000D01*
X106200000Y-76800000D02*
X107500000Y-75500000D01*
X95900000Y-90500000D02*
X106200000Y-80200000D01*
X125100000Y-89100000D02*
X133250000Y-89100000D01*
X106200000Y-89800000D02*
X106200000Y-80200000D01*
X125100000Y-89100000D02*
X124265000Y-89100000D01*
X124265000Y-89100000D02*
X110165000Y-75000000D01*
X105700000Y-90300000D02*
X106200000Y-89800000D01*
D15*
%TO.N,Net-(U3-EN)*%
X123865000Y-75865000D02*
X123865000Y-79475000D01*
X121500000Y-73500000D02*
X123865000Y-75865000D01*
%TO.N,Net-(U3-FB)*%
X126405000Y-85095000D02*
X126405000Y-79475000D01*
X125100000Y-86400000D02*
X126405000Y-85095000D01*
X125000000Y-86400000D02*
X125100000Y-86400000D01*
%TO.N,GPIO2HV*%
X138200000Y-90400000D02*
X140500000Y-90400000D01*
X140500000Y-90400000D02*
X142300000Y-92200000D01*
%TD*%
%TA.AperFunction,Conductor*%
%TO.N,GND*%
G36*
X142506922Y-67501280D02*
G01*
X142523878Y-67503190D01*
X142597268Y-67511458D01*
X142624333Y-67517636D01*
X142703539Y-67545351D01*
X142728549Y-67557395D01*
X142799606Y-67602043D01*
X142821313Y-67619355D01*
X142880644Y-67678686D01*
X142897957Y-67700395D01*
X142942602Y-67771447D01*
X142954649Y-67796464D01*
X142982362Y-67875662D01*
X142988541Y-67902734D01*
X142998720Y-67993076D01*
X142999500Y-68006959D01*
X142999500Y-91472649D01*
X142979815Y-91539688D01*
X142927011Y-91585443D01*
X142857853Y-91595387D01*
X142806609Y-91575751D01*
X142679185Y-91490609D01*
X142679172Y-91490602D01*
X142533501Y-91430264D01*
X142533491Y-91430261D01*
X142378149Y-91399361D01*
X142316238Y-91366976D01*
X142314660Y-91365425D01*
X140987590Y-90038355D01*
X140987588Y-90038352D01*
X140868717Y-89919481D01*
X140868716Y-89919480D01*
X140781904Y-89869360D01*
X140781904Y-89869359D01*
X140781900Y-89869358D01*
X140731785Y-89840423D01*
X140579057Y-89799499D01*
X140420943Y-89799499D01*
X140413347Y-89799499D01*
X140413331Y-89799500D01*
X138779766Y-89799500D01*
X138712727Y-89779815D01*
X138710875Y-89778602D01*
X138579185Y-89690609D01*
X138579172Y-89690602D01*
X138433501Y-89630264D01*
X138433489Y-89630261D01*
X138278845Y-89599500D01*
X138278842Y-89599500D01*
X138121158Y-89599500D01*
X138121155Y-89599500D01*
X137966510Y-89630261D01*
X137966498Y-89630264D01*
X137820827Y-89690602D01*
X137820814Y-89690609D01*
X137689711Y-89778210D01*
X137689707Y-89778213D01*
X137578213Y-89889707D01*
X137578210Y-89889711D01*
X137490609Y-90020814D01*
X137490602Y-90020827D01*
X137430264Y-90166498D01*
X137430261Y-90166510D01*
X137399500Y-90321153D01*
X137399500Y-90478846D01*
X137430261Y-90633489D01*
X137430264Y-90633501D01*
X137490602Y-90779172D01*
X137490609Y-90779185D01*
X137578210Y-90910288D01*
X137578213Y-90910292D01*
X137689707Y-91021786D01*
X137689711Y-91021789D01*
X137820814Y-91109390D01*
X137820827Y-91109397D01*
X137972130Y-91172068D01*
X137971410Y-91173805D01*
X138022518Y-91207293D01*
X138050980Y-91271102D01*
X138040426Y-91340170D01*
X137994206Y-91392568D01*
X137952283Y-91409281D01*
X137808169Y-91437947D01*
X137808163Y-91437949D01*
X137626087Y-91513367D01*
X137462214Y-91622863D01*
X137462213Y-91622864D01*
X132909399Y-96175681D01*
X132848076Y-96209166D01*
X132821718Y-96212000D01*
X119982776Y-96212000D01*
X119974597Y-96210373D01*
X119969521Y-96211289D01*
X119935323Y-96202561D01*
X119832665Y-96160038D01*
X119806000Y-96148993D01*
X119779337Y-96137949D01*
X119779333Y-96137948D01*
X119653653Y-96112949D01*
X119608578Y-96103983D01*
X119586042Y-96099500D01*
X119586041Y-96099500D01*
X116799500Y-96099500D01*
X116732461Y-96079815D01*
X116686706Y-96027011D01*
X116675500Y-95975500D01*
X116675500Y-88401456D01*
X116637052Y-88208170D01*
X116637051Y-88208169D01*
X116637051Y-88208165D01*
X116628343Y-88187141D01*
X116561635Y-88026092D01*
X116561628Y-88026079D01*
X116452139Y-87862218D01*
X116452136Y-87862214D01*
X116312785Y-87722863D01*
X116312781Y-87722860D01*
X116148920Y-87613371D01*
X116148907Y-87613364D01*
X115966839Y-87537950D01*
X115966829Y-87537947D01*
X115773543Y-87499500D01*
X115773541Y-87499500D01*
X115576459Y-87499500D01*
X115576457Y-87499500D01*
X115383170Y-87537947D01*
X115383160Y-87537950D01*
X115201092Y-87613364D01*
X115201079Y-87613371D01*
X115037218Y-87722860D01*
X115037214Y-87722863D01*
X114897863Y-87862214D01*
X114897860Y-87862218D01*
X114788371Y-88026079D01*
X114788364Y-88026092D01*
X114712950Y-88208160D01*
X114712947Y-88208170D01*
X114674500Y-88401456D01*
X114674500Y-95975500D01*
X114654815Y-96042539D01*
X114602011Y-96088294D01*
X114550500Y-96099500D01*
X110101454Y-96099500D01*
X110069391Y-96105876D01*
X110069392Y-96105877D01*
X109908170Y-96137946D01*
X109908164Y-96137948D01*
X109817125Y-96175658D01*
X109726086Y-96213367D01*
X109628456Y-96278602D01*
X109561778Y-96299480D01*
X109559565Y-96299500D01*
X99401457Y-96299500D01*
X99208170Y-96337947D01*
X99208160Y-96337950D01*
X99026092Y-96413364D01*
X99026079Y-96413371D01*
X98862218Y-96522860D01*
X98862214Y-96522863D01*
X98722863Y-96662214D01*
X98722860Y-96662218D01*
X98613371Y-96826079D01*
X98613364Y-96826092D01*
X98537950Y-97008160D01*
X98537947Y-97008170D01*
X98499500Y-97201456D01*
X98499500Y-97201459D01*
X98499500Y-97398541D01*
X98499500Y-97398543D01*
X98499499Y-97398543D01*
X98537947Y-97591829D01*
X98537950Y-97591839D01*
X98613364Y-97773907D01*
X98613371Y-97773920D01*
X98722860Y-97937781D01*
X98722863Y-97937785D01*
X98862214Y-98077136D01*
X98862218Y-98077139D01*
X99026079Y-98186628D01*
X99026092Y-98186635D01*
X99208160Y-98262049D01*
X99208165Y-98262051D01*
X99208169Y-98262051D01*
X99208170Y-98262052D01*
X99401456Y-98300500D01*
X99401459Y-98300500D01*
X110098542Y-98300500D01*
X110129566Y-98294328D01*
X110195188Y-98281275D01*
X110291836Y-98262051D01*
X110345165Y-98239961D01*
X110473914Y-98186632D01*
X110571544Y-98121398D01*
X110638222Y-98100520D01*
X110640435Y-98100500D01*
X115601459Y-98100500D01*
X115798540Y-98100500D01*
X119104724Y-98100500D01*
X119152176Y-98109938D01*
X119250100Y-98150500D01*
X119308164Y-98174551D01*
X119404812Y-98193775D01*
X119453135Y-98203387D01*
X119501458Y-98213000D01*
X119501459Y-98213000D01*
X133386042Y-98213000D01*
X133399386Y-98210345D01*
X133482688Y-98193775D01*
X133579336Y-98174551D01*
X133637400Y-98150500D01*
X133707659Y-98121398D01*
X133761407Y-98099135D01*
X133761407Y-98099134D01*
X133761414Y-98099132D01*
X133925282Y-97989639D01*
X134064639Y-97850282D01*
X134064639Y-97850280D01*
X134074847Y-97840073D01*
X134074848Y-97840070D01*
X138877140Y-93037781D01*
X138986631Y-92873914D01*
X139062051Y-92691836D01*
X139100500Y-92498540D01*
X139100500Y-92301460D01*
X139100500Y-92301457D01*
X139100499Y-92301455D01*
X139084652Y-92221786D01*
X139062051Y-92108164D01*
X139008620Y-91979172D01*
X138986632Y-91926087D01*
X138924760Y-91833489D01*
X138877140Y-91762219D01*
X138877138Y-91762217D01*
X138877136Y-91762214D01*
X138737785Y-91622863D01*
X138573912Y-91513367D01*
X138391836Y-91437949D01*
X138391829Y-91437947D01*
X138349882Y-91429603D01*
X138287971Y-91397217D01*
X138253397Y-91336501D01*
X138257138Y-91266732D01*
X138298005Y-91210060D01*
X138349883Y-91186369D01*
X138353785Y-91185592D01*
X138433497Y-91169737D01*
X138579179Y-91109394D01*
X138608643Y-91089707D01*
X138710875Y-91021398D01*
X138777553Y-91000520D01*
X138779766Y-91000500D01*
X140199903Y-91000500D01*
X140266942Y-91020185D01*
X140287584Y-91036819D01*
X141465425Y-92214660D01*
X141498910Y-92275983D01*
X141499361Y-92278149D01*
X141530261Y-92433491D01*
X141530264Y-92433501D01*
X141590602Y-92579172D01*
X141590609Y-92579185D01*
X141678210Y-92710288D01*
X141678213Y-92710292D01*
X141789707Y-92821786D01*
X141789711Y-92821789D01*
X141920814Y-92909390D01*
X141920827Y-92909397D01*
X142066498Y-92969735D01*
X142066503Y-92969737D01*
X142221153Y-93000499D01*
X142221156Y-93000500D01*
X142221158Y-93000500D01*
X142378844Y-93000500D01*
X142378845Y-93000499D01*
X142533497Y-92969737D01*
X142679179Y-92909394D01*
X142806609Y-92824248D01*
X142873286Y-92803370D01*
X142940666Y-92821854D01*
X142987357Y-92873833D01*
X142999500Y-92927350D01*
X142999500Y-98993040D01*
X142998720Y-99006923D01*
X142988541Y-99097265D01*
X142982362Y-99124337D01*
X142954649Y-99203535D01*
X142942602Y-99228552D01*
X142897957Y-99299604D01*
X142880644Y-99321313D01*
X142821313Y-99380644D01*
X142799604Y-99397957D01*
X142728552Y-99442602D01*
X142703535Y-99454649D01*
X142630567Y-99480182D01*
X142589614Y-99487141D01*
X90910386Y-99487141D01*
X90869432Y-99480182D01*
X90798288Y-99455287D01*
X90741514Y-99414566D01*
X90715767Y-99349613D01*
X90715245Y-99338247D01*
X90715245Y-90421153D01*
X95099500Y-90421153D01*
X95099500Y-90578846D01*
X95130261Y-90733489D01*
X95130264Y-90733501D01*
X95190602Y-90879172D01*
X95190609Y-90879185D01*
X95278210Y-91010288D01*
X95278213Y-91010292D01*
X95389707Y-91121786D01*
X95389711Y-91121789D01*
X95520814Y-91209390D01*
X95520827Y-91209397D01*
X95659248Y-91266732D01*
X95666503Y-91269737D01*
X95821153Y-91300499D01*
X95821156Y-91300500D01*
X95821158Y-91300500D01*
X95978844Y-91300500D01*
X95978845Y-91300499D01*
X96133497Y-91269737D01*
X96251592Y-91220821D01*
X96279172Y-91209397D01*
X96279172Y-91209396D01*
X96279179Y-91209394D01*
X96410289Y-91121789D01*
X96521789Y-91010289D01*
X96609394Y-90879179D01*
X96619191Y-90855524D01*
X96646069Y-90815297D01*
X99237907Y-88223459D01*
X99299230Y-88189975D01*
X99325588Y-88187141D01*
X105325500Y-88187141D01*
X105392539Y-88206826D01*
X105438294Y-88259630D01*
X105449500Y-88311141D01*
X105449500Y-89437768D01*
X105440854Y-89467210D01*
X105434331Y-89497197D01*
X105430577Y-89502211D01*
X105429815Y-89504807D01*
X105413180Y-89525451D01*
X105384700Y-89553930D01*
X105344477Y-89580806D01*
X105320823Y-89590604D01*
X105320818Y-89590607D01*
X105189715Y-89678207D01*
X105189707Y-89678213D01*
X105078213Y-89789707D01*
X105078210Y-89789711D01*
X104990609Y-89920814D01*
X104990602Y-89920827D01*
X104930264Y-90066498D01*
X104930261Y-90066510D01*
X104899500Y-90221153D01*
X104899500Y-90378846D01*
X104930261Y-90533489D01*
X104930264Y-90533501D01*
X104990602Y-90679172D01*
X104990609Y-90679185D01*
X105078210Y-90810288D01*
X105078213Y-90810292D01*
X105189707Y-90921786D01*
X105189711Y-90921789D01*
X105320814Y-91009390D01*
X105320827Y-91009397D01*
X105387031Y-91036819D01*
X105466503Y-91069737D01*
X105621153Y-91100499D01*
X105621156Y-91100500D01*
X105621158Y-91100500D01*
X105778844Y-91100500D01*
X105778845Y-91100499D01*
X105933497Y-91069737D01*
X106079179Y-91009394D01*
X106210289Y-90921789D01*
X106321789Y-90810289D01*
X106409394Y-90679179D01*
X106419191Y-90655524D01*
X106446067Y-90615299D01*
X106782952Y-90278416D01*
X106856584Y-90168216D01*
X106865084Y-90155495D01*
X106921658Y-90018913D01*
X106938899Y-89932238D01*
X106950500Y-89873920D01*
X106950500Y-88311141D01*
X106970185Y-88244102D01*
X107022989Y-88198347D01*
X107074500Y-88187141D01*
X108200000Y-88187141D01*
X108200000Y-80087141D01*
X107074500Y-80087141D01*
X107007461Y-80067456D01*
X106961706Y-80014652D01*
X106950500Y-79963141D01*
X106950500Y-77461153D01*
X109364500Y-77461153D01*
X109364500Y-77618846D01*
X109395261Y-77773489D01*
X109395264Y-77773501D01*
X109455602Y-77919172D01*
X109455609Y-77919185D01*
X109543210Y-78050288D01*
X109543213Y-78050292D01*
X109654707Y-78161786D01*
X109654711Y-78161789D01*
X109785814Y-78249390D01*
X109785827Y-78249397D01*
X109931498Y-78309735D01*
X109931503Y-78309737D01*
X109996147Y-78322595D01*
X110086849Y-78340638D01*
X110148760Y-78373023D01*
X110150338Y-78374573D01*
X123856284Y-92080520D01*
X123856286Y-92080521D01*
X123856290Y-92080524D01*
X123993209Y-92159573D01*
X123993216Y-92159577D01*
X124145943Y-92200501D01*
X124145945Y-92200501D01*
X124311654Y-92200501D01*
X124311670Y-92200500D01*
X127220234Y-92200500D01*
X127287273Y-92220185D01*
X127289125Y-92221398D01*
X127420814Y-92309390D01*
X127420827Y-92309397D01*
X127566498Y-92369735D01*
X127566503Y-92369737D01*
X127721153Y-92400499D01*
X127721156Y-92400500D01*
X127721158Y-92400500D01*
X127878844Y-92400500D01*
X127878845Y-92400499D01*
X128033497Y-92369737D01*
X128179179Y-92309394D01*
X128310289Y-92221789D01*
X128421789Y-92110289D01*
X128509394Y-91979179D01*
X128569737Y-91833497D01*
X128585048Y-91756520D01*
X128600500Y-91678845D01*
X128600500Y-91521155D01*
X128600499Y-91521153D01*
X128590851Y-91472649D01*
X128569737Y-91366503D01*
X128569735Y-91366498D01*
X128509397Y-91220827D01*
X128509390Y-91220814D01*
X128421789Y-91089711D01*
X128421786Y-91089707D01*
X128310292Y-90978213D01*
X128310288Y-90978210D01*
X128179185Y-90890609D01*
X128179172Y-90890602D01*
X128033501Y-90830264D01*
X128033489Y-90830261D01*
X127878845Y-90799500D01*
X127878842Y-90799500D01*
X127721158Y-90799500D01*
X127721155Y-90799500D01*
X127566510Y-90830261D01*
X127566498Y-90830264D01*
X127420827Y-90890602D01*
X127420814Y-90890609D01*
X127289125Y-90978602D01*
X127222447Y-90999480D01*
X127220234Y-90999500D01*
X124525098Y-90999500D01*
X124458059Y-90979815D01*
X124437417Y-90963181D01*
X110999573Y-77525337D01*
X110966088Y-77464014D01*
X110965637Y-77461847D01*
X110934738Y-77306510D01*
X110934737Y-77306503D01*
X110918059Y-77266239D01*
X110874397Y-77160827D01*
X110874390Y-77160814D01*
X110795187Y-77042279D01*
X110795186Y-77042278D01*
X110786789Y-77029711D01*
X110675289Y-76918211D01*
X110662721Y-76909813D01*
X110662720Y-76909812D01*
X110544185Y-76830609D01*
X110544172Y-76830602D01*
X110398501Y-76770264D01*
X110398489Y-76770261D01*
X110243845Y-76739500D01*
X110243842Y-76739500D01*
X110086158Y-76739500D01*
X110086155Y-76739500D01*
X109931510Y-76770261D01*
X109931498Y-76770264D01*
X109785827Y-76830602D01*
X109785814Y-76830609D01*
X109654711Y-76918210D01*
X109654707Y-76918213D01*
X109543213Y-77029707D01*
X109543210Y-77029711D01*
X109455609Y-77160814D01*
X109455602Y-77160827D01*
X109395264Y-77306498D01*
X109395261Y-77306510D01*
X109364500Y-77461153D01*
X106950500Y-77461153D01*
X106950500Y-77162229D01*
X106970185Y-77095190D01*
X106986819Y-77074548D01*
X107335288Y-76726079D01*
X107815297Y-76246069D01*
X107855522Y-76219192D01*
X107879179Y-76209394D01*
X108010289Y-76121789D01*
X108121789Y-76010289D01*
X108209394Y-75879179D01*
X108269737Y-75733497D01*
X108300500Y-75578842D01*
X108300500Y-75421158D01*
X108300500Y-75421155D01*
X108300499Y-75421153D01*
X108269738Y-75266510D01*
X108269737Y-75266503D01*
X108228631Y-75167263D01*
X108209397Y-75120827D01*
X108209390Y-75120814D01*
X108121790Y-74989712D01*
X108121784Y-74989705D01*
X108053232Y-74921153D01*
X109364500Y-74921153D01*
X109364500Y-75078846D01*
X109395261Y-75233489D01*
X109395264Y-75233501D01*
X109455602Y-75379172D01*
X109455609Y-75379185D01*
X109543210Y-75510288D01*
X109543213Y-75510292D01*
X109654710Y-75621789D01*
X109703967Y-75654701D01*
X109785821Y-75709394D01*
X109809475Y-75719191D01*
X109849703Y-75746071D01*
X123786580Y-89682948D01*
X123786584Y-89682951D01*
X123909498Y-89765080D01*
X123909511Y-89765087D01*
X124046082Y-89821656D01*
X124046087Y-89821658D01*
X124046091Y-89821658D01*
X124046092Y-89821659D01*
X124191079Y-89850500D01*
X124191082Y-89850500D01*
X124338917Y-89850500D01*
X124795396Y-89850500D01*
X124842844Y-89859937D01*
X124866503Y-89869737D01*
X124866508Y-89869738D01*
X124866511Y-89869739D01*
X125021153Y-89900499D01*
X125021156Y-89900500D01*
X125021158Y-89900500D01*
X125178844Y-89900500D01*
X125178845Y-89900499D01*
X125290916Y-89878207D01*
X125333488Y-89869739D01*
X125333489Y-89869738D01*
X125333497Y-89869737D01*
X125357155Y-89859937D01*
X125404604Y-89850500D01*
X132863688Y-89850500D01*
X132927794Y-89869323D01*
X132927954Y-89869025D01*
X132929389Y-89869792D01*
X132930727Y-89870185D01*
X132932577Y-89871397D01*
X132933321Y-89871894D01*
X132933323Y-89871894D01*
X132933325Y-89871896D01*
X133078998Y-89932235D01*
X133079003Y-89932237D01*
X133233653Y-89962999D01*
X133233656Y-89963000D01*
X133233658Y-89963000D01*
X133391344Y-89963000D01*
X133391345Y-89962999D01*
X133545997Y-89932237D01*
X133658666Y-89885567D01*
X133691672Y-89871897D01*
X133691672Y-89871896D01*
X133691679Y-89871894D01*
X133822789Y-89784289D01*
X133934289Y-89672789D01*
X134021894Y-89541679D01*
X134082237Y-89395997D01*
X134113000Y-89241342D01*
X134113000Y-89083658D01*
X134113000Y-89083655D01*
X134112999Y-89083653D01*
X134082238Y-88929010D01*
X134082237Y-88929003D01*
X134082235Y-88928998D01*
X134021897Y-88783327D01*
X134021890Y-88783314D01*
X133934289Y-88652211D01*
X133934286Y-88652207D01*
X133822792Y-88540713D01*
X133822788Y-88540710D01*
X133691685Y-88453109D01*
X133691672Y-88453102D01*
X133546001Y-88392764D01*
X133545989Y-88392761D01*
X133391340Y-88361999D01*
X133388316Y-88361701D01*
X133376284Y-88359916D01*
X133323920Y-88349500D01*
X133323918Y-88349500D01*
X125404604Y-88349500D01*
X125357155Y-88340062D01*
X125333497Y-88330263D01*
X125333493Y-88330262D01*
X125333488Y-88330260D01*
X125178845Y-88299500D01*
X125178842Y-88299500D01*
X125021158Y-88299500D01*
X125021155Y-88299500D01*
X124866511Y-88330260D01*
X124866506Y-88330262D01*
X124866504Y-88330262D01*
X124866503Y-88330263D01*
X124842844Y-88340062D01*
X124834670Y-88341688D01*
X124830331Y-88344477D01*
X124795396Y-88349500D01*
X124627229Y-88349500D01*
X124560190Y-88329815D01*
X124539548Y-88313181D01*
X122629114Y-86402747D01*
X122547520Y-86321153D01*
X124199500Y-86321153D01*
X124199500Y-86478846D01*
X124230261Y-86633489D01*
X124230264Y-86633501D01*
X124290602Y-86779172D01*
X124290609Y-86779185D01*
X124378210Y-86910288D01*
X124378213Y-86910292D01*
X124489707Y-87021786D01*
X124489711Y-87021789D01*
X124620814Y-87109390D01*
X124620827Y-87109397D01*
X124766498Y-87169735D01*
X124766503Y-87169737D01*
X124921153Y-87200499D01*
X124921156Y-87200500D01*
X124921158Y-87200500D01*
X125078844Y-87200500D01*
X125078845Y-87200499D01*
X125233497Y-87169737D01*
X125379179Y-87109394D01*
X125510289Y-87021789D01*
X125621789Y-86910289D01*
X125709394Y-86779179D01*
X125769737Y-86633497D01*
X125775806Y-86602981D01*
X125808191Y-86541071D01*
X125809743Y-86539492D01*
X126328421Y-86020814D01*
X126885520Y-85463716D01*
X126964577Y-85326784D01*
X127005501Y-85174057D01*
X127005501Y-85015942D01*
X127005501Y-85008347D01*
X127005500Y-85008329D01*
X127005500Y-80054765D01*
X127025185Y-79987726D01*
X127026398Y-79985874D01*
X127066772Y-79925451D01*
X127114394Y-79854179D01*
X127174737Y-79708497D01*
X127205500Y-79553842D01*
X127205500Y-79396158D01*
X127205500Y-79396155D01*
X127205499Y-79396153D01*
X127174738Y-79241510D01*
X127174737Y-79241503D01*
X127174735Y-79241498D01*
X127114397Y-79095827D01*
X127114390Y-79095814D01*
X127026789Y-78964711D01*
X127026786Y-78964707D01*
X126915292Y-78853213D01*
X126915288Y-78853210D01*
X126784185Y-78765609D01*
X126784172Y-78765602D01*
X126638501Y-78705264D01*
X126638489Y-78705261D01*
X126483845Y-78674500D01*
X126483842Y-78674500D01*
X126326158Y-78674500D01*
X126326155Y-78674500D01*
X126171510Y-78705261D01*
X126171498Y-78705264D01*
X126025827Y-78765602D01*
X126025814Y-78765609D01*
X125894711Y-78853210D01*
X125894707Y-78853213D01*
X125783213Y-78964707D01*
X125783210Y-78964711D01*
X125695609Y-79095814D01*
X125695602Y-79095827D01*
X125635264Y-79241498D01*
X125635261Y-79241510D01*
X125604500Y-79396153D01*
X125604500Y-79553846D01*
X125635261Y-79708489D01*
X125635264Y-79708501D01*
X125695602Y-79854172D01*
X125695609Y-79854185D01*
X125783602Y-79985874D01*
X125804480Y-80052551D01*
X125804500Y-80054765D01*
X125804500Y-84794902D01*
X125784815Y-84861941D01*
X125768181Y-84882583D01*
X125087584Y-85563181D01*
X125026261Y-85596666D01*
X124999903Y-85599500D01*
X124921155Y-85599500D01*
X124766510Y-85630261D01*
X124766498Y-85630264D01*
X124620827Y-85690602D01*
X124620814Y-85690609D01*
X124489711Y-85778210D01*
X124489707Y-85778213D01*
X124378213Y-85889707D01*
X124378210Y-85889711D01*
X124290609Y-86020814D01*
X124290602Y-86020827D01*
X124230264Y-86166498D01*
X124230261Y-86166510D01*
X124199500Y-86321153D01*
X122547520Y-86321153D01*
X117026867Y-80800500D01*
X110911071Y-74684703D01*
X110884191Y-74644475D01*
X110874394Y-74620821D01*
X110802040Y-74512535D01*
X110786789Y-74489710D01*
X110675292Y-74378213D01*
X110675288Y-74378210D01*
X110544185Y-74290609D01*
X110544172Y-74290602D01*
X110398501Y-74230264D01*
X110398489Y-74230261D01*
X110243845Y-74199500D01*
X110243842Y-74199500D01*
X110086158Y-74199500D01*
X110086155Y-74199500D01*
X109931510Y-74230261D01*
X109931498Y-74230264D01*
X109785827Y-74290602D01*
X109785814Y-74290609D01*
X109654711Y-74378210D01*
X109654707Y-74378213D01*
X109543213Y-74489707D01*
X109543210Y-74489711D01*
X109455609Y-74620814D01*
X109455602Y-74620827D01*
X109395264Y-74766498D01*
X109395261Y-74766510D01*
X109364500Y-74921153D01*
X108053232Y-74921153D01*
X108010292Y-74878213D01*
X108010288Y-74878210D01*
X107879185Y-74790609D01*
X107879172Y-74790602D01*
X107733501Y-74730264D01*
X107733489Y-74730261D01*
X107578845Y-74699500D01*
X107578842Y-74699500D01*
X107421158Y-74699500D01*
X107421155Y-74699500D01*
X107266510Y-74730261D01*
X107266498Y-74730264D01*
X107120827Y-74790602D01*
X107120814Y-74790609D01*
X106989711Y-74878210D01*
X106989707Y-74878213D01*
X106878213Y-74989707D01*
X106878207Y-74989715D01*
X106790607Y-75120818D01*
X106790606Y-75120819D01*
X106780805Y-75144480D01*
X106753927Y-75184703D01*
X105617050Y-76321581D01*
X105617048Y-76321584D01*
X105601056Y-76345519D01*
X105601054Y-76345520D01*
X105601054Y-76345521D01*
X105534916Y-76444503D01*
X105534914Y-76444506D01*
X105478343Y-76581082D01*
X105478340Y-76581092D01*
X105449500Y-76726079D01*
X105449500Y-79837770D01*
X105440855Y-79867210D01*
X105434332Y-79897197D01*
X105430577Y-79902212D01*
X105429815Y-79904809D01*
X105413181Y-79925451D01*
X105287810Y-80050822D01*
X105226487Y-80084307D01*
X105200129Y-80087141D01*
X95600000Y-80087141D01*
X95600000Y-88187141D01*
X96852128Y-88187141D01*
X96919167Y-88206826D01*
X96964922Y-88259630D01*
X96974866Y-88328788D01*
X96945841Y-88392344D01*
X96939809Y-88398822D01*
X95584703Y-89753927D01*
X95544480Y-89780805D01*
X95520819Y-89790606D01*
X95520818Y-89790607D01*
X95389715Y-89878207D01*
X95389707Y-89878213D01*
X95278213Y-89989707D01*
X95278210Y-89989711D01*
X95190609Y-90120814D01*
X95190602Y-90120827D01*
X95130264Y-90266498D01*
X95130261Y-90266510D01*
X95099500Y-90421153D01*
X90715245Y-90421153D01*
X90715245Y-73421153D01*
X120699500Y-73421153D01*
X120699500Y-73578846D01*
X120730261Y-73733489D01*
X120730264Y-73733501D01*
X120790602Y-73879172D01*
X120790609Y-73879185D01*
X120878210Y-74010288D01*
X120878213Y-74010292D01*
X120989707Y-74121786D01*
X120989711Y-74121789D01*
X121120814Y-74209390D01*
X121120827Y-74209397D01*
X121259067Y-74266657D01*
X121266503Y-74269737D01*
X121331147Y-74282595D01*
X121421849Y-74300638D01*
X121483760Y-74333023D01*
X121485339Y-74334574D01*
X123228181Y-76077416D01*
X123261666Y-76138739D01*
X123264500Y-76165097D01*
X123264500Y-78895234D01*
X123244815Y-78962273D01*
X123243602Y-78964125D01*
X123155609Y-79095814D01*
X123155602Y-79095827D01*
X123095264Y-79241498D01*
X123095261Y-79241510D01*
X123064500Y-79396153D01*
X123064500Y-79553846D01*
X123095261Y-79708489D01*
X123095264Y-79708501D01*
X123155602Y-79854172D01*
X123155609Y-79854185D01*
X123243210Y-79985288D01*
X123243213Y-79985292D01*
X123354707Y-80096786D01*
X123354711Y-80096789D01*
X123485814Y-80184390D01*
X123485827Y-80184397D01*
X123631498Y-80244735D01*
X123631503Y-80244737D01*
X123786153Y-80275499D01*
X123786156Y-80275500D01*
X123786158Y-80275500D01*
X123943844Y-80275500D01*
X123943845Y-80275499D01*
X124098497Y-80244737D01*
X124244179Y-80184394D01*
X124375289Y-80096789D01*
X124486789Y-79985289D01*
X124574394Y-79854179D01*
X124634737Y-79708497D01*
X124665500Y-79553842D01*
X124665500Y-79396158D01*
X124665500Y-79396155D01*
X124665499Y-79396153D01*
X124634738Y-79241510D01*
X124634737Y-79241503D01*
X124634735Y-79241498D01*
X124574397Y-79095827D01*
X124574390Y-79095814D01*
X124486398Y-78964125D01*
X124465520Y-78897447D01*
X124465500Y-78895234D01*
X124465500Y-75785945D01*
X124465500Y-75785943D01*
X124444989Y-75709394D01*
X124424577Y-75633215D01*
X124384655Y-75564069D01*
X124384655Y-75564067D01*
X124345524Y-75496290D01*
X124345521Y-75496286D01*
X124345520Y-75496284D01*
X124233716Y-75384480D01*
X124233715Y-75384479D01*
X124229385Y-75380149D01*
X124229374Y-75380139D01*
X122334574Y-73485339D01*
X122301089Y-73424016D01*
X122300638Y-73421849D01*
X122273760Y-73286729D01*
X122269737Y-73266503D01*
X122223684Y-73155320D01*
X122209397Y-73120827D01*
X122209390Y-73120814D01*
X122121789Y-72989711D01*
X122121786Y-72989707D01*
X122010292Y-72878213D01*
X122010288Y-72878210D01*
X121879185Y-72790609D01*
X121879172Y-72790602D01*
X121733501Y-72730264D01*
X121733489Y-72730261D01*
X121578845Y-72699500D01*
X121578842Y-72699500D01*
X121421158Y-72699500D01*
X121421155Y-72699500D01*
X121266510Y-72730261D01*
X121266498Y-72730264D01*
X121120827Y-72790602D01*
X121120814Y-72790609D01*
X120989711Y-72878210D01*
X120989707Y-72878213D01*
X120878213Y-72989707D01*
X120878210Y-72989711D01*
X120790609Y-73120814D01*
X120790602Y-73120827D01*
X120730264Y-73266498D01*
X120730261Y-73266510D01*
X120699500Y-73421153D01*
X90715245Y-73421153D01*
X90715245Y-71843713D01*
X132479500Y-71843713D01*
X132479500Y-72056286D01*
X132512753Y-72266239D01*
X132578444Y-72468414D01*
X132674951Y-72657820D01*
X132799890Y-72829786D01*
X132950209Y-72980105D01*
X132950214Y-72980109D01*
X133115218Y-73099991D01*
X133157884Y-73155320D01*
X133163863Y-73224934D01*
X133131258Y-73286729D01*
X133115218Y-73300627D01*
X132950540Y-73420272D01*
X132950535Y-73420276D01*
X132800276Y-73570535D01*
X132800272Y-73570540D01*
X132675379Y-73742442D01*
X132578904Y-73931782D01*
X132513242Y-74133870D01*
X132513242Y-74133873D01*
X132502769Y-74200000D01*
X133550854Y-74200000D01*
X133512370Y-74266657D01*
X133480000Y-74387465D01*
X133480000Y-74512535D01*
X133512370Y-74633343D01*
X133550854Y-74700000D01*
X132502769Y-74700000D01*
X132513242Y-74766126D01*
X132513242Y-74766129D01*
X132578904Y-74968217D01*
X132675379Y-75157557D01*
X132800272Y-75329459D01*
X132800276Y-75329464D01*
X132950535Y-75479723D01*
X132950540Y-75479727D01*
X133115218Y-75599372D01*
X133157884Y-75654701D01*
X133163863Y-75724315D01*
X133131258Y-75786110D01*
X133115218Y-75800008D01*
X132950214Y-75919890D01*
X132950209Y-75919894D01*
X132799890Y-76070213D01*
X132674951Y-76242179D01*
X132578444Y-76431585D01*
X132512753Y-76633760D01*
X132479500Y-76843713D01*
X132479500Y-77056286D01*
X132496055Y-77160814D01*
X132512754Y-77266243D01*
X132576084Y-77461153D01*
X132578444Y-77468414D01*
X132674951Y-77657820D01*
X132799890Y-77829786D01*
X132938705Y-77968601D01*
X132972190Y-78029924D01*
X132967206Y-78099616D01*
X132925334Y-78155549D01*
X132916121Y-78161821D01*
X132761342Y-78257289D01*
X132637289Y-78381342D01*
X132545187Y-78530663D01*
X132545186Y-78530666D01*
X132490001Y-78697203D01*
X132490001Y-78697204D01*
X132490000Y-78697204D01*
X132479500Y-78799983D01*
X132479500Y-80100001D01*
X132479501Y-80100018D01*
X132490000Y-80202796D01*
X132490001Y-80202799D01*
X132514092Y-80275499D01*
X132545186Y-80369334D01*
X132637288Y-80518656D01*
X132761344Y-80642712D01*
X132910666Y-80734814D01*
X133077203Y-80789999D01*
X133179991Y-80800500D01*
X134730008Y-80800499D01*
X134832797Y-80789999D01*
X134999334Y-80734814D01*
X135148656Y-80642712D01*
X135272712Y-80518656D01*
X135364814Y-80369334D01*
X135419999Y-80202797D01*
X135430500Y-80100009D01*
X135430499Y-78799992D01*
X135426986Y-78765606D01*
X135419999Y-78697203D01*
X135419998Y-78697200D01*
X135412476Y-78674500D01*
X135364814Y-78530666D01*
X135272712Y-78381344D01*
X135148656Y-78257288D01*
X134999334Y-78165186D01*
X134999333Y-78165185D01*
X134993878Y-78161821D01*
X134947154Y-78109873D01*
X134935931Y-78040910D01*
X134963775Y-77976828D01*
X134971272Y-77968623D01*
X135110104Y-77829792D01*
X135151005Y-77773497D01*
X135235048Y-77657820D01*
X135235047Y-77657820D01*
X135235051Y-77657816D01*
X135331557Y-77468412D01*
X135397246Y-77266243D01*
X135430500Y-77056287D01*
X135430500Y-76843713D01*
X135397246Y-76633757D01*
X135331557Y-76431588D01*
X135235051Y-76242184D01*
X135235049Y-76242181D01*
X135235048Y-76242179D01*
X135110109Y-76070213D01*
X134959790Y-75919894D01*
X134959785Y-75919890D01*
X134794781Y-75800008D01*
X134752115Y-75744678D01*
X134746136Y-75675065D01*
X134778741Y-75613270D01*
X134794781Y-75599371D01*
X134959466Y-75479721D01*
X135109723Y-75329464D01*
X135109727Y-75329459D01*
X135234620Y-75157557D01*
X135331095Y-74968217D01*
X135396757Y-74766129D01*
X135396757Y-74766126D01*
X135407231Y-74700000D01*
X134359146Y-74700000D01*
X134397630Y-74633343D01*
X134430000Y-74512535D01*
X134430000Y-74387465D01*
X134397630Y-74266657D01*
X134359146Y-74200000D01*
X135407231Y-74200000D01*
X135396757Y-74133873D01*
X135396757Y-74133870D01*
X135331095Y-73931782D01*
X135234620Y-73742442D01*
X135109727Y-73570540D01*
X135109723Y-73570535D01*
X134959464Y-73420276D01*
X134959459Y-73420272D01*
X134794781Y-73300627D01*
X134752115Y-73245297D01*
X134746136Y-73175684D01*
X134778741Y-73113889D01*
X134794776Y-73099994D01*
X134959792Y-72980104D01*
X135110104Y-72829792D01*
X135110106Y-72829788D01*
X135110109Y-72829786D01*
X135235048Y-72657820D01*
X135235047Y-72657820D01*
X135235051Y-72657816D01*
X135331557Y-72468412D01*
X135397246Y-72266243D01*
X135430500Y-72056287D01*
X135430500Y-71843713D01*
X135397246Y-71633757D01*
X135331557Y-71431588D01*
X135235051Y-71242184D01*
X135235049Y-71242181D01*
X135235048Y-71242179D01*
X135110109Y-71070213D01*
X134959786Y-70919890D01*
X134787820Y-70794951D01*
X134598414Y-70698444D01*
X134598413Y-70698443D01*
X134598412Y-70698443D01*
X134396243Y-70632754D01*
X134396241Y-70632753D01*
X134396240Y-70632753D01*
X134234957Y-70607208D01*
X134186287Y-70599500D01*
X133723713Y-70599500D01*
X133675042Y-70607208D01*
X133513760Y-70632753D01*
X133311585Y-70698444D01*
X133122179Y-70794951D01*
X132950213Y-70919890D01*
X132799890Y-71070213D01*
X132674951Y-71242179D01*
X132578444Y-71431585D01*
X132512753Y-71633760D01*
X132479500Y-71843713D01*
X90715245Y-71843713D01*
X90715245Y-67661752D01*
X90721828Y-67639331D01*
X90723971Y-67616058D01*
X90731489Y-67606430D01*
X90734930Y-67594713D01*
X90752589Y-67579410D01*
X90766975Y-67560990D01*
X90784155Y-67552058D01*
X90787734Y-67548958D01*
X90798272Y-67544718D01*
X90875668Y-67517635D01*
X90902729Y-67511459D01*
X90978753Y-67502893D01*
X90993078Y-67501280D01*
X91006960Y-67500500D01*
X91065892Y-67500500D01*
X142434108Y-67500500D01*
X142493040Y-67500500D01*
X142506922Y-67501280D01*
G37*
%TD.AperFunction*%
%TD*%
M02*
